<svg id="debuff_vision.svg" data-name="debuff/vision.svg" xmlns="http://www.w3.org/2000/svg" width="496" height="496" viewBox="0 0 496 496">
  <defs>
    <style>
      .cls-1 {
        fill: #f54d4e;
      }

      .cls-2 {
        fill: #f86f70;
      }

      .cls-2, .cls-3, .cls-4, .cls-5, .cls-6, .cls-7, .cls-8, .cls-9 {
        fill-rule: evenodd;
      }

      .cls-3 {
        fill: #fa9c9c;
      }

      .cls-4 {
        fill: #e63944;
      }

      .cls-5 {
        fill: #fdffff;
      }

      .cls-6 {
        fill: #fdadad;
      }

      .cls-7 {
        fill: #ecbabf;
      }

      .cls-8 {
        fill: #a94141;
      }

      .cls-9 {
        fill: #e6dce3;
      }
    </style>
  </defs>
  <rect id="background" class="cls-1" x="25" y="25" width="446" height="446"/>
  <path id="effect_outer" class="cls-2" d="M210,68.941a45.738,45.738,0,0,0,17-4.994c14.739-8.32,18.774-25.284,30-35.96,9.682-9.208,19.188-12.064,24-11.987,9.411,0.151,17.35,6.071,22,10.988,10.792,11.41,9.118,23.993,18,35.96a51.99,51.99,0,0,0,16,13.985,44.629,44.629,0,0,0,16,4c14.122,0.775,27.847-7.327,36-8.99,14.071-2.87,29.017-3.083,36,4.994,9.82,11.359-2.466,39.026,0,58.935a87.548,87.548,0,0,0,8,26.97,54.739,54.739,0,0,0,16,12.986c16.315,8.632,34.928,2.023,44,11.986,10.1,11.093,6.239,37.977-7,54.94-4.931,6.318-20.8,15.155-25,28.967a34.841,34.841,0,0,0-1,14.984c3.989,27.92,43.69,37.653,43,57.935-0.473,13.9-18.87,23.586-24,25.972-18.767,8.728-31.653.333-51,8.99-9.406,4.209-15.211,9.132-19,13.984-18.694,23.938.9,61.345-16,75.916-8.339,7.19-22.676,5.921-36,2-13.437-3.956-27.982-20.183-43-17.98-5.854.858-9.909,3.725-14,6.992-19.629,15.674-29.932,31.127-46,33.962-18.164,3.206-34.539-8.929-41-14.983-10.815-10.134-12.734-25.854-26-32.964-4.046-2.168-18.435-3.777-35,0-21.057,4.8-32.933,12.946-46,6.993a26.994,26.994,0,0,1-10-7.991c-8.993-11.613-5.129-26.945-3-46.948,1.665-15.641.508-29.036-2-32.964-8.42-13.186-28.234-14.337-53-24.972-8.659-3.718-17.148-8.366-20-16.981-3.206-9.686,2.143-20.173,9-29.967,12.479-17.823,36.512-32,39-47.947,4.194-26.876-44.243-46.554-39-71.92,0.472-2.283,3.281-7.988,8-12.986,21.363-22.625,60.564-6.548,76-26.97,5.915-7.826,3.45-17.559,5-31.964,3.588-33.336,11.354-49.871,23-53.94C158.326,41.211,179.375,72.341,210,68.941Z" transform="translate(-8 -8)"/>
  <path id="effect_inner" class="cls-3" d="M229,105a27.318,27.318,0,0,1,15-1c12.3,2.979,19.2,17.739,28,23.993,9.285,6.6,18.129,8.923,23,9,13.817,0.211,22.229-9.751,35-12,8.383-1.474,24.372-2.593,33,6,13.586,13.526-1.986,38.152,10,56.984,10.4,16.339,30.345,15.889,46,33.99,4.054,4.687,7.5,10.1,8,17,0.752,10.385-5.707,18.657-13,26.993-8.988,10.273-17.268,17.97-20,25.992-1.971,5.788-1.617,22.638,4,40.988,2.951,9.643,6.65,19.126,2,26.993-3.442,5.823-9.971,8.336-17,10-16.757,3.958-33.045-1.151-45,6-10.314,6.168-14.51,21.7-25,38.989-3.695,6.088-8.993,13.979-18,16-10.307,2.308-19.838-4.343-26-9-17.756-13.411-28.619-27.379-41-28.992-18.611-2.425-30.494,17.757-49,13a29.31,29.31,0,0,1-15-10c-12.951-16.117.355-36.807-10-54.984-2.87-5.037-16.07-15.433-32-23.993-9.482-5.1-19.445-9.426-22-19-2.145-8.031,1.9-16.061,8-24.992,7.474-10.939,22.341-22.618,25-33.991,4.824-20.63-16.5-33.938-11-55.984a32.471,32.471,0,0,1,9-16c15.709-14.527,38.467-.378,57-11C208.879,144.022,206.4,112.6,229,105Z" transform="translate(-8 -8)"/>
  <path id="searchlight_shadow" class="cls-4" d="M434.5,356a7.9,7.9,0,0,1-1.5-.154V356l-0.581-.291a10.547,10.547,0,0,1-3.492-1.746L163,221l50-44L428.508,64.348a10.841,10.841,0,0,1,3.965-2.073L433,62v0.154A7.887,7.887,0,0,1,434.5,62C453,62,468,127.814,468,209S453,356,434.5,356Z" transform="translate(-8 -8)"/>
  <path id="sight" class="cls-5" d="M308,189c0.027,0.373,154.944-11.156,155.082-10.648,2.089,7.712.78,31.841-.082,43.648L208,210l10-15Z" transform="translate(-8 -8)"/>
  <path id="searchlight" class="cls-6" d="M198,199l-1,15,266.487,14.75C460.712,297.658,447,350,430.5,350a7.9,7.9,0,0,1-1.5-.154V350l-0.581-.291a10.547,10.547,0,0,1-3.492-1.746L159,215l50-44L424.508,58.348a10.841,10.841,0,0,1,3.965-2.073L429,56v0.154A7.887,7.887,0,0,1,430.5,56c16.665,0,30.485,53.4,33.065,123.328Z" transform="translate(-8 -8)"/>
  <path id="dash_shadow" class="cls-4" d="M269,272l-28,32a11.676,11.676,0,0,1-5,3,12.044,12.044,0,0,1-9-1l-58-26a124.851,124.851,0,0,1-17,32l22-2a15.25,15.25,0,0,1,15,13l15,62,22-16c5.053-2.422,10.91-3.245,16-1,9.326,4.114,11.629,16.59,10,25a25.984,25.984,0,0,1-8,14l-43,32a13.229,13.229,0,0,1-9,2c-4.95-.751-9.257-4.565-11-10l-25-81a152.555,152.555,0,0,1-50,4L95,389a10.52,10.52,0,0,1-3,6,10.65,10.65,0,0,1-8,3l-53,2.891V366H63c1.083-6.751,2.4-13.352,4-20,1.464-6.094,3.111-12.023,5-18a24.226,24.226,0,0,0-31,6,54.4,54.4,0,0,1-10,12.788V315.915A52.209,52.209,0,0,1,48,309a30.82,30.82,0,0,1,15,2,30.083,30.083,0,0,1,7,4,83.44,83.44,0,0,1,25-56l-34-1L46,275c3.5,4.572,5.947,11.028,4,17-2.184,6.7-9.715,11.869-19,12.184v-58.7L40,233a9.618,9.618,0,0,1,10-5l61,1,12,2c-13.621-15.4-19.562-36.73-14-57a60.644,60.644,0,0,1,28-36,43.43,43.43,0,0,1,14-42,51.989,51.989,0,0,1,7,11,52.949,52.949,0,0,1,5,23,52.2,52.2,0,0,1,43,18,50.416,50.416,0,0,1,43-21,52.54,52.54,0,0,1-29,43,62.79,62.79,0,0,1,0,40c-6.661,19.4-22.681,33.759-42,40l50,24,12-11a17.757,17.757,0,0,1-3-14c1.263-5.641,5.758-9.671,10-12,7.721-4.239,17.19-3.215,25,1a20.418,20.418,0,0,1,8,15A20.847,20.847,0,0,1,269,272Z" transform="translate(-8 -8)"/>
  <path id="dash_outline" class="cls-7" d="M257,268l-28,32a11.676,11.676,0,0,1-5,3,12.044,12.044,0,0,1-9-1l-58-26a124.851,124.851,0,0,1-17,32l22-2a15.25,15.25,0,0,1,15,13l15,62,22-16c5.053-2.422,10.91-3.245,16-1,9.326,4.114,11.629,16.59,10,25a25.984,25.984,0,0,1-8,14l-43,32a13.229,13.229,0,0,1-9,2c-4.95-.751-9.257-4.565-11-10l-25-81a152.555,152.555,0,0,1-50,4L83,385a10.52,10.52,0,0,1-3,6,10.65,10.65,0,0,1-8,3l-51,2.782V362H51c1.083-6.751,2.4-13.352,4-20,1.464-6.094,3.111-12.023,5-18a24.226,24.226,0,0,0-31,6,54.416,54.416,0,0,1-8,10.793V310.7A53.455,53.455,0,0,1,36,305a30.82,30.82,0,0,1,15,2,30.083,30.083,0,0,1,7,4,83.44,83.44,0,0,1,25-56l-34-1L34,271c3.5,4.572,5.947,11.028,4,17-2.025,6.211-8.648,11.1-17,12.035V238.71L28,229a9.618,9.618,0,0,1,10-5l61,1,12,2c-13.621-15.4-19.562-36.73-14-57a60.644,60.644,0,0,1,28-36,43.43,43.43,0,0,1,14-42,52,52,0,0,1,7,11,52.949,52.949,0,0,1,5,23,52.2,52.2,0,0,1,43,18,50.416,50.416,0,0,1,43-21,52.54,52.54,0,0,1-29,43,62.79,62.79,0,0,1,0,40c-6.661,19.4-22.681,33.759-42,40l50,24,12-11a17.757,17.757,0,0,1-3-14c1.263-5.641,5.758-9.671,10-12,7.721-4.239,17.19-3.215,25,1a20.418,20.418,0,0,1,8,15A20.847,20.847,0,0,1,257,268Z" transform="translate(-8 -8)"/>
  <path id="dash" class="cls-8" d="M267,266l-28,32a11.676,11.676,0,0,1-5,3,12.044,12.044,0,0,1-9-1l-58-26a124.851,124.851,0,0,1-17,32l22-2a15.25,15.25,0,0,1,15,13l15,62,22-16c5.053-2.422,10.91-3.245,16-1,9.326,4.114,11.629,16.59,10,25a25.984,25.984,0,0,1-8,14l-43,32a13.229,13.229,0,0,1-9,2c-4.95-.751-9.257-4.565-11-10l-25-81a152.555,152.555,0,0,1-50,4L93,383a10.52,10.52,0,0,1-3,6,10.65,10.65,0,0,1-8,3l-51,2.782V360H61c1.083-6.751,2.4-13.352,4-20,1.464-6.094,3.111-12.023,5-18a24.226,24.226,0,0,0-31,6,54.416,54.416,0,0,1-8,10.793V308.7A53.455,53.455,0,0,1,46,303a30.82,30.82,0,0,1,15,2,30.083,30.083,0,0,1,7,4,83.44,83.44,0,0,1,25-56l-34-1L44,269c3.5,4.572,5.947,11.028,4,17-2.025,6.211-8.648,11.1-17,12.035V236.71L38,227a9.618,9.618,0,0,1,10-5l61,1,12,2c-13.621-15.4-19.562-36.73-14-57a60.644,60.644,0,0,1,28-36,43.43,43.43,0,0,1,14-42,52,52,0,0,1,7,11,52.949,52.949,0,0,1,5,23,52.2,52.2,0,0,1,43,18,50.416,50.416,0,0,1,43-21,52.54,52.54,0,0,1-29,43,62.79,62.79,0,0,1,0,40c-6.661,19.4-22.681,33.759-42,40l50,24,12-11a17.757,17.757,0,0,1-3-14c1.263-5.641,5.758-9.671,10-12,7.721-4.239,17.19-3.215,25,1a20.418,20.418,0,0,1,8,15A20.847,20.847,0,0,1,267,266Z" transform="translate(-8 -8)"/>
  <path id="frame" class="cls-9" d="M40,8H472a32,32,0,0,1,32,32V472a32,32,0,0,1-32,32H40A32,32,0,0,1,8,472V40A32,32,0,0,1,40,8ZM60,36H452a24,24,0,0,1,24,24V452a24,24,0,0,1-24,24H60a24,24,0,0,1-24-24V60A24,24,0,0,1,60,36Z" transform="translate(-8 -8)"/>
</svg>
