<svg id="buff_starting.svg" data-name="buff/starting.svg" xmlns="http://www.w3.org/2000/svg" width="512" height="512"><defs><style>.cls-3,.cls-4{fill-rule:evenodd}.cls-3{fill:#fa8a12}.cls-4{fill:#fff8d9}</style></defs><path id="background" style="fill:#f99c36" d="M33 33h446v446H33z"/><path id="twinkle" d="M410 137.008Q408.5 108.5 379.992 107 408.5 105.5 410 76.992 411.5 105.5 440.008 107 411.5 108.5 410 137.008zM115 216.98q-1.549-29.431-30.98-30.98 29.432-1.549 30.98-30.98 1.549 29.431 30.98 30.98-29.432 1.549-30.98 30.98zm-42-66.988Q71.95 130.05 52.008 129 71.95 127.95 73 108.008 74.05 127.951 93.992 129 74.05 130.05 73 149.992z" style="fill-rule:evenodd;fill:#f3ffff"/><path id="gate_2_shadow" class="cls-3" d="M450.031 268v141s.733 14.678-3 19c-5.439 6.3-16 2-16 2l-43-27a10.162 10.162 0 0 1-6-7 8.265 8.265 0 0 1 0-3v-95a12.659 12.659 0 0 1 2-10 12.167 12.167 0 0 1 5-4l36-24c8.938-7.1 18.957-6.654 23-2 2.26 2.6 2.586 6.449 2 10zM141 390a8.243 8.243 0 0 1 0 3 10.162 10.162 0 0 1-6 7l-43 27s-10.561 4.3-16-2c-3.732-4.322-3-19-3-19V265c-.586-3.551-.26-7.4 2-10 4.043-4.654 14.063-5.1 23 2l36 24a12.167 12.167 0 0 1 5 4 12.651 12.651 0 0 1 2 10v95z"/><path id="gate_2" class="cls-4" d="M444.031 262v141s.733 14.678-3 19c-5.439 6.3-16 2-16 2l-43-27a10.162 10.162 0 0 1-6-7 8.265 8.265 0 0 1 0-3v-95a12.659 12.659 0 0 1 2-10 12.167 12.167 0 0 1 5-4l36-24c8.938-7.1 18.957-6.654 23-2 2.26 2.6 2.586 6.449 2 10zM135 384a8.243 8.243 0 0 1 0 3 10.162 10.162 0 0 1-6 7l-43 27s-10.561 4.3-16-2c-3.732-4.322-3-19-3-19V259c-.586-3.551-.26-7.4 2-10 4.043-4.654 14.063-5.1 23 2l36 24a12.167 12.167 0 0 1 5 4 12.651 12.651 0 0 1 2 10v95z"/><path id="gate_1_shadow" class="cls-3" d="M357 437H166a4 4 0 0 1-4-4V179a4 4 0 0 1 4-4h12a4 4 0 0 1 4 4v228a3.983 3.983 0 0 1-.093.844A10.806 10.806 0 0 0 184 416a8.358 8.358 0 0 0 1 1h153a8.358 8.358 0 0 0 1-1 10.806 10.806 0 0 0 2.093-8.156A3.983 3.983 0 0 1 341 407V179a4 4 0 0 1 4-4h12a4 4 0 0 1 4 4v254a4 4 0 0 1-4 4z"/><path id="gate_1" class="cls-4" d="M351 431H160a4 4 0 0 1-4-4V173a4 4 0 0 1 4-4h12a4 4 0 0 1 4 4v228a3.983 3.983 0 0 1-.093.844A10.806 10.806 0 0 0 178 410a8.358 8.358 0 0 0 1 1h153a8.358 8.358 0 0 0 1-1 10.806 10.806 0 0 0 2.093-8.156A3.983 3.983 0 0 1 335 401V173a4 4 0 0 1 4-4h12a4 4 0 0 1 4 4v254a4 4 0 0 1-4 4z"/><path id="number_shadow" class="cls-3" d="M211 84h104a12 12 0 0 1 12 12v104a12 12 0 0 1-12 12H211a12 12 0 0 1-12-12V96a12 12 0 0 1 12-12zm63 109h-13a8 8 0 0 1-8-8v-53h-13a8 8 0 0 1-8-8v-11a8 8 0 0 1 8-8h34a8 8 0 0 1 8 8v72a8 8 0 0 1-8 8z"/><path id="bumber" class="cls-4" d="M205 78h104a12 12 0 0 1 12 12v104a12 12 0 0 1-12 12H205a12 12 0 0 1-12-12V90a12 12 0 0 1 12-12zm63 109h-13a8 8 0 0 1-8-8v-53h-13a8 8 0 0 1-8-8v-11a8 8 0 0 1 8-8h34a8 8 0 0 1 8 8v72a8 8 0 0 1-8 8z"/><path id="frame" d="M40 8h432a32 32 0 0 1 32 32v432a32 32 0 0 1-32 32H40a32 32 0 0 1-32-32V40A32 32 0 0 1 40 8zm20 28h392a24 24 0 0 1 24 24v392a24 24 0 0 1-24 24H60a24 24 0 0 1-24-24V60a24 24 0 0 1 24-24z" style="fill:#e6dce3;fill-rule:evenodd"/></svg>