<svg xmlns="http://www.w3.org/2000/svg" width="512" height="512"><path style="fill:#f99c36" d="M33 33h446v446H33z"/><path d="M183 86a1539.703 1539.703 0 0 0-3 109c.258 33.6 1.574 66.489 4 100a622.905 622.905 0 0 0-56-52q-24.069-19.745-50-37a982.14 982.14 0 0 0 22 74 987.441 987.441 0 0 0 45 110l37 19 18 23 140-2 14-41a566.9 566.9 0 0 0 43-66 567.453 567.453 0 0 0 43-98 1380.87 1380.87 0 0 0-44 44 1381.291 1381.291 0 0 0-49 54l-36-147-66 64Z" style="fill-rule:evenodd;fill:#fcbb29"/><path d="m57 345 51 86a23.59 23.59 0 0 0 12 10 415.425 415.425 0 0 0 264 5 75.356 75.356 0 0 0 25-20l47-108-94 90 13-78-57 88-34-32-24 37-28-49-21 43-66-120-16 5 26 111Z" style="fill:#fddc80;fill-rule:evenodd"/><path d="M448 187h-13a6 6 0 0 1-6-6v-24a6 6 0 0 1 6-6h13a6 6 0 0 1 6 6v24a6 6 0 0 1-6 6Zm-33-50h-13a6 6 0 0 1-6-6V74a6 6 0 0 1 6-6h13a6 6 0 0 1 6 6v57a6 6 0 0 1-6 6Zm-283 49h-11a6 6 0 0 1-6-6v-36a6 6 0 0 1 6-6h11a6 6 0 0 1 6 6v36a6 6 0 0 1-6 6Zm-37 33H83a6 6 0 0 1-6-6v-17a6 6 0 0 1 6-6h12a6 6 0 0 1 6 6v17a6 6 0 0 1-6 6Z" style="fill:#fce361;fill-rule:evenodd"/><path d="M424 316.98q-1.55-29.432-30.98-30.98 29.432-1.55 30.98-30.98 1.55 29.432 30.98 30.98-29.431 1.55-30.98 30.98ZM120.11 105.753q-1.1-18.919-20.019-20.02 18.908-.89 19.8-19.8 1.1 18.92 20.02 20.02-18.911.892-19.801 19.8Zm-33.955 49.881q-1.64-28.368-30.008-30.007 28.353-1.347 29.7-29.7 1.64 28.368 30.008 30.008-28.355 1.347-29.7 29.699Z" style="fill:#fff;fill-rule:evenodd"/><path d="M259 189c-13.621-15.4-19.562-36.73-14-57a60.644 60.644 0 0 1 28-36 43.43 43.43 0 0 1 14-42 52 52 0 0 1 7 11 52.95 52.95 0 0 1 5 23 52.2 52.2 0 0 1 43 18 50.416 50.416 0 0 1 43-21 52.54 52.54 0 0 1-29 43 62.79 62.79 0 0 1 0 40c-6.661 19.4-22.681 33.759-42 40l50 24 12-11a17.757 17.757 0 0 1-3-14c1.263-5.641 5.758-9.671 10-12 7.721-4.239 17.19-3.215 25 1a20.418 20.418 0 0 1 8 15 20.847 20.847 0 0 1-11 19l-28 32a11.676 11.676 0 0 1-5 3 12.044 12.044 0 0 1-9-1l-58-26a124.851 124.851 0 0 1-17 32l22-2a15.25 15.25 0 0 1 15 13l15 62 22-16c5.053-2.422 10.91-3.245 16-1 9.326 4.114 11.629 16.59 10 25a25.984 25.984 0 0 1-8 14l-43 32a13.229 13.229 0 0 1-9 2c-4.95-.751-9.257-4.565-11-10l-25-81a152.555 152.555 0 0 1-50 4l-11 35a10.519 10.519 0 0 1-3 6 10.651 10.651 0 0 1-8 3l-55 3-8 28c-3.25 6.023-8.942 11.053-16 12-10.223 1.372-21.459-6.195-25-19l14-49a19.1 19.1 0 0 1 14-10 18.8 18.8 0 0 1 13 3h42a263.143 263.143 0 0 1 4-20 263.991 263.991 0 0 1 5-18 24.226 24.226 0 0 0-31 6 54.258 54.258 0 0 1-34 26 39.229 39.229 0 0 1-32-4 38.778 38.778 0 0 1-16-20 28.5 28.5 0 0 0 17 6 31.476 31.476 0 0 1-4-44 6.867 6.867 0 0 0 1 3 7.063 7.063 0 0 0 4 3 21.506 21.506 0 0 1 21-15c-8.68 5.287-12.567 15.313-10 24a20.98 20.98 0 0 0 15 14 18.76 18.76 0 0 0 7 1c7.858-.413 12.718-5.955 18-10a50.572 50.572 0 0 1 20-9 30.819 30.819 0 0 1 15 2 30.083 30.083 0 0 1 7 4 83.44 83.44 0 0 1 25-56l-34-1-15 17c3.5 4.572 5.947 11.028 4 17-2.859 8.77-14.868 14.946-28 11a29.069 29.069 0 0 1-13-13 13.038 13.038 0 0 1 0-14l31-43a9.618 9.618 0 0 1 10-5l61 1Z" style="fill:#fa8a12;fill-rule:evenodd"/><path d="M253 182c-13.621-15.4-19.562-36.73-14-57a60.644 60.644 0 0 1 28-36 43.43 43.43 0 0 1 14-42 52 52 0 0 1 7 11 52.95 52.95 0 0 1 5 23 52.2 52.2 0 0 1 43 18 50.416 50.416 0 0 1 43-21 52.54 52.54 0 0 1-29 43 62.79 62.79 0 0 1 0 40c-6.661 19.4-22.681 33.759-42 40l50 24 12-11a17.757 17.757 0 0 1-3-14c1.263-5.641 5.758-9.671 10-12 7.721-4.239 17.19-3.215 25 1a20.418 20.418 0 0 1 8 15 20.847 20.847 0 0 1-11 19l-28 32a11.676 11.676 0 0 1-5 3 12.044 12.044 0 0 1-9-1l-58-26a124.851 124.851 0 0 1-17 32l22-2a15.25 15.25 0 0 1 15 13l15 62 22-16c5.053-2.422 10.91-3.245 16-1 9.326 4.114 11.629 16.59 10 25a25.984 25.984 0 0 1-8 14l-43 32a13.229 13.229 0 0 1-9 2c-4.95-.751-9.257-4.565-11-10l-25-81a152.555 152.555 0 0 1-50 4l-11 35a10.519 10.519 0 0 1-3 6 10.651 10.651 0 0 1-8 3l-55 3-8 28c-3.25 6.023-8.942 11.053-16 12-10.223 1.372-21.459-6.195-25-19l14-49a19.1 19.1 0 0 1 14-10 18.8 18.8 0 0 1 13 3h42a263.143 263.143 0 0 1 4-20 263.991 263.991 0 0 1 5-18 24.226 24.226 0 0 0-31 6 54.258 54.258 0 0 1-34 26 39.229 39.229 0 0 1-32-4 38.777 38.777 0 0 1-16-20 28.5 28.5 0 0 0 17 6 31.476 31.476 0 0 1-4-44 6.867 6.867 0 0 0 1 3 7.063 7.063 0 0 0 4 3 21.506 21.506 0 0 1 21-15c-8.68 5.287-12.567 15.313-10 24a20.98 20.98 0 0 0 15 14 18.76 18.76 0 0 0 7 1c7.858-.413 12.718-5.955 18-10a50.572 50.572 0 0 1 20-9 30.819 30.819 0 0 1 15 2 30.083 30.083 0 0 1 7 4 83.44 83.44 0 0 1 25-56l-34-1-15 17c3.5 4.572 5.947 11.028 4 17-2.859 8.77-14.868 14.946-28 11a29.069 29.069 0 0 1-13-13 13.038 13.038 0 0 1 0-14l31-43a9.618 9.618 0 0 1 10-5l61 1Z" style="fill:#fff8d9;fill-rule:evenodd"/><path d="M40 8h432a32 32 0 0 1 32 32v432a32 32 0 0 1-32 32H40a32 32 0 0 1-32-32V40A32 32 0 0 1 40 8Zm20 28h392a24 24 0 0 1 24 24v392a24 24 0 0 1-24 24H60a24 24 0 0 1-24-24V60a24 24 0 0 1 24-24Z" style="fill:#e6dce3;fill-rule:evenodd"/></svg>