<svg id="buff_positioning.svg" data-name="buff/positioning.svg" xmlns="http://www.w3.org/2000/svg" width="512" height="512"><defs><style>.cls-3{fill-rule:evenodd;fill:#fa8a12}</style></defs><path id="background" style="fill:#f99c36" d="M33 33h446v446H33z"/><path id="twinkle" d="M365 428.012q-2.051-38.961-41.012-41.012 38.961-2.051 41.012-41.012 2.051 38.961 41.012 41.012-38.961 2.051-41.012 41.012zm-222-122Q141.5 277.5 112.992 276 141.5 274.5 143 245.992 144.5 274.5 173.008 276 144.5 277.5 143 306.008z" style="fill-rule:evenodd;fill:#f6ffff"/><path id="shoe_shadow" class="cls-3" d="M354 320a9.158 9.158 0 0 1-4 6l-16 16a5.015 5.015 0 0 1-9-2l-6-11-16 19 4 7-3 10a181.574 181.574 0 0 1-133 69l-12-14a229.057 229.057 0 0 0 41-8 212.122 212.122 0 0 0 44-18c18.273-10.233 46.013-36.293 71-71a542.335 542.335 0 0 0 25-38l13 29a9.105 9.105 0 0 1 1 6zm-27-29a336.969 336.969 0 0 0-19 24c-14.194 19.731-22.018 34.136-40 50a156.363 156.363 0 0 1-25 18 207.722 207.722 0 0 1-79 28 10.684 10.684 0 0 1-15-5l-4-8a11.985 11.985 0 0 1 2-16 59.308 59.308 0 0 1 10-19c6.843-8.633 17.539-14.934 22-19 4.115-3.751 11.228-13.239 17-23a149.759 149.759 0 0 0 19-55 19.812 19.812 0 0 1 31-14 40.113 40.113 0 0 0 42-10 16.139 16.139 0 0 1 14-10 15.958 15.958 0 0 1 13 6 39.84 39.84 0 0 1 17 28 20.816 20.816 0 0 1-5 25z"/><path id="shoe" d="M353 311a9.158 9.158 0 0 1-4 6l-16 16a5.015 5.015 0 0 1-9-2l-6-11-16 19 4 7-3 10a181.574 181.574 0 0 1-133 69l-12-14a229.057 229.057 0 0 0 41-8 212.122 212.122 0 0 0 44-18c18.273-10.233 46.013-36.293 71-71a542.335 542.335 0 0 0 25-38l13 29a9.105 9.105 0 0 1 1 6zm-27-29a336.969 336.969 0 0 0-19 24c-14.194 19.731-22.018 34.136-40 50a156.363 156.363 0 0 1-25 18 207.722 207.722 0 0 1-79 28 10.684 10.684 0 0 1-15-5l-4-8a11.985 11.985 0 0 1 2-16 59.308 59.308 0 0 1 10-19c6.843-8.633 17.539-14.934 22-19 4.115-3.751 11.228-13.239 17-23a149.759 149.759 0 0 0 19-55 19.812 19.812 0 0 1 31-14 40.113 40.113 0 0 0 42-10 16.139 16.139 0 0 1 14-10 15.958 15.958 0 0 1 13 6 39.84 39.84 0 0 1 17 28 20.816 20.816 0 0 1-5 25z" style="fill:#fff7db;fill-rule:evenodd"/><path id="arrow_shadow" class="cls-3" d="m463.285 158.868-82.124 76.321a4 4 0 0 1-6.724-2.93V194H141.562v38.259a4 4 0 0 1-6.723 2.93l-82.124-76.321a4 4 0 0 1 0-5.861l82.124-76.321a4 4 0 0 1 6.723 2.93V124h232.875V79.616a4 4 0 0 1 6.724-2.93l82.124 76.322a4 4 0 0 1 0 5.86z"/><path id="arrow" d="m463.285 146.868-82.124 76.321a4 4 0 0 1-6.724-2.93V182H141.562v38.259a4 4 0 0 1-6.723 2.93l-82.124-76.321a4 4 0 0 1 0-5.861l82.124-76.321a4 4 0 0 1 6.723 2.93V112h232.875V67.616a4 4 0 0 1 6.724-2.93l82.124 76.322a4 4 0 0 1 0 5.86z" style="fill:#fff8d8;fill-rule:evenodd"/><path id="frame" d="M40 8h432a32 32 0 0 1 32 32v432a32 32 0 0 1-32 32H40a32 32 0 0 1-32-32V40A32 32 0 0 1 40 8zm20 28h392a24 24 0 0 1 24 24v392a24 24 0 0 1-24 24H60a24 24 0 0 1-24-24V60a24 24 0 0 1 24-24z" style="fill:#e6dce3;fill-rule:evenodd"/></svg>