<svg id="buff_acceleration_team" xmlns="http://www.w3.org/2000/svg" width="512" height="512"><defs><style>.cls-5,.cls-6{fill-rule:evenodd}.cls-5{fill:#fa8a12}.cls-6{fill:#fff8d9}</style></defs><path id="background" style="fill:#f99c36" d="M33 33h446v446H33z"/><path id="dash_afterimage_2" d="m277 264-28 32a11.676 11.676 0 0 1-5 3 12.044 12.044 0 0 1-9-1l-58-26a124.851 124.851 0 0 1-17 32l22-2a15.25 15.25 0 0 1 15 13l15 62 22-16c5.053-2.422 10.91-3.245 16-1 9.326 4.114 11.629 16.59 10 25a25.984 25.984 0 0 1-8 14l-43 32a13.229 13.229 0 0 1-9 2c-4.95-.751-9.257-4.565-11-10l-25-81a152.555 152.555 0 0 1-50 4l-11 35a10.519 10.519 0 0 1-3 6 10.65 10.65 0 0 1-8 3l-55 3-7 24.5V358h41a263.143 263.143 0 0 1 4-20 263.991 263.991 0 0 1 5-18 24.226 24.226 0 0 0-31 6 54.33 54.33 0 0 1-15 17 54.079 54.079 0 0 1-4 2.684v-30.809c2.063-1.6 4-3.344 6-4.875a50.572 50.572 0 0 1 20-9 30.82 30.82 0 0 1 15 2 30.083 30.083 0 0 1 7 4 83.44 83.44 0 0 1 25-56l-34-1-15 17c3.5 4.572 5.947 11.028 4 17-2.859 8.77-14.868 14.946-28 11v-45.032L48 225a9.618 9.618 0 0 1 10-5l61 1 12 2c-13.621-15.4-19.562-36.73-14-57a60.644 60.644 0 0 1 28-36 43.43 43.43 0 0 1 14-42 52 52 0 0 1 7 11 52.949 52.949 0 0 1 5 23 52.2 52.2 0 0 1 43 18 50.416 50.416 0 0 1 43-21 52.54 52.54 0 0 1-29 43 62.79 62.79 0 0 1 0 40c-6.661 19.4-22.681 33.759-42 40l50 24 12-11a17.757 17.757 0 0 1-3-14c1.263-5.641 5.758-9.671 10-12 7.721-4.239 17.19-3.215 25 1a20.418 20.418 0 0 1 8 15 20.847 20.847 0 0 1-11 19Z" style="fill-rule:evenodd;fill:#faba2a"/><path id="dash_afterimage_1" d="M215 223c-13.621-15.4-19.562-36.73-14-57a60.644 60.644 0 0 1 28-36 43.43 43.43 0 0 1 14-42 52 52 0 0 1 7 11 52.949 52.949 0 0 1 5 23 52.2 52.2 0 0 1 43 18 50.416 50.416 0 0 1 43-21 52.54 52.54 0 0 1-29 43 62.79 62.79 0 0 1 0 40c-6.661 19.4-22.681 33.759-42 40l50 24 12-11a17.757 17.757 0 0 1-3-14c1.263-5.641 5.758-9.671 10-12 7.721-4.239 17.19-3.215 25 1a20.418 20.418 0 0 1 8 15 20.847 20.847 0 0 1-11 19l-28 32a11.676 11.676 0 0 1-5 3 12.044 12.044 0 0 1-9-1l-58-26a124.851 124.851 0 0 1-17 32l22-2a15.25 15.25 0 0 1 15 13l15 62 22-16c5.053-2.422 10.91-3.245 16-1 9.326 4.114 11.629 16.59 10 25a25.984 25.984 0 0 1-8 14l-43 32a13.229 13.229 0 0 1-9 2c-4.95-.751-9.257-4.565-11-10l-25-81a152.555 152.555 0 0 1-50 4l-11 35a10.519 10.519 0 0 1-3 6 10.651 10.651 0 0 1-8 3l-55 3-8 28c-3.25 6.023-8.942 11.053-16 12-10.223 1.372-21.459-6.195-25-19l14-49a19.1 19.1 0 0 1 14-10 18.8 18.8 0 0 1 13 3h42a263.143 263.143 0 0 1 4-20 263.991 263.991 0 0 1 5-18 24.226 24.226 0 0 0-31 6 54.258 54.258 0 0 1-34 26 39.229 39.229 0 0 1-32-4 38.777 38.777 0 0 1-16-20 28.5 28.5 0 0 0 17 6 31.476 31.476 0 0 1-4-44 6.859 6.859 0 0 0 1 3 7.063 7.063 0 0 0 4 3 21.506 21.506 0 0 1 21-15c-8.68 5.287-12.567 15.313-10 24a20.981 20.981 0 0 0 15 14 18.758 18.758 0 0 0 7 1c7.858-.413 12.718-5.955 18-10a50.572 50.572 0 0 1 20-9 30.819 30.819 0 0 1 15 2 30.083 30.083 0 0 1 7 4 83.44 83.44 0 0 1 25-56l-34-1-15 17c3.5 4.572 5.947 11.028 4 17-2.859 8.77-14.868 14.946-28 11a29.069 29.069 0 0 1-13-13 13.038 13.038 0 0 1 0-14l31-43a9.618 9.618 0 0 1 10-5l61 1Z" style="fill:#ffd423;fill-rule:evenodd"/><path id="twinkle" d="M180 167.985Q178.3 135.7 146.015 134 178.3 132.3 180 100.015 181.7 132.3 213.985 134 181.7 135.7 180 167.985ZM137 213q-.95-18.053-19-19 18.054-.95 19-19 .95 18.054 19 19-18.05.95-19 19Zm-56-42.985Q80.149 153.851 63.985 153q16.164-.85 17.015-17.015.851 16.164 17.015 17.015-16.164.851-17.015 17.015Z" style="fill:#fff;fill-rule:evenodd"/><path id="dash_shadow" class="cls-5" d="M307 221c-13.621-15.4-19.562-36.73-14-57a60.644 60.644 0 0 1 28-36 43.43 43.43 0 0 1 14-42 52 52 0 0 1 7 11 52.949 52.949 0 0 1 5 23 52.2 52.2 0 0 1 43 18 50.416 50.416 0 0 1 43-21 52.54 52.54 0 0 1-29 43 62.79 62.79 0 0 1 0 40c-6.661 19.4-22.681 33.759-42 40l50 24 12-11a17.757 17.757 0 0 1-3-14c1.263-5.641 5.758-9.671 10-12 7.721-4.239 17.19-3.215 25 1a20.418 20.418 0 0 1 8 15 20.847 20.847 0 0 1-11 19l-28 32a11.676 11.676 0 0 1-5 3 12.044 12.044 0 0 1-9-1l-58-26a124.851 124.851 0 0 1-17 32l22-2a15.25 15.25 0 0 1 15 13l15 62 22-16c5.053-2.422 10.91-3.245 16-1 9.326 4.114 11.629 16.59 10 25a25.984 25.984 0 0 1-8 14l-43 32a13.229 13.229 0 0 1-9 2c-4.95-.751-9.257-4.565-11-10l-25-81a152.555 152.555 0 0 1-50 4l-11 35a10.519 10.519 0 0 1-3 6 10.651 10.651 0 0 1-8 3l-55 3-8 28c-3.25 6.023-8.942 11.053-16 12-10.223 1.372-21.459-6.195-25-19l14-49a19.1 19.1 0 0 1 14-10 18.8 18.8 0 0 1 13 3h42a263.143 263.143 0 0 1 4-20 263.991 263.991 0 0 1 5-18 24.226 24.226 0 0 0-31 6 54.258 54.258 0 0 1-34 26 39.229 39.229 0 0 1-32-4 38.779 38.779 0 0 1-16-20 28.5 28.5 0 0 0 17 6 31.476 31.476 0 0 1-4-44 6.867 6.867 0 0 0 1 3 7.063 7.063 0 0 0 4 3 21.506 21.506 0 0 1 21-15c-8.68 5.287-12.567 15.313-10 24a20.98 20.98 0 0 0 15 14 18.76 18.76 0 0 0 7 1c7.858-.413 12.718-5.955 18-10a50.572 50.572 0 0 1 20-9 30.819 30.819 0 0 1 15 2 30.083 30.083 0 0 1 7 4 83.44 83.44 0 0 1 25-56l-34-1-15 17c3.5 4.572 5.947 11.028 4 17-2.859 8.77-14.868 14.946-28 11a29.069 29.069 0 0 1-13-13 13.038 13.038 0 0 1 0-14l31-43a9.618 9.618 0 0 1 10-5l61 1Z"/><path id="dash" class="cls-6" d="M302 212c-13.621-15.4-19.562-36.73-14-57a60.644 60.644 0 0 1 28-36 43.43 43.43 0 0 1 14-42 52 52 0 0 1 7 11 52.949 52.949 0 0 1 5 23 52.2 52.2 0 0 1 43 18 50.416 50.416 0 0 1 43-21 52.54 52.54 0 0 1-29 43 62.79 62.79 0 0 1 0 40c-6.661 19.4-22.681 33.759-42 40l50 24 12-11a17.757 17.757 0 0 1-3-14c1.263-5.641 5.758-9.671 10-12 7.721-4.239 17.19-3.215 25 1a20.418 20.418 0 0 1 8 15 20.847 20.847 0 0 1-11 19l-28 32a11.676 11.676 0 0 1-5 3 12.044 12.044 0 0 1-9-1l-58-26a124.851 124.851 0 0 1-17 32l22-2a15.25 15.25 0 0 1 15 13l15 62 22-16c5.053-2.422 10.91-3.245 16-1 9.326 4.114 11.629 16.59 10 25a25.984 25.984 0 0 1-8 14l-43 32a13.229 13.229 0 0 1-9 2c-4.95-.751-9.257-4.565-11-10l-25-81a152.555 152.555 0 0 1-50 4l-11 35a10.519 10.519 0 0 1-3 6 10.651 10.651 0 0 1-8 3l-55 3-8 28c-3.25 6.023-8.942 11.053-16 12-10.223 1.372-21.459-6.195-25-19l14-49a19.1 19.1 0 0 1 14-10 18.8 18.8 0 0 1 13 3h42a263.143 263.143 0 0 1 4-20 263.991 263.991 0 0 1 5-18 24.226 24.226 0 0 0-31 6 54.258 54.258 0 0 1-34 26 39.229 39.229 0 0 1-32-4 38.779 38.779 0 0 1-16-20 28.5 28.5 0 0 0 17 6 31.476 31.476 0 0 1-4-44 6.867 6.867 0 0 0 1 3 7.063 7.063 0 0 0 4 3 21.506 21.506 0 0 1 21-15c-8.68 5.287-12.567 15.313-10 24a20.98 20.98 0 0 0 15 14 18.76 18.76 0 0 0 7 1c7.858-.413 12.718-5.955 18-10a50.572 50.572 0 0 1 20-9 30.819 30.819 0 0 1 15 2 30.083 30.083 0 0 1 7 4 83.44 83.44 0 0 1 25-56l-34-1-15 17c3.5 4.572 5.947 11.028 4 17-2.859 8.77-14.868 14.946-28 11a29.069 29.069 0 0 1-13-13 13.038 13.038 0 0 1 0-14l31-43a9.618 9.618 0 0 1 10-5l61 1Z"/><path id="fire_outline" d="M438 309c-2.131 10.86-8.1 21.117-18 25-4.8 1.882-10.821 2.959-15 0-5.076-3.594-7.056-12.4-3-22a172.546 172.546 0 0 1-18 8c-13.078 4.927-23.645 5.936-34 13-15.472 10.556-23.173 27.175-26 40-5.311 24.1 2.186 55.49 28 72 26.3 16.823 54.621 8.878 70 0 25.277-14.592 40.023-45.219 35-78-2.508 3.587-6.322 6.6-10 6-5.285-.866-7.467-8.57-8-11-3.038-13.863 10.049-23.075 8-37-.86-5.841-4.006-11.161-9-16Z" style="fill:none;stroke:#fa8a12;stroke-linecap:round;stroke-linejoin:round;stroke-width:16px;fill-rule:evenodd"/><path id="fire" class="cls-6" d="M438 309c-2.131 10.86-8.1 21.117-18 25-4.8 1.882-10.821 2.959-15 0-5.076-3.594-7.056-12.4-3-22a172.546 172.546 0 0 1-18 8c-13.078 4.927-23.645 5.936-34 13-15.472 10.556-23.173 27.175-26 40-5.311 24.1 2.186 55.49 28 72 26.3 16.823 54.621 8.878 70 0 25.277-14.592 40.023-45.219 35-78-2.508 3.587-6.322 6.6-10 6-5.285-.866-7.467-8.57-8-11-3.038-13.863 10.049-23.075 8-37-.86-5.841-4.006-11.161-9-16Z"/><path id="fire_inner" class="cls-5" d="M410 349c-4.484 18.8-14.207 29.016-23 29-3.768-.007-9.288-1.892-11-6-2.3-5.509 4.012-10.857 2-17-.94-2.871-3.349-5.179-7-7a46.762 46.762 0 0 1-6 10c-4.029 5.123-8 6.9-12 12-7.667 9.769-8.1 21.79-7 29 2.657 17.441 18.112 34.113 39 35a41.608 41.608 0 0 0 42-32c-7.886 3.037-14.41 1.647-17-2-1.259-1.772-1.761-4.359-1-8 1.427-6.832 7.078-9.821 9-14 3.4-7.385 0-17.4-8-29Z"/><path id="frame" d="M40 8h432a32 32 0 0 1 32 32v432a32 32 0 0 1-32 32H40a32 32 0 0 1-32-32V40A32 32 0 0 1 40 8Zm20 28h392a24 24 0 0 1 24 24v392a24 24 0 0 1-24 24H60a24 24 0 0 1-24-24V60a24 24 0 0 1 24-24Z" style="fill:#e6dce3;fill-rule:evenodd"/></svg>