<svg xmlns="http://www.w3.org/2000/svg" width="512" height="512"><path style="fill:#0f7fe9" d="M33 33h446v446H33z"/><circle cx="256.5" cy="260.5" r="224.5" style="fill:#18a6f7"/><circle cx="258.062" cy="259.188" r="174" style="fill:#20dcfc"/><path d="M473 381c-3.315 42.708-40.663 77.338-82 97H193a1136.085 1136.085 0 0 0 44-6c107.66-16.832 168.908-44.153 188-81 6.321-12.2 8.089-22.653 7-32-3.618-31.063-39.37-58.923-96-72 72.911 1.039 121.487 28.623 134 66 2.5 7.458 3.888 16.56 3 28ZM103 189c21.492 12.008 46.041 20.563 71 26-46.285-1.244-89.669-13.518-124-39-26.641-19.774-37.214-41.615-38-52-.815-10.768 3.327-25.011 16-43 15.19-21.561 35.439-39.689 59-54h82c-33.621 10.324-66.17 27.556-88 52-13.84 15.5-19.818 31.128-21 40a63.438 63.438 0 0 0 5 34c5.47 12.214 16.56 24.021 38 36Z" style="fill-rule:evenodd;fill:#25e9fd"/><path d="M423 300h-8a8 8 0 0 1-8-8v-53a8 8 0 0 1 8-8h8a8 8 0 0 1 8 8v53a8 8 0 0 1-8 8Zm-51-108h-8a8 8 0 0 1-8-8v-23a8 8 0 0 1 8-8h8a8 8 0 0 1 8 8v23a8 8 0 0 1-8 8ZM110 408h-9a8 8 0 0 1-8-8v-24a8 8 0 0 1 8-8h9a8 8 0 0 1 8 8v24a8 8 0 0 1-8 8Z" style="fill:#2dfdfd;fill-rule:evenodd"/><path d="M388.053 310.845Q324.35 314.2 321 377.857a2 2 0 0 1-3.994 0q-3.353-63.662-67.056-67.012a2 2 0 0 1 0-3.992q63.7-3.353 67.05-67.013a2 2 0 0 1 3.994 0q3.353 63.663 67.056 67.013a2 2 0 0 1 .003 3.992Zm-40.678-196q-35.625 1.873-37.5 37.476a1.878 1.878 0 0 1-3.75 0q-1.875-35.6-37.5-37.476a1.877 1.877 0 0 1 0-3.748q35.625-1.873 37.5-37.476a1.878 1.878 0 0 1 3.75 0q1.875 35.6 37.5 37.476a1.877 1.877 0 0 1 0 3.751Zm-80.322 76.073q-75.1 3.951-79.056 79.005a2 2 0 0 1-3.994 0q-3.952-75.054-79.056-79a2 2 0 0 1 0-3.992q75.1-3.95 79.056-79a2 2 0 0 1 3.994 0q3.952 75.056 79.056 79.005a2 2 0 0 1 0 3.985Zm-75.378 182.065q34.676-1.824 36.5-36.477a1.828 1.828 0 0 1 3.65 0q1.826 34.653 36.5 36.477a1.826 1.826 0 0 1 0 3.648q-34.675 1.823-36.5 36.476a1.828 1.828 0 0 1-3.65 0q-1.826-34.653-36.5-36.476a1.826 1.826 0 0 1 0-3.648Z" style="fill:#14c7f9;fill-rule:evenodd"/><path d="M385.053 303.845Q321.35 307.2 318 370.857a2 2 0 0 1-3.994 0q-3.353-63.662-67.056-67.012a2 2 0 0 1 0-3.992q63.7-3.353 67.05-67.013a2 2 0 0 1 3.994 0q3.353 63.663 67.056 67.013a2 2 0 0 1 .003 3.992Zm-40.678-196q-35.625 1.873-37.5 37.476a1.878 1.878 0 0 1-3.75 0q-1.875-35.6-37.5-37.476a1.877 1.877 0 0 1 0-3.748q35.625-1.873 37.5-37.476a1.878 1.878 0 0 1 3.75 0q1.875 35.6 37.5 37.476a1.877 1.877 0 0 1 0 3.751Zm-80.322 76.073q-75.1 3.951-79.056 79.005a2 2 0 0 1-3.994 0q-3.952-75.054-79.056-79a2 2 0 0 1 0-3.992q75.1-3.95 79.056-79a2 2 0 0 1 3.994 0q3.952 75.056 79.056 79.005a2 2 0 0 1 0 3.985Zm-75.378 182.065q34.676-1.824 36.5-36.477a1.828 1.828 0 0 1 3.65 0q1.826 34.653 36.5 36.477a1.826 1.826 0 0 1 0 3.648q-34.675 1.823-36.5 36.476a1.828 1.828 0 0 1-3.65 0q-1.826-34.653-36.5-36.476a1.826 1.826 0 0 1 0-3.648Z" style="fill:#ecfffb;fill-rule:evenodd"/><path d="M448 312c-2.131 10.86-8.1 21.117-18 25-4.8 1.882-10.821 2.959-15 0-5.076-3.594-7.056-12.4-3-22a172.546 172.546 0 0 1-18 8c-13.078 4.927-23.645 5.936-34 13-15.472 10.556-23.173 27.175-26 40-5.311 24.1 2.186 55.49 28 72 26.3 16.823 54.621 8.878 70 0 25.277-14.592 40.023-45.219 35-78-2.508 3.587-6.322 6.6-10 6-5.285-.866-7.467-8.57-8-11-3.038-13.863 10.049-23.075 8-37-.86-5.841-4.006-11.161-9-16Z" style="fill:none;stroke:#54aaf1;stroke-linecap:round;stroke-linejoin:round;stroke-width:16px;fill-rule:evenodd"/><path d="M448 312c-2.131 10.86-8.1 21.117-18 25-4.8 1.882-10.821 2.959-15 0-5.076-3.594-7.056-12.4-3-22a172.546 172.546 0 0 1-18 8c-13.078 4.927-23.645 5.936-34 13-15.472 10.556-23.173 27.175-26 40-5.311 24.1 2.186 55.49 28 72 26.3 16.823 54.621 8.878 70 0 25.277-14.592 40.023-45.219 35-78-2.508 3.587-6.322 6.6-10 6-5.285-.866-7.467-8.57-8-11-3.038-13.863 10.049-23.075 8-37-.86-5.841-4.006-11.161-9-16Z" style="fill:#f6fefd;fill-rule:evenodd"/><path d="M420 352c-4.484 18.8-14.207 29.016-23 29-3.768-.007-9.288-1.892-11-6-2.3-5.509 4.012-10.857 2-17-.94-2.871-3.349-5.179-7-7a46.762 46.762 0 0 1-6 10c-4.029 5.123-8 6.9-12 12-7.667 9.769-8.1 21.79-7 29 2.657 17.441 18.112 34.113 39 35a41.608 41.608 0 0 0 42-32c-7.886 3.037-14.41 1.647-17-2-1.259-1.772-1.761-4.359-1-8 1.427-6.832 7.078-9.821 9-14 3.4-7.385 0-17.4-8-29Z" style="fill:#72ccee;fill-rule:evenodd"/><path d="M40 8h432a32 32 0 0 1 32 32v432a32 32 0 0 1-32 32H40a32 32 0 0 1-32-32V40A32 32 0 0 1 40 8Zm20 28h392a24 24 0 0 1 24 24v392a24 24 0 0 1-24 24H60a24 24 0 0 1-24-24V60a24 24 0 0 1 24-24Z" style="fill:#e6dce3;fill-rule:evenodd"/></svg>