<svg data-name="recovery/stamina.svg" xmlns="http://www.w3.org/2000/svg" width="512" height="512"><path style="fill:#0f7fe9" d="M33 33h446v446H33z"/><circle cx="256.5" cy="260.5" r="224.5" style="fill:#18a6f7"/><circle cx="258.062" cy="259.188" r="174" style="fill:#20dcfc"/><path d="M473 381c-3.315 42.708-40.663 77.338-82 97H193a1136.085 1136.085 0 0 0 44-6c107.66-16.832 168.908-44.153 188-81 6.321-12.2 8.089-22.653 7-32-3.618-31.063-39.37-58.923-96-72 72.911 1.039 121.487 28.623 134 66 2.5 7.458 3.888 16.56 3 28zM103 189c21.492 12.008 46.041 20.563 71 26-46.285-1.244-89.669-13.518-124-39-26.641-19.774-37.214-41.615-38-52-.815-10.768 3.327-25.011 16-43 15.19-21.561 35.439-39.689 59-54h82c-33.621 10.324-66.17 27.556-88 52-13.84 15.5-19.818 31.128-21 40a63.438 63.438 0 0 0 5 34c5.47 12.214 16.56 24.021 38 36z" style="fill-rule:evenodd;fill:#25e9fd"/><path d="M423 300h-8a8 8 0 0 1-8-8v-53a8 8 0 0 1 8-8h8a8 8 0 0 1 8 8v53a8 8 0 0 1-8 8zm-51-108h-8a8 8 0 0 1-8-8v-23a8 8 0 0 1 8-8h8a8 8 0 0 1 8 8v23a8 8 0 0 1-8 8zM110 408h-9a8 8 0 0 1-8-8v-24a8 8 0 0 1 8-8h9a8 8 0 0 1 8 8v24a8 8 0 0 1-8 8z" style="fill:#2dfdfd;fill-rule:evenodd"/><path d="M388.053 310.845Q324.35 314.2 321 377.857a2 2 0 0 1-3.994 0q-3.353-63.662-67.056-67.012a2 2 0 0 1 0-3.992q63.7-3.353 67.05-67.013a2 2 0 0 1 3.994 0q3.353 63.663 67.056 67.013a2 2 0 0 1 .003 3.992zm-40.678-196q-35.625 1.873-37.5 37.476a1.878 1.878 0 0 1-3.75 0q-1.875-35.6-37.5-37.476a1.877 1.877 0 0 1 0-3.748q35.625-1.873 37.5-37.476a1.878 1.878 0 0 1 3.75 0q1.875 35.6 37.5 37.476a1.877 1.877 0 0 1 0 3.751zm-80.322 76.073q-75.1 3.951-79.056 79.005a2 2 0 0 1-3.994 0q-3.952-75.054-79.056-79a2 2 0 0 1 0-3.992q75.1-3.95 79.056-79a2 2 0 0 1 3.994 0q3.952 75.056 79.056 79.005a2 2 0 0 1 0 3.985zm-75.378 182.065q34.676-1.824 36.5-36.477a1.828 1.828 0 0 1 3.65 0q1.826 34.653 36.5 36.477a1.826 1.826 0 0 1 0 3.648q-34.675 1.823-36.5 36.476a1.828 1.828 0 0 1-3.65 0q-1.826-34.653-36.5-36.476a1.826 1.826 0 0 1 0-3.648z" style="fill:#14c7f9;fill-rule:evenodd"/><path d="M385.053 303.845Q321.35 307.2 318 370.857a2 2 0 0 1-3.994 0q-3.353-63.662-67.056-67.012a2 2 0 0 1 0-3.992q63.7-3.353 67.05-67.013a2 2 0 0 1 3.994 0q3.353 63.663 67.056 67.013a2 2 0 0 1 .003 3.992zm-40.678-196q-35.625 1.873-37.5 37.476a1.878 1.878 0 0 1-3.75 0q-1.875-35.6-37.5-37.476a1.877 1.877 0 0 1 0-3.748q35.625-1.873 37.5-37.476a1.878 1.878 0 0 1 3.75 0q1.875 35.6 37.5 37.476a1.877 1.877 0 0 1 0 3.751zm-80.322 76.073q-75.1 3.951-79.056 79.005a2 2 0 0 1-3.994 0q-3.952-75.054-79.056-79a2 2 0 0 1 0-3.992q75.1-3.95 79.056-79a2 2 0 0 1 3.994 0q3.952 75.056 79.056 79.005a2 2 0 0 1 0 3.985zm-75.378 182.065q34.676-1.824 36.5-36.477a1.828 1.828 0 0 1 3.65 0q1.826 34.653 36.5 36.477a1.826 1.826 0 0 1 0 3.648q-34.675 1.823-36.5 36.476a1.828 1.828 0 0 1-3.65 0q-1.826-34.653-36.5-36.476a1.826 1.826 0 0 1 0-3.648z" style="fill:#ecfffb;fill-rule:evenodd"/><path d="M40 8h432a32 32 0 0 1 32 32v432a32 32 0 0 1-32 32H40a32 32 0 0 1-32-32V40A32 32 0 0 1 40 8zm20 28h392a24 24 0 0 1 24 24v392a24 24 0 0 1-24 24H60a24 24 0 0 1-24-24V60a24 24 0 0 1 24-24z" style="fill:#e6dce3;fill-rule:evenodd"/></svg>