<svg xmlns="http://www.w3.org/2000/svg" width="512" height="512"><path style="fill:#55ab33" d="M33 33h446v446H33z"/><circle cx="256.5" cy="260.5" r="224.5" style="fill:#87d03f"/><circle cx="258.062" cy="259.188" r="174" style="fill:#c0e838"/><path d="M258 209.742c13.156-25.461 39.1-39.442 64-36.742 32.346 3.5 52.2 33.67 55 57.6 3.48 29.79-19.046 53.557-53 85.405a2858.11 2858.11 0 0 1-61 55.613 10.708 10.708 0 0 1-6 2.979 11.011 11.011 0 0 1-9-2.979q-28.475-26.488-57-53.627c-36.961-35.152-59.991-58.9-56-88.384 3.408-25.176 26.766-55.548 60-56.606 23.348-.744 46.444 13.256 59 36.744a2.511 2.511 0 0 0 4-.003Z" style="fill-rule:evenodd;fill:#8ad114"/><path d="M255 203.742c13.156-25.461 39.1-39.442 64-36.742 32.346 3.5 52.2 33.67 55 57.6 3.48 29.79-19.046 53.557-53 85.405a2858.11 2858.11 0 0 1-61 55.613 10.708 10.708 0 0 1-6 2.979 11.011 11.011 0 0 1-9-2.979q-28.475-26.488-57-53.627c-36.961-35.152-59.991-58.9-56-88.384 3.408-25.176 26.766-55.548 60-56.606 23.348-.744 46.444 13.256 59 36.744a2.511 2.511 0 0 0 4-.003Z" style="fill:#fff9d9;fill-rule:evenodd"/><path d="M446.2 427.115q-22.8 1.2-23.994 24a1.2 1.2 0 0 1-2.4 0q-1.2-22.8-24-24a1.2 1.2 0 0 1 0-2.4q22.8-1.2 23.994-24a1.2 1.2 0 0 1 2.4 0q1.2 22.8 24 24a1.2 1.2 0 0 1 0 2.4Zm-1.328-65.74q-7.125.375-7.5 7.5a.376.376 0 0 1-.75 0q-.375-7.125-7.5-7.5a.376.376 0 0 1 0-.75q7.125-.375 7.5-7.5a.376.376 0 0 1 .75 0q.375 7.125 7.5 7.5a.376.376 0 0 1 .003.75ZM366.25 430.25q-4.75.25-5 5a.25.25 0 0 1-.5 0q-.25-4.75-5-5a.25.25 0 0 1 0-.5q4.75-.25 5-5a.25.25 0 0 1 .5 0q.25 4.75 5 5a.25.25 0 0 1 0 .5ZM156.9 88.9q-17.1.9-17.995 18a.9.9 0 0 1-1.8 0q-.9-17.1-18-18a.9.9 0 0 1 0-1.8q17.1-.9 18-18a.9.9 0 0 1 1.8 0q.9 17.1 18 18a.9.9 0 0 1-.005 1.8Zm-47.274 43.215q-21.373 1.128-22.495 22.5a1.126 1.126 0 0 1-2.25 0q-1.128-21.372-22.5-22.494a1.127 1.127 0 0 1 0-2.25q21.372-1.127 22.495-22.5a1.126 1.126 0 0 1 2.25 0q1.128 21.372 22.5 22.494a1.127 1.127 0 0 1 .002 2.247Zm-40.951-45.94a3.307 3.307 0 0 0-3.5 3.5.175.175 0 0 1-.35 0 3.307 3.307 0 0 0-3.5-3.5.175.175 0 0 1 0-.35 3.307 3.307 0 0 0 3.5-3.5.175.175 0 0 1 .35 0 3.307 3.307 0 0 0 3.5 3.5.175.175 0 0 1 0 .35Zm62.075 48.575q4.75-.25 5-5a.25.25 0 0 1 .5 0q.25 4.75 5 5a.25.25 0 0 1 0 .5q-4.75.25-5 5a.25.25 0 0 1-.5 0q-.25-4.75-5-5a.25.25 0 0 1 0-.5Z" style="fill:#fffef5;fill-rule:evenodd"/><path d="M40 8h432a32 32 0 0 1 32 32v432a32 32 0 0 1-32 32H40a32 32 0 0 1-32-32V40A32 32 0 0 1 40 8Zm20 28h392a24 24 0 0 1 24 24v392a24 24 0 0 1-24 24H60a24 24 0 0 1-24-24V60a24 24 0 0 1 24-24Z" style="fill:#e6dce3;fill-rule:evenodd"/></svg>