<svg xmlns="http://www.w3.org/2000/svg" width="512" height="512"><path style="fill:#55ab33" d="M33 33h446v446H33z"/><circle cx="256.5" cy="260.5" r="224.5" style="fill:#87d03f"/><circle cx="258.062" cy="259.188" r="174" style="fill:#c0e838"/><path d="M260 85c12.023 5.627 21.621 14.424 26 26 7.144 18.887-2.51 39.077-8 48-8.284 13.463-18.39 18.9-17 28 1.235 8.084 10.655 14.518 19 15 12.058.7 25.252-10.883 27-29 8.452 8.15 14.4 17.444 17 28 7.217 29.28-20.839 57.39-9 78 3.727 6.489 10.676 11.274 17 11 9.86-.426 20.435-13.194 24-36 24.718 46.017 19.956 99.439-9 136-25.243 31.872-62.974 44.336-95 44-26.791-.281-68.162-9.884-94-46-30.922-43.222-26.585-110.307 18-160 4.207 17.677 13.638 27.092 22 27 4.419-.049 9.208-2.775 12-7 9.812-14.849-14.939-36.6-11-59 5.676-32.265 51.177-37.886 61-74 2.563-9.423 2.494-19.427 0-30Zm2 183c-2.45 18.66.034 34.422 8 47 10.36 16.358 31.424 20.768 38 40 4.241 12.4 1.582 27.16-6 38a44.691 44.691 0 0 1-24 17 56.275 56.275 0 0 0-1-12c-2.62-13.56-10.187-25.54-21-35a58.036 58.036 0 0 0-19 49 51.367 51.367 0 0 1-27-12c-13.665-11.928-21.035-32.021-16-51a50 50 0 0 1 16-25c-.021 11.391 5.757 19.851 13 22 7.112 2.111 15.9-1.755 20-8 9.614-14.631-10.727-36.083-2-54 3.575-7.339 10.86-12.551 21-16Z" style="fill-rule:evenodd;fill:#8ad114"/><path d="M254 79c12.023 5.627 21.621 14.424 26 26 7.144 18.887-2.51 39.077-8 48-8.284 13.463-18.39 18.9-17 28 1.235 8.084 10.655 14.518 19 15 12.058.7 25.252-10.883 27-29 8.452 8.15 14.4 17.444 17 28 7.217 29.28-20.839 57.39-9 78 3.727 6.489 10.676 11.274 17 11 9.86-.426 20.435-13.194 24-36 24.718 46.017 19.956 99.439-9 136-25.243 31.872-62.974 44.336-95 44-26.791-.281-68.162-9.884-94-46-30.922-43.222-26.585-110.307 18-160 4.207 17.677 13.638 27.092 22 27 4.419-.049 9.208-2.775 12-7 9.812-14.849-14.939-36.6-11-59 5.676-32.265 51.177-37.886 61-74 2.563-9.422 2.494-19.427 0-30Zm2 183c-2.45 18.66.034 34.422 8 47 10.36 16.358 31.424 20.768 38 40 4.241 12.4 1.582 27.16-6 38a44.691 44.691 0 0 1-24 17 56.275 56.275 0 0 0-1-12c-2.62-13.56-10.187-25.54-21-35a58.036 58.036 0 0 0-19 49 51.367 51.367 0 0 1-27-12c-13.665-11.928-21.035-32.021-16-51a50 50 0 0 1 16-25c-.021 11.391 5.757 19.851 13 22 7.112 2.111 15.9-1.755 20-8 9.614-14.631-10.727-36.083-2-54 3.575-7.339 10.86-12.551 21-16Z" style="fill:#fff8d8;fill-rule:evenodd"/><path d="M446.2 427.115q-22.8 1.2-23.994 24a1.2 1.2 0 0 1-2.4 0q-1.2-22.8-24-24a1.2 1.2 0 0 1 0-2.4q22.8-1.2 23.994-24a1.2 1.2 0 0 1 2.4 0q1.2 22.8 24 24a1.2 1.2 0 0 1 0 2.4Zm-1.328-65.74q-7.125.375-7.5 7.5a.376.376 0 0 1-.75 0q-.375-7.125-7.5-7.5a.376.376 0 0 1 0-.75q7.125-.375 7.5-7.5a.376.376 0 0 1 .75 0q.375 7.125 7.5 7.5a.376.376 0 0 1 .003.75ZM366.25 430.25q-4.75.25-5 5a.25.25 0 0 1-.5 0q-.25-4.75-5-5a.25.25 0 0 1 0-.5q4.75-.25 5-5a.25.25 0 0 1 .5 0q.25 4.75 5 5a.25.25 0 0 1 0 .5ZM156.9 88.9q-17.1.9-17.995 18a.9.9 0 0 1-1.8 0q-.9-17.1-18-18a.9.9 0 0 1 0-1.8q17.1-.9 18-18a.9.9 0 0 1 1.8 0q.9 17.1 18 18a.9.9 0 0 1-.005 1.8Zm-47.274 43.215q-21.373 1.128-22.495 22.5a1.126 1.126 0 0 1-2.25 0q-1.128-21.372-22.5-22.494a1.127 1.127 0 0 1 0-2.25q21.372-1.127 22.495-22.5a1.126 1.126 0 0 1 2.25 0q1.128 21.372 22.5 22.494a1.127 1.127 0 0 1 .002 2.247Zm-40.951-45.94a3.307 3.307 0 0 0-3.5 3.5.175.175 0 0 1-.35 0 3.307 3.307 0 0 0-3.5-3.5.175.175 0 0 1 0-.35 3.307 3.307 0 0 0 3.5-3.5.175.175 0 0 1 .35 0 3.307 3.307 0 0 0 3.5 3.5.175.175 0 0 1 0 .35Zm62.075 48.575q4.75-.25 5-5a.25.25 0 0 1 .5 0q.25 4.75 5 5a.25.25 0 0 1 0 .5q-4.75.25-5 5a.25.25 0 0 1-.5 0q-.25-4.75-5-5a.25.25 0 0 1 0-.5Z" style="fill:#fffef5;fill-rule:evenodd"/><path d="M40 8h432a32 32 0 0 1 32 32v432a32 32 0 0 1-32 32H40a32 32 0 0 1-32-32V40A32 32 0 0 1 40 8Zm20 28h392a24 24 0 0 1 24 24v392a24 24 0 0 1-24 24H60a24 24 0 0 1-24-24V60a24 24 0 0 1 24-24Z" style="fill:#e6dce3;fill-rule:evenodd"/></svg>