<svg id="weak_starting.svg" data-name="weak/starting.svg" xmlns="http://www.w3.org/2000/svg" width="512" height="512"><defs><style>.cls-4,.cls-5{fill-rule:evenodd}.cls-4{fill:#7e45e7}.cls-5{fill:#fff8d9}</style></defs><path id="background" style="fill:#9856f3" d="M33 33h446v446H33z"/><path id="effect_outer" d="M210 68.941a45.738 45.738 0 0 0 17-4.994c14.739-8.32 18.774-25.284 30-35.96 9.682-9.208 19.188-12.064 24-11.987 9.411.151 17.35 6.071 22 10.988 10.792 11.41 9.118 23.993 18 35.96a51.99 51.99 0 0 0 16 13.985 44.629 44.629 0 0 0 16 4c14.122.775 27.847-7.327 36-8.99 14.071-2.87 29.017-3.083 36 4.994 9.82 11.359-2.466 39.026 0 58.935a87.548 87.548 0 0 0 8 26.97 54.739 54.739 0 0 0 16 12.986c16.315 8.632 34.928 2.023 44 11.986 10.1 11.093 6.239 37.977-7 54.94-4.931 6.318-20.8 15.155-25 28.967a34.841 34.841 0 0 0-1 14.984c3.989 27.92 43.69 37.653 43 57.935-.473 13.9-18.87 23.586-24 25.972-18.767 8.728-31.653.333-51 8.99-9.406 4.209-15.211 9.132-19 13.984-18.694 23.938.9 61.345-16 75.916-8.339 7.19-22.676 5.921-36 2-13.437-3.956-27.982-20.183-43-17.98-5.854.858-9.909 3.725-14 6.992-19.629 15.674-29.932 31.127-46 33.962-18.164 3.206-34.539-8.929-41-14.983-10.815-10.134-12.734-25.854-26-32.964-4.046-2.168-18.435-3.777-35 0-21.057 4.8-32.933 12.946-46 6.993a26.994 26.994 0 0 1-10-7.991c-8.993-11.613-5.129-26.945-3-46.948 1.665-15.641.508-29.036-2-32.964-8.42-13.186-28.234-14.337-53-24.972-8.659-3.718-17.148-8.366-20-16.981-3.206-9.686 2.143-20.173 9-29.967 12.479-17.823 36.512-32 39-47.947 4.194-26.876-44.243-46.554-39-71.92.472-2.283 3.281-7.988 8-12.986 21.363-22.625 60.564-6.548 76-26.97 5.915-7.826 3.45-17.559 5-31.964 3.588-33.336 11.354-49.871 23-53.94 19.326-6.761 40.375 24.369 71 20.969z" style="fill-rule:evenodd;fill:#aa65f7"/><path id="effect_inner" d="M229 105a27.318 27.318 0 0 1 15-1c12.3 2.979 19.2 17.739 28 23.993 9.285 6.6 18.129 8.923 23 9 13.817.211 22.229-9.751 35-12 8.383-1.474 24.372-2.593 33 6 13.586 13.526-1.986 38.152 10 56.984 10.4 16.339 30.345 15.889 46 33.99 4.054 4.687 7.5 10.1 8 17 .752 10.385-5.707 18.657-13 26.993-8.988 10.273-17.268 17.97-20 25.992-1.971 5.788-1.617 22.638 4 40.988 2.951 9.643 6.65 19.126 2 26.993-3.442 5.823-9.971 8.336-17 10-16.757 3.958-33.045-1.151-45 6-10.314 6.168-14.51 21.7-25 38.989-3.695 6.088-8.993 13.979-18 16-10.307 2.308-19.838-4.343-26-9-17.756-13.411-28.619-27.379-41-28.992-18.611-2.425-30.494 17.757-49 13a29.31 29.31 0 0 1-15-10c-12.951-16.117.355-36.807-10-54.984-2.87-5.037-16.07-15.433-32-23.993-9.482-5.1-19.445-9.426-22-19-2.145-8.031 1.9-16.061 8-24.992 7.474-10.939 22.341-22.618 25-33.991 4.824-20.63-16.5-33.938-11-55.984a32.471 32.471 0 0 1 9-16c15.709-14.527 38.467-.378 57-11 20.879-11.964 18.4-43.386 41-50.986z" style="fill:#cd97fa;fill-rule:evenodd"/><path id="gate_2_shadow" class="cls-4" d="M450.031 268v141s.733 14.678-3 19c-5.439 6.3-16 2-16 2l-43-27a10.162 10.162 0 0 1-6-7 8.265 8.265 0 0 1 0-3v-95a12.659 12.659 0 0 1 2-10 12.167 12.167 0 0 1 5-4l36-24c8.938-7.1 18.957-6.654 23-2 2.26 2.6 2.586 6.449 2 10zM141 390a8.243 8.243 0 0 1 0 3 10.162 10.162 0 0 1-6 7l-43 27s-10.561 4.3-16-2c-3.732-4.322-3-19-3-19V265c-.586-3.551-.26-7.4 2-10 4.043-4.654 14.063-5.1 23 2l36 24a12.167 12.167 0 0 1 5 4 12.651 12.651 0 0 1 2 10v95z"/><path id="gate_2" class="cls-5" d="M444.031 262v141s.733 14.678-3 19c-5.439 6.3-16 2-16 2l-43-27a10.162 10.162 0 0 1-6-7 8.265 8.265 0 0 1 0-3v-95a12.659 12.659 0 0 1 2-10 12.167 12.167 0 0 1 5-4l36-24c8.938-7.1 18.957-6.654 23-2 2.26 2.6 2.586 6.449 2 10zM135 384a8.243 8.243 0 0 1 0 3 10.162 10.162 0 0 1-6 7l-43 27s-10.561 4.3-16-2c-3.732-4.322-3-19-3-19V259c-.586-3.551-.26-7.4 2-10 4.043-4.654 14.063-5.1 23 2l36 24a12.167 12.167 0 0 1 5 4 12.651 12.651 0 0 1 2 10v95z"/><path id="gate_1_shadow" class="cls-4" d="M357 437H166a4 4 0 0 1-4-4V179a4 4 0 0 1 4-4h12a4 4 0 0 1 4 4v228a3.983 3.983 0 0 1-.093.844A10.806 10.806 0 0 0 184 416a8.358 8.358 0 0 0 1 1h153a8.358 8.358 0 0 0 1-1 10.806 10.806 0 0 0 2.093-8.156A3.983 3.983 0 0 1 341 407V179a4 4 0 0 1 4-4h12a4 4 0 0 1 4 4v254a4 4 0 0 1-4 4z"/><path id="gate_1" class="cls-5" d="M351 431H160a4 4 0 0 1-4-4V173a4 4 0 0 1 4-4h12a4 4 0 0 1 4 4v228a3.983 3.983 0 0 1-.093.844A10.806 10.806 0 0 0 178 410a8.358 8.358 0 0 0 1 1h153a8.358 8.358 0 0 0 1-1 10.806 10.806 0 0 0 2.093-8.156A3.983 3.983 0 0 1 335 401V173a4 4 0 0 1 4-4h12a4 4 0 0 1 4 4v254a4 4 0 0 1-4 4z"/><path id="number_shadow" class="cls-4" d="M211 84h104a12 12 0 0 1 12 12v104a12 12 0 0 1-12 12H211a12 12 0 0 1-12-12V96a12 12 0 0 1 12-12zm63 109h-13a8 8 0 0 1-8-8v-53h-13a8 8 0 0 1-8-8v-11a8 8 0 0 1 8-8h34a8 8 0 0 1 8 8v72a8 8 0 0 1-8 8z"/><path id="bumber" class="cls-5" d="M205 78h104a12 12 0 0 1 12 12v104a12 12 0 0 1-12 12H205a12 12 0 0 1-12-12V90a12 12 0 0 1 12-12zm63 109h-13a8 8 0 0 1-8-8v-53h-13a8 8 0 0 1-8-8v-11a8 8 0 0 1 8-8h34a8 8 0 0 1 8 8v72a8 8 0 0 1-8 8z"/><path id="frame" d="M40 8h432a32 32 0 0 1 32 32v432a32 32 0 0 1-32 32H40a32 32 0 0 1-32-32V40A32 32 0 0 1 40 8zm20 28h392a24 24 0 0 1 24 24v392a24 24 0 0 1-24 24H60a24 24 0 0 1-24-24V60a24 24 0 0 1 24-24z" style="fill:#e6dce3;fill-rule:evenodd"/></svg>