<svg id="buff_acceleration.svg" data-name="buff/acceleration.svg" xmlns="http://www.w3.org/2000/svg" width="496" height="496" viewBox="0 0 496 496">
  <defs>
    <style>
      .cls-1 {
        fill: #f99c36;
      }

      .cls-2 {
        fill: #faba2a;
      }

      .cls-2, .cls-3, .cls-4, .cls-5, .cls-6, .cls-7 {
        fill-rule: evenodd;
      }

      .cls-3 {
        fill: #ffd423;
      }

      .cls-4 {
        fill: #fff;
      }

      .cls-5 {
        fill: #fa8a12;
      }

      .cls-6 {
        fill: #fff8d9;
      }

      .cls-7 {
        fill: #e6dce3;
      }
    </style>
  </defs>
  <rect id="background" class="cls-1" x="25" y="25" width="446" height="446"/>
  <path id="dash_afterimage_2" class="cls-2" d="M277,264l-28,32a11.676,11.676,0,0,1-5,3,12.044,12.044,0,0,1-9-1l-58-26a124.851,124.851,0,0,1-17,32l22-2a15.25,15.25,0,0,1,15,13l15,62,22-16c5.053-2.422,10.91-3.245,16-1,9.326,4.114,11.629,16.59,10,25a25.984,25.984,0,0,1-8,14l-43,32a13.229,13.229,0,0,1-9,2c-4.95-.751-9.257-4.565-11-10l-25-81a152.555,152.555,0,0,1-50,4l-11,35a10.519,10.519,0,0,1-3,6,10.65,10.65,0,0,1-8,3l-55,3-7,24.5V358H71c1.083-6.751,2.4-13.352,4-20,1.464-6.094,3.111-12.023,5-18a24.226,24.226,0,0,0-31,6,54.33,54.33,0,0,1-15,17c-1.294.958-2.631,1.848-4,2.684V314.875c2.063-1.6,4-3.344,6-4.875a50.572,50.572,0,0,1,20-9,30.82,30.82,0,0,1,15,2,30.083,30.083,0,0,1,7,4,83.44,83.44,0,0,1,25-56l-34-1L54,267c3.5,4.572,5.947,11.028,4,17-2.859,8.77-14.868,14.946-28,11V249.968L48,225a9.618,9.618,0,0,1,10-5l61,1,12,2c-13.621-15.4-19.562-36.73-14-57a60.644,60.644,0,0,1,28-36,43.43,43.43,0,0,1,14-42,52,52,0,0,1,7,11,52.949,52.949,0,0,1,5,23,52.2,52.2,0,0,1,43,18,50.416,50.416,0,0,1,43-21,52.54,52.54,0,0,1-29,43,62.79,62.79,0,0,1,0,40c-6.661,19.4-22.681,33.759-42,40l50,24,12-11a17.757,17.757,0,0,1-3-14c1.263-5.641,5.758-9.671,10-12,7.721-4.239,17.19-3.215,25,1a20.418,20.418,0,0,1,8,15A20.847,20.847,0,0,1,277,264Z" transform="translate(-8 -8)"/>
  <path id="dash_afterimage_1" class="cls-3" d="M215,223c-13.621-15.4-19.562-36.73-14-57a60.644,60.644,0,0,1,28-36,43.43,43.43,0,0,1,14-42,52,52,0,0,1,7,11,52.949,52.949,0,0,1,5,23,52.2,52.2,0,0,1,43,18,50.416,50.416,0,0,1,43-21,52.54,52.54,0,0,1-29,43,62.79,62.79,0,0,1,0,40c-6.661,19.4-22.681,33.759-42,40l50,24,12-11a17.757,17.757,0,0,1-3-14c1.263-5.641,5.758-9.671,10-12,7.721-4.239,17.19-3.215,25,1a20.418,20.418,0,0,1,8,15,20.847,20.847,0,0,1-11,19l-28,32a11.676,11.676,0,0,1-5,3,12.044,12.044,0,0,1-9-1l-58-26a124.851,124.851,0,0,1-17,32l22-2a15.25,15.25,0,0,1,15,13l15,62,22-16c5.053-2.422,10.91-3.245,16-1,9.326,4.114,11.629,16.59,10,25a25.984,25.984,0,0,1-8,14l-43,32a13.229,13.229,0,0,1-9,2c-4.95-.751-9.257-4.565-11-10l-25-81a152.555,152.555,0,0,1-50,4l-11,35a10.519,10.519,0,0,1-3,6,10.651,10.651,0,0,1-8,3l-55,3-8,28c-3.25,6.023-8.942,11.053-16,12-10.223,1.372-21.459-6.195-25-19l14-49a19.1,19.1,0,0,1,14-10,18.8,18.8,0,0,1,13,3h42c1.083-6.751,2.4-13.352,4-20,1.464-6.094,3.111-12.023,5-18a24.226,24.226,0,0,0-31,6,54.258,54.258,0,0,1-34,26,39.229,39.229,0,0,1-32-4,38.777,38.777,0,0,1-16-20,28.5,28.5,0,0,0,17,6,31.476,31.476,0,0,1-4-44,6.859,6.859,0,0,0,1,3,7.063,7.063,0,0,0,4,3,21.506,21.506,0,0,1,21-15c-8.68,5.287-12.567,15.313-10,24a20.981,20.981,0,0,0,15,14,18.758,18.758,0,0,0,7,1c7.858-.413,12.718-5.955,18-10a50.572,50.572,0,0,1,20-9,30.819,30.819,0,0,1,15,2,30.083,30.083,0,0,1,7,4,83.44,83.44,0,0,1,25-56l-34-1-15,17c3.5,4.572,5.947,11.028,4,17-2.859,8.77-14.868,14.946-28,11a29.069,29.069,0,0,1-13-13,13.038,13.038,0,0,1,0-14l31-43a9.618,9.618,0,0,1,10-5l61,1Z" transform="translate(-8 -8)"/>
  <path id="twinkle" class="cls-4" d="M180,167.985Q178.3,135.7,146.015,134,178.3,132.3,180,100.015,181.7,132.3,213.985,134,181.7,135.7,180,167.985ZM137,213q-0.95-18.053-19-19,18.054-.95,19-19,0.95,18.054,19,19Q137.95,194.95,137,213ZM81,170.015Q80.149,153.851,63.985,153,80.149,152.15,81,135.985,81.851,152.149,98.015,153,81.851,153.851,81,170.015Z" transform="translate(-8 -8)"/>
  <path id="dash_shadow" class="cls-5" d="M307,221c-13.621-15.4-19.562-36.73-14-57a60.644,60.644,0,0,1,28-36,43.43,43.43,0,0,1,14-42,52,52,0,0,1,7,11,52.949,52.949,0,0,1,5,23,52.2,52.2,0,0,1,43,18,50.416,50.416,0,0,1,43-21,52.54,52.54,0,0,1-29,43,62.79,62.79,0,0,1,0,40c-6.661,19.4-22.681,33.759-42,40l50,24,12-11a17.757,17.757,0,0,1-3-14c1.263-5.641,5.758-9.671,10-12,7.721-4.239,17.19-3.215,25,1a20.418,20.418,0,0,1,8,15,20.847,20.847,0,0,1-11,19l-28,32a11.676,11.676,0,0,1-5,3,12.044,12.044,0,0,1-9-1l-58-26a124.851,124.851,0,0,1-17,32l22-2a15.25,15.25,0,0,1,15,13l15,62,22-16c5.053-2.422,10.91-3.245,16-1,9.326,4.114,11.629,16.59,10,25a25.984,25.984,0,0,1-8,14l-43,32a13.229,13.229,0,0,1-9,2c-4.95-.751-9.257-4.565-11-10l-25-81a152.555,152.555,0,0,1-50,4l-11,35a10.519,10.519,0,0,1-3,6,10.651,10.651,0,0,1-8,3l-55,3-8,28c-3.25,6.023-8.942,11.053-16,12-10.223,1.372-21.459-6.195-25-19l14-49a19.1,19.1,0,0,1,14-10,18.8,18.8,0,0,1,13,3h42c1.083-6.751,2.4-13.352,4-20,1.464-6.094,3.111-12.023,5-18a24.226,24.226,0,0,0-31,6,54.258,54.258,0,0,1-34,26,39.229,39.229,0,0,1-32-4,38.779,38.779,0,0,1-16-20,28.5,28.5,0,0,0,17,6,31.476,31.476,0,0,1-4-44,6.867,6.867,0,0,0,1,3,7.063,7.063,0,0,0,4,3,21.506,21.506,0,0,1,21-15c-8.68,5.287-12.567,15.313-10,24a20.98,20.98,0,0,0,15,14,18.76,18.76,0,0,0,7,1c7.858-.413,12.718-5.955,18-10a50.572,50.572,0,0,1,20-9,30.819,30.819,0,0,1,15,2,30.083,30.083,0,0,1,7,4,83.44,83.44,0,0,1,25-56l-34-1-15,17c3.5,4.572,5.947,11.028,4,17-2.859,8.77-14.868,14.946-28,11a29.069,29.069,0,0,1-13-13,13.038,13.038,0,0,1,0-14l31-43a9.618,9.618,0,0,1,10-5l61,1Z" transform="translate(-8 -8)"/>
  <path id="dash" class="cls-6" d="M302,212c-13.621-15.4-19.562-36.73-14-57a60.644,60.644,0,0,1,28-36,43.43,43.43,0,0,1,14-42,52,52,0,0,1,7,11,52.949,52.949,0,0,1,5,23,52.2,52.2,0,0,1,43,18,50.416,50.416,0,0,1,43-21,52.54,52.54,0,0,1-29,43,62.79,62.79,0,0,1,0,40c-6.661,19.4-22.681,33.759-42,40l50,24,12-11a17.757,17.757,0,0,1-3-14c1.263-5.641,5.758-9.671,10-12,7.721-4.239,17.19-3.215,25,1a20.418,20.418,0,0,1,8,15,20.847,20.847,0,0,1-11,19l-28,32a11.676,11.676,0,0,1-5,3,12.044,12.044,0,0,1-9-1l-58-26a124.851,124.851,0,0,1-17,32l22-2a15.25,15.25,0,0,1,15,13l15,62,22-16c5.053-2.422,10.91-3.245,16-1,9.326,4.114,11.629,16.59,10,25a25.984,25.984,0,0,1-8,14l-43,32a13.229,13.229,0,0,1-9,2c-4.95-.751-9.257-4.565-11-10l-25-81a152.555,152.555,0,0,1-50,4l-11,35a10.519,10.519,0,0,1-3,6,10.651,10.651,0,0,1-8,3l-55,3-8,28c-3.25,6.023-8.942,11.053-16,12-10.223,1.372-21.459-6.195-25-19l14-49a19.1,19.1,0,0,1,14-10,18.8,18.8,0,0,1,13,3h42c1.083-6.751,2.4-13.352,4-20,1.464-6.094,3.111-12.023,5-18a24.226,24.226,0,0,0-31,6,54.258,54.258,0,0,1-34,26,39.229,39.229,0,0,1-32-4,38.779,38.779,0,0,1-16-20,28.5,28.5,0,0,0,17,6,31.476,31.476,0,0,1-4-44,6.867,6.867,0,0,0,1,3,7.063,7.063,0,0,0,4,3,21.506,21.506,0,0,1,21-15c-8.68,5.287-12.567,15.313-10,24a20.98,20.98,0,0,0,15,14,18.76,18.76,0,0,0,7,1c7.858-.413,12.718-5.955,18-10a50.572,50.572,0,0,1,20-9,30.819,30.819,0,0,1,15,2,30.083,30.083,0,0,1,7,4,83.44,83.44,0,0,1,25-56l-34-1-15,17c3.5,4.572,5.947,11.028,4,17-2.859,8.77-14.868,14.946-28,11a29.069,29.069,0,0,1-13-13,13.038,13.038,0,0,1,0-14l31-43a9.618,9.618,0,0,1,10-5l61,1Z" transform="translate(-8 -8)"/>
  <path id="frame" class="cls-7" d="M40,8H472a32,32,0,0,1,32,32V472a32,32,0,0,1-32,32H40A32,32,0,0,1,8,472V40A32,32,0,0,1,40,8ZM60,36H452a24,24,0,0,1,24,24V452a24,24,0,0,1-24,24H60a24,24,0,0,1-24-24V60A24,24,0,0,1,60,36Z" transform="translate(-8 -8)"/>
</svg>
