<svg xmlns="http://www.w3.org/2000/svg" width="512" height="512"><path d="M249.424 20.113a8 8 0 0 1 14.09 0l77.468 143.962 160.892 29.167a8 8 0 0 1 4.354 13.4L393.214 324.781l21.971 161.985a8 8 0 0 1-11.4 8.283L256.469 424.1l-147.318 70.949a8 8 0 0 1-11.4-8.283l21.97-161.985L6.71 206.644a8 8 0 0 1 4.354-13.4l160.891-29.167z" style="fill-rule:evenodd;fill:#b57a1d"/><path d="M252.477 56.548a4 4 0 0 1 7.046 0l66.641 123.879 138.41 25.1a4 4 0 0 1 2.177 6.7l-97.223 101.66 18.9 139.392a4 4 0 0 1-5.7 4.141L256 396.37l-126.728 61.05a4 4 0 0 1-5.7-4.141l18.9-139.392-97.223-101.66a4 4 0 0 1 2.177-6.7l138.41-25.1z" style="fill:#ffee7a;fill-rule:evenodd"/><path d="M467.848 209.173 256 269V54.443a3.959 3.959 0 0 1 3.523 2.105l66.641 123.879 138.41 25.1a3.984 3.984 0 0 1 3.274 3.646zM129.272 457.42a4 4 0 0 1-5.7-4.141l18.9-139.392-97.223-101.66a3.934 3.934 0 0 1-1.064-3.323L256 269v127.37z" style="fill:#ffd024;fill-rule:evenodd"/></svg>