<svg id="notfound" xmlns="http://www.w3.org/2000/svg" xmlns:xlink="http://www.w3.org/1999/xlink" width="1024" height="720"><defs><linearGradient id="a" x1="952.11" y1="728" x2="952.11" y2="-5" gradientUnits="userSpaceOnUse"><stop offset="0" stop-color="#3b1d29"/><stop offset=".497" stop-color="#632d44"/><stop offset="1" stop-color="#662f42"/></linearGradient><linearGradient id="b" x1="399.52" y1="300" x2="660.48" y2="-11" gradientUnits="userSpaceOnUse"><stop offset="0" stop-color="#e8b0af"/><stop offset=".499" stop-color="#df989e"/><stop offset="1" stop-color="#e1aaaf"/></linearGradient><linearGradient id="c" x1="631.494" y1="368" x2="860.568" y2="95" xlink:href="#b"/><linearGradient id="d" x1="771.328" y1="417.031" x2="771.328" y2="329.094" gradientUnits="userSpaceOnUse"><stop offset="0" stop-color="#a647b3"/><stop offset=".501" stop-color="#502b5e"/><stop offset="1" stop-color="#6a5a77"/></linearGradient><linearGradient id="e" x1="799.531" y1="454" x2="799.531" y2="275.812" gradientUnits="userSpaceOnUse"><stop offset="0" stop-color="#876863"/><stop offset="1" stop-color="#72333c"/></linearGradient><linearGradient id="f" x1="465.547" y1="386" x2="465.547" y2="277.844" xlink:href="#d"/><linearGradient id="g" x1="397.309" y1="406" x2="562.691" y2="208.906" gradientUnits="userSpaceOnUse"><stop offset="0" stop-color="#603e3c"/><stop offset="1" stop-color="#5e3435"/></linearGradient><linearGradient id="h" x1="905.687" y1="258" x2="905.687" y2="-6" gradientUnits="userSpaceOnUse"><stop offset="0" stop-color="#5f2e41"/><stop offset=".501" stop-color="#653044"/><stop offset="1" stop-color="#7e4357"/></linearGradient><linearGradient id="i" x1="511.89" y1="210.094" x2="511.89" y2="-4" gradientUnits="userSpaceOnUse"><stop offset="0" stop-color="#e1a6c4"/><stop offset=".497" stop-color="#f4eef0"/><stop offset="1" stop-color="#f4f0ef"/></linearGradient><linearGradient id="j" x1="694.422" y1="354" x2="694.422" y2="-10" gradientUnits="userSpaceOnUse"><stop offset="0" stop-color="#e4a4be"/><stop offset=".503" stop-color="#f3e7eb"/><stop offset="1" stop-color="#f4f0ef"/></linearGradient><linearGradient id="k" x1="103.5" y1="724" x2="103.5" y2="-4" gradientUnits="userSpaceOnUse"><stop offset="0" stop-color="#482432"/><stop offset=".501" stop-color="#522738"/><stop offset="1" stop-color="#642f43"/></linearGradient><linearGradient id="l" x1="262.359" y1="726" x2="262.359" y2="-4" gradientUnits="userSpaceOnUse"><stop offset="0" stop-color="#4f2636"/><stop offset=".503" stop-color="#5f2c3f"/><stop offset="1" stop-color="#642f43"/></linearGradient><style>.cls-1{fill:#2f1228}.cls-1,.cls-12,.cls-14,.cls-15,.cls-16,.cls-17,.cls-27,.cls-7{fill-rule:evenodd}.cls-7{fill:#f7f7f7}.cls-12{fill:none;stroke:#804243;stroke-linecap:round;stroke-linejoin:round;stroke-width:2px}.cls-14{fill:#ed86f1}.cls-15{fill:#ad98d1}.cls-16{fill:#893d98}.cls-17{fill:#9a716f}.cls-27{fill:#fefdfb}</style></defs><g id="hair_leftside"><path id="base" class="cls-1" d="M1023 312c-.77 27.323-.02 52.684-1 80-3.22 89.3-15.12 172.828-32 227a661.8 661.8 0 0 1-46 111h-9a1010.967 1010.967 0 0 1 7-24c4.815-15.781 10.18-31.038 14-46a363.178 363.178 0 0 0 8-41 787.498 787.498 0 0 1-28 63 785.294 785.294 0 0 1-26 48h-86c2.284-10.7 4.254-21.2 6-32a642.983 642.983 0 0 0 5-38 364.159 364.159 0 0 1-16 41 363.15 363.15 0 0 1-15 29h-20a190.112 190.112 0 0 0 7-18q2.943-8.88 5-18a159.433 159.433 0 0 1-19 36H671l2.53-7.835C693.779 708.6 713.487 694.364 733.3 679c21.388-16.589 38.552-31.481 54-56 8.371-13.285 14.359-26.622 20-43 10.783-31.307 13.881-57.513 20-89 3.833-19.721 10.193-42.579 18-66 9.493-28.478 21.609-52.846 30-83 5.263-18.912 9.148-40.778 11.567-65.1a352.944 352.944 0 0 0-22.771-144.8L868 120V-5h112a1155.364 1155.364 0 0 1 32 132c4.54 25.244 8.16 50.557 10 72 3.44 39.952 2.14 72.614 1 113Z"/><path id="main" d="M1022 392c-3.22 89.3-15.12 172.828-32 227a661.745 661.745 0 0 1-44.846 108.773c-.052.075-.1.152-.154.227h-9.43a1010.243 1010.243 0 0 1 6.43-22c4.815-15.781 10.18-31.038 14-46q3.4-13.306 5.764-26.732A1217.975 1217.975 0 0 0 966 615q-1.161 3.236-2.351 6.451c.117-.817.24-1.634.351-2.451a787.498 787.498 0 0 1-28 63q-2.208 4.436-4.461 8.81A1210.952 1210.952 0 0 0 947 631c10.817-46.724 18.813-92.225 22-130a755.916 755.916 0 0 0 2-96 874.966 874.966 0 0 1-17 69 885.606 885.606 0 0 1-74 179 1042.635 1042.635 0 0 0 49-231 1042.306 1042.306 0 0 0-1-209L904.643-5H980a1155.364 1155.364 0 0 1 32 132c4.54 25.244 8.16 50.557 10 72 3.44 39.952 2.14 72.614 1 113-.77 27.323-.02 52.684-1 80Z" style="fill:url(#a);fill-rule:evenodd"/><path id="highlight" d="M962 9a19.222 19.222 0 0 0 2-6 19.226 19.226 0 0 0 0-6h16.6a1154.152 1154.152 0 0 1 31.4 130c4.54 25.244 8.16 50.557 10 72a667.86 667.86 0 0 1 2.09 69.712A1695.083 1695.083 0 0 0 945 36a1676.608 1676.608 0 0 0-18-41h20a51.353 51.353 0 0 1 15 14Z" style="fill:#b85f7b;fill-rule:evenodd"/></g><g id="mouth"><path id="base-2" data-name="base" d="M635 680c-19.235-4.332-40.891-2.894-62 3-15.213 4.247-33.351 12.16-53 5a45.139 45.139 0 0 1-20-14c-6.474-8.2-11.444-32.613-2-67 7-25.471 17.941-43.392 28-55 16.38-18.9 42.17-40.768 68-37 9.553 1.393 16.772 7.874 28 14 17.828 9.727 36.029 16.13 47 18 10.3 1.755 21.384 2.691 26 2 8.391-1.257 13.864-4 18-1 7.354 5.34 2.813 23.257 0 34-2.678 10.227-6.417 25.394-8 32-1.962 8.186-9.3 39.221-11 48-.871 4.5-3.221 16.974-13 23-12.413 7.649-27.6-.855-46-5Z" style="fill:#431c1d;fill-rule:evenodd"/><g id="tongue"><path id="base-3" data-name="base" d="m494 562-15 86 27 48h160c6.326-43.377-9.322-87.058-43-115-35.8-29.7-88.46-34-129-19Z" style="fill:#e47e7c;fill-rule:evenodd"/><path id="shadow" d="M630 602c-11.889-1.116-19.93 2.952-31 3-4.6.02-14.229-1.724-23-4-6.984-1.813-27.214-10.605-41-11-15.037-.431-29.449 4.794-43 14l2-42c40.54-15 93.2-10.7 129 19a121.1 121.1 0 0 1 26.65 31.135c-6.515-4.925-13.662-9.573-19.65-10.135Z" style="fill:#b23e49;fill-rule:evenodd"/></g><path id="tooth" class="cls-7" d="m578 507 138 35a58.594 58.594 0 0 1-11 16c-7.19 7.4-15.244 11.213-19 12a34.967 34.967 0 0 1-12 0c-1.774-.326-45.955-3.839-71-13a212.361 212.361 0 0 1-55-30Z"/></g><path id="throat" d="M351 648h47l116 77H361Z" style="fill:#db9299;fill-rule:evenodd"/><path id="face" d="M893.567 276.9c-2.419 24.319-6.3 46.185-11.567 65.1-8.392 30.154-20.507 54.522-30 83-7.807 23.421-14.167 46.279-18 66-6.119 31.487-9.218 57.693-20 89-5.641 16.378-11.629 29.715-20 43-15.449 24.519-32.612 39.411-54 56-21.19 16.435-42.255 31.588-64 46H511c-104.843-46.485-192.056-124.966-242-228-78.16-161.242-54.71-361.516 61-521h516c7.145 18.514 24 154 24 154a353.194 353.194 0 0 1 23.567 146.9ZM713 548c-4.136-3-9.609-.257-18 1-4.616.691-15.7-.245-26-2-10.971-1.87-29.172-8.273-47-18-11.228-6.126-18.447-12.606-28-14-25.83-3.768-51.62 18.1-68 37-10.059 11.608-21 29.529-28 55-9.444 34.387-4.474 58.8 2 67a45.139 45.139 0 0 0 20 14c19.649 7.16 37.787-.753 53-5 21.109-5.894 42.765-7.332 62-3 18.4 4.145 33.587 12.649 46 5 9.779-6.026 12.13-18.5 13-23 1.7-8.779 9.038-39.814 11-48 1.583-6.606 5.322-21.773 8-32 2.813-10.743 7.354-28.66 0-34Z" style="fill:#fde6d4;fill-rule:evenodd"/><path id="face_shadow_right" d="M346 300c32.242-10.8 63.463-22.3 95-35 35.4-14.258 69.631-29.4 104-46l38 31a8.734 8.734 0 0 0 9-1 8.907 8.907 0 0 0 2-11l-32-36a662.505 662.505 0 0 0 78-71 662.668 662.668 0 0 0 74-95l-2-47-356 290Z" style="fill:url(#b);fill-rule:evenodd"/><path id="face_shadow_left" d="M893.567 276.9q-1.459 14.667-3.634 28.09c-2.091-30.1-6.7-60.535-14.933-88.993a432.092 432.092 0 0 0-11-33l-34 1a299.576 299.576 0 0 1-43 61l-1 3a56.483 56.483 0 0 1 42 5 55.308 55.308 0 0 1 21 21 67.2 67.2 0 0 0-28 3l-61 17c-1.442 7.319-8.483 10.777-13 9-3.629-1.427-6.231-6.476-5-12a481.213 481.213 0 0 1-79 50 480.676 480.676 0 0 1-65 27l28-29L826 95h39.473c2.7 20.336 4.527 35 4.527 35a353.194 353.194 0 0 1 23.567 146.9Z" style="fill:url(#c);fill-rule:evenodd"/><g id="lines"><path id="frown-line" class="cls-12" d="M616 264c5.4-.459 11.169-1.163 17-2 4.147-.6 8.837-1.35 13-5 2.957-2.593 3.969-5.2 6-9a71.361 71.361 0 0 1 5-8"/><path id="nose" class="cls-12" d="M704 452a43.4 43.4 0 0 0 1 6c.457 1.879 1.1 4.016 0 6a5.434 5.434 0 0 1-2 2"/><path id="eyelids_right" class="cls-12" d="M496 195a233.136 233.136 0 0 1 74 16"/><path id="eyelids_left" class="cls-12" d="M764 270a141.714 141.714 0 0 1 19-9c10.318-3.966 17.058-5.008 24-3a29.39 29.39 0 0 1 12 7"/></g><g id="eye"><g id="left"><g id="iris"><path id="base-4" data-name="base" d="M784 330c-7.131-2.7-15.483 1.158-22 6-9.677 7.19-17.582 20.574-18 47-.235 14.834 4.373 24.576 8 28a21.621 21.621 0 0 0 13 6c7.016.5 14.4-3.151 22-12 3.263-3.8 9.116-17.155 11-33 1.131-9.511.976-17.5-2-26-3.425-9.785-8.867-14.812-12-16Z" style="fill:url(#d);fill-rule:evenodd"/><path id="color_lower" class="cls-14" d="M756 385c-3.438-.984-8.312 4.747-13 12l7 19 25 5 13-13a45.473 45.473 0 0 0-2-11c-1.8-5.724-4.207-8.6-6-9a4.731 4.731 0 0 0-2 0c-2.923.615-3.719 3.773-6 5-3.072 1.652-7.378.75-10-1-3.234-2.158-3.469-6.276-6-7Z"/><path id="color_upper" class="cls-15" d="M795 339c-3.215-.924-7.132 1.085-9 4-3.292 5.137-.47 13.5 5 15 3.3.9 6.74-.844 9-3 2.6-8.06-.752-14.778-5-16Z"/><path id="pupil" class="cls-16" d="M765 374c-.388 3.21.387 5.421 1 6a4.61 4.61 0 0 0 4 1c2.93-.58 4.43-4.094 5-6 .5-1.678 1.478-6.1-1-8a5.541 5.541 0 0 0-6 0c-.863.533-2.521 3.041-3 7Z"/><path id="white_highlight_lower" class="cls-7" d="M749 387c-1.616-1.573-5.258-1.273-7 1a4.8 4.8 0 0 0 0 6 4.529 4.529 0 0 0 5 1c2.946-1.27 3.987-6.066 2-8Z"/><path id="white_highlight_upper" class="cls-7" d="M771 339c4.644 5.369 1.119 15.428-5 20-3.658 2.733-9.889 4.741-14 2-5.845-3.9-5.837-16.338 1-22 5.089-4.215 13.957-4.674 18 0Z"/></g><path id="eyelash_lower" class="cls-17" d="M748 449a73.846 73.846 0 0 0 6 6 78.38 78.38 0 0 0 32 17l-8-8a10.308 10.308 0 0 0 9-2 96.187 96.187 0 0 1-39-13Z"/><path id="white" class="cls-7" d="M832 422c-2.493 4.593-9.149 13.5-15 21-5.741 7.353-11.443 13.74-21 17-7.746 2.642-17.758 2.916-31-2a50.146 50.146 0 0 1-17-10c-5.691-5.294-14.184-20.635-16-43-1.3-16.015.432-36.649 8-61 3.689-11.87 7.877-20.942 13-28 7.249-9.986 25.645-31.525 47-29 12.3 1.455 24.971 10.549 37 34 21.313 41.552 3.905 84.6-5 101Zm-36-76c-3.425-9.785-8.867-14.812-12-16-7.131-2.7-15.483 1.158-22 6-9.678 7.19-17.582 20.574-18 47-.235 14.834 4.373 24.576 8 28a21.621 21.621 0 0 0 13 6c7.016.5 14.4-3.151 22-12 3.263-3.8 9.116-17.155 11-33 1.131-9.511.976-17.5-2-26Z"/><path id="eyelash_upper" d="M748 302a122.686 122.686 0 0 1 26-18c13.577-6.975 25.837-8.839 32-8a42.166 42.166 0 0 1 18 7c9.038 6.191 14.588 15.218 19 28 5.919 17.146 8.516 37.065 8 63-.293 14.739-3.555 25.462-6 40a22.79 22.79 0 0 1-2 6 23.291 23.291 0 0 1-5 6c-5.041 4.2-20.8 18.726-31 28a289.825 289.825 0 0 0 19-26 68.723 68.723 0 0 0 7-14 65.4 65.4 0 0 0 3-12c6.2-39.692 1.394-71.5-6-87-6.605-13.846-13.846-20.181-21-23a34.29 34.29 0 0 0-21-1c-8.271 2.177-13.61 6.965-17 10-5.132 4.593-13.84 11.938-21 18a44.648 44.648 0 0 0 5-8 61.316 61.316 0 0 0 3-8 148.882 148.882 0 0 0 2-7Z" style="fill:url(#e);fill-rule:evenodd"/></g><g id="right"><g id="iris-2" data-name="iris"><path id="base-5" data-name="base" d="M464 279c-4.657 1.236-13.474 5.968-21 16-13.268 17.686-22.145 49.127-7 72 3.983 6.015 14.544 19.057 29 19 10.337-.041 19.66-6.794 27-16 4.04-5.067 11.581-21.618 11-43-.74-27.223-9.287-41.811-17-46-7.835-4.255-16.624-3.427-22-2Z" style="fill:url(#f);fill-rule:evenodd"/><path id="color_lower-2" data-name="color_lower" class="cls-14" d="m452 351-19 15c5.817 16.022 20.982 25.143 35 23 10.328-1.579 18.593-8.954 23-18l-8-19a24.56 24.56 0 0 1-31-1Z"/><path id="color_upper-2" data-name="color_upper" class="cls-15" d="M486 288a10.125 10.125 0 0 0-6 5c-4.263 7.772.933 21.329 9 23a10.22 10.22 0 0 0 8-2c5.263-3.95 5.95-12.276 3-18-2.5-4.843-8.44-9.475-14-8Z"/><path id="pupil-2" data-name="pupil" class="cls-16" d="M463 322c-5.078 3.654-5.125 13.34-1 16a6.2 6.2 0 0 0 6 0c5.6-2.943 6.151-14.375 2-17-2.092-1.323-5.2-.294-7 1Z"/><path id="white_highlight_lower-2" data-name="white_highlight_lower" class="cls-7" d="M436 349c1.442 1.708-.512 7.151-4 8a4.266 4.266 0 0 1-4-1 4.119 4.119 0 0 1-1-4c1.036-3.45 7.448-4.839 9-3Z"/><path id="white_highlight_upper-2" data-name="white_highlight_upper" class="cls-7" d="M455 293c2.026.9 8.737 4.389 9 10 .481 10.267-21.973 22.146-30 16-4.649-3.56-5.46-13.94 0-21 5.264-6.807 14.352-7.957 21-5Z"/></g><path id="eyelash_lower-2" data-name="eyelash_lower" class="cls-17" d="M454 425a122.309 122.309 0 0 0 62 2 21.092 21.092 0 0 1-11 7l9 6a118.674 118.674 0 0 0-14-4c-10.738-2.358-19.281-2.106-30-5a89.787 89.787 0 0 1-16-6Z"/><path id="white-2" data-name="white" class="cls-7" d="M558 369c-10.954 30.476-29.648 48.825-39 54a70.459 70.459 0 0 1-24 8c-24.64.156-48.64-6.5-69-20-17.576-11.653-28.861-24.972-36-38-6.852-12.5-10.322-24.164-11-32-5.4-62.406 86.671-134.857 148-118a67.039 67.039 0 0 1 18 8l11 5c13.953 44.542 16.8 91.823 2 133Zm-55-42c-.74-27.223-9.287-41.811-17-46-7.835-4.255-16.624-3.427-22-2-4.657 1.236-13.474 5.968-21 16-13.268 17.686-22.145 49.127-7 72 3.983 6.015 14.544 19.057 29 19 10.337-.041 19.66-6.794 27-16 4.039-5.067 11.581-21.618 11-43Z"/><path id="eyelash_upper-2" data-name="eyelash_upper" d="M594 259c-14.331-22.8-35-40.061-60-47-31.869-8.846-67.338 1.483-105 30-33.523 25.382-54.786 62.81-63 104 9.185 20.572 22.611 38.02 40 51a119.512 119.512 0 0 0 14 9 91.814 91.814 0 0 1-25-29c-8.662-15.853-11.932-31.255-11-45 .642-9.473 10.822-36 33-60 14.221-15.392 30.275-27.085 40-32 27.725-14.011 54.545-18.262 77-9 6.9 2.848 19.154 11.017 30 23a111.119 111.119 0 0 1 21 34c-1.476-7.1-3.119-14-5-21a372.109 372.109 0 0 0-5-17 61.351 61.351 0 0 1 19 9Z" style="fill:url(#g);fill-rule:evenodd"/></g></g><g id="eyebrow"><path id="left-2" data-name="left" d="M757 263a163.168 163.168 0 0 0-5 12 163.989 163.989 0 0 0-6 20 42.46 42.46 0 0 1 7-14 50.729 50.729 0 0 1 11-10c5.916-3.99 11.394-10.248 18-16 21.829-19.009 52.275-39.551 65-50a62.831 62.831 0 0 1 13-8 55.157 55.157 0 0 1 26-4 55.433 55.433 0 0 0-13-1c-9.976.415-17.825 3.365-25 7a190.792 190.792 0 0 0-29 19c-13.387 11.264-25.937 19.362-39 31a439.157 439.157 0 0 0-22 21 7.756 7.756 0 0 1-1-2 8.208 8.208 0 0 1 0-5Z" style="fill:#9a4d57;fill-rule:evenodd"/><path id="right-2" data-name="right" d="M634 251a30.74 30.74 0 0 1-14 1c-10.637-1.8-17.391-9.145-20-12-15-16.419-33.341-34.541-44-47-8.124-9.5-27.65-25.446-47-39-25.48-17.848-50.506-29.217-68-34a176.78 176.78 0 0 0-35-6 220.506 220.506 0 0 1 40 10c23.758 8.369 48.98 22.078 77 46 37.108 31.68 69.559 78.986 88 84 5.88 1.6 11.839 1.756 17 0a24.94 24.94 0 0 0 6-3Z" style="fill:#986061;fill-rule:evenodd"/></g><g id="hair_center"><g id="leftside"><path id="base-6" data-name="base" class="cls-1" d="M907-6a404.4 404.4 0 0 1 30 137c3.14 77.931-16.691 154.728-56 223a354.71 354.71 0 0 0-11-224V-6h37Z"/><path id="main-2" data-name="main" d="M926.225 240.789Q923.81 249.441 921 258a391.809 391.809 0 0 0-42-169l-4.948-95H907a401.455 401.455 0 0 1 19.225 246.789Z" style="fill:url(#h);fill-rule:evenodd"/><path id="highlight-2" data-name="highlight" d="M908 52a871.729 871.729 0 0 0-23-54l23.25-.894A405.109 405.109 0 0 1 936 114.588q.363 11.184 0 22.412a877.934 877.934 0 0 0-28-85Z" style="fill:#b75e7a;fill-rule:evenodd"/></g><g id="rightside"><path id="base-7" data-name="base" d="M662-2a449.977 449.977 0 0 1-75 128c-26.851 32.131-70.83 71.167-128 106a604.883 604.883 0 0 1-103 50c4.652-67.827 12.693-148.655 20-192 3.966-23.526 9.566-44.229 20-66a223.128 223.128 0 0 1 16-28Z" style="fill:#c877a0;fill-rule:evenodd"/><path id="main-3" data-name="main" d="M361.776 210.1c4.273-46.677 9.408-91.531 14.224-120.1 3.966-23.526 9.566-44.229 20-66a223.128 223.128 0 0 1 16-28l250 2q-7.447 19.456-16.619 38.083L638 49a546.723 546.723 0 0 1-138 108 546.059 546.059 0 0 1-138.224 53.1Z" style="fill:url(#i);fill-rule:evenodd"/><path id="highlight-3" data-name="highlight" class="cls-27" d="M612 22c-13 20.154-30.311 39.677-53 58a268.592 268.592 0 0 1-30 21 2663.883 2663.883 0 0 0 32-38 489.644 489.644 0 0 0 31-41 426.768 426.768 0 0 0 15.1-24.439l18.549.148A229.269 229.269 0 0 1 612 22ZM506 73a1387.592 1387.592 0 0 0-40 47q1.872-13.132 5-26a272.343 272.343 0 0 1 6-21 416.413 416.413 0 0 0-56 12 414.425 414.425 0 0 0-33 11 343.071 343.071 0 0 1 88-99l27.7-.266 74.927.6A1388.559 1388.559 0 0 0 506 73Z"/></g><g id="center"><path id="base-8" data-name="base" d="M878-5a406.693 406.693 0 0 1 5 95c-2.433 37.517-12.361 84.654-33 137a533.064 533.064 0 0 1-53 101 515.746 515.746 0 0 0 12-37c10.313-36.382 17.118-78.307 20-127a729.977 729.977 0 0 0 1-63c-26.139 89.531-77.915 167-154 216a337.276 337.276 0 0 1-78 37 253.28 253.28 0 0 0 30-31c36.435-44.736 48.592-95.9 63-178 5.913-33.692 10.957-66.6 14-97a1121.52 1121.52 0 0 0 4-52c-25.9 62.73-66.633 116.873-120 157a360.341 360.341 0 0 1-84 47 480.419 480.419 0 0 0 44-38 466.6 466.6 0 0 0 73-91 455.338 455.338 0 0 0 39-81Z" style="fill:url(#j);fill-rule:evenodd"/><path id="highlight-4" data-name="highlight" class="cls-27" d="M847 139q3.262-15.359 5-31c2.664-23.993 3.162-45.661 1-63-.649-5.207-2.247-24.32-1-39 .258-3.04.586-6 1-9a103.223 103.223 0 0 1 13 28c3.47 11.928 4.795 39.681-3 70a243.4 243.4 0 0 1-16 44ZM742 59c.545-16.048-.289-29.106 2-45a190.848 190.848 0 0 1 3-16h9c.3 9.782.3 19.315 0 29-1.073 34.488-6.832 63.252-15 82-2.388 5.482-6.056 10.817-9 16a427.406 427.406 0 0 0 6-31c1.946-12.493 3.706-26.342 4-35Zm32-61h43a230.924 230.924 0 0 1 2 22c.854 19.878-1.928 46.78-9 76a403.088 403.088 0 0 1-13 43 60.012 60.012 0 0 0-2-25c-1.614-5.3-5.022-12.533-6-15a225.51 225.51 0 0 1-3-8 56 56 0 0 1-12 7c.4-4.356.726-8.626 1-13 1.2-19.05.773-38.753 0-60-.328-9.008-.666-18.14-1-27Z"/></g></g><g id="hair_rightside"><g id="rear"><path id="base-9" data-name="base" d="M183-4a770.336 770.336 0 0 0-46 130c-37.2 145.572-30.427 298.221 15 447a707.092 707.092 0 0 0 68 149h-28a55.019 55.019 0 0 1-16-15l3 17h-55a334.91 334.91 0 0 1-92-109 327.934 327.934 0 0 1-26-66 471.9 471.9 0 0 0 13 85 341.915 341.915 0 0 0 14 44 313.628 313.628 0 0 0 23 46H28a237.483 237.483 0 0 1-41-51V-4h196Z" style="fill:url(#k);fill-rule:evenodd"/><path id="shadow_lower" d="m-15 603 39.214 59.238Q26.966 670.43 30 678a313.618 313.618 0 0 0 23 46H25a237.483 237.483 0 0 1-41-51v-49Zm193 45a706.67 706.67 0 0 0 39 74h-28a55.019 55.019 0 0 1-16-15l3 17h-55a334.912 334.912 0 0 1-92-109 327.169 327.169 0 0 1-22.68-54.7Q2.586 533.277 1 506a641.7 641.7 0 0 0 76 150 636.64 636.64 0 0 1-34-314 478.123 478.123 0 0 0 73 231l29.683-11.131Q147.309 567.437 149 573a706.715 706.715 0 0 0 29 75Z" style="fill:#220e1a;fill-rule:evenodd"/><path id="shadow_upper" d="M27 85a788.482 788.482 0 0 0-22 93 778.94 778.94 0 0 0-5 33 618.447 618.447 0 0 1-3-46 622.726 622.726 0 0 1 4-90Z" style="fill:#3e1831;fill-rule:evenodd"/><path id="hairband" d="M-15-2v96a120.763 120.763 0 0 0 15-6 120.725 120.725 0 0 0 11-6q8.484 10.948 18 21a280.193 280.193 0 0 0 21 20 456.377 456.377 0 0 0 21-13 455.872 455.872 0 0 0 16-11 635.548 635.548 0 0 0 18 19 636.878 636.878 0 0 0 25 24 1385.412 1385.412 0 0 1 21-67c8.1-23.739 16.64-46.727 26-70a560.612 560.612 0 0 0-35 10 562.922 562.922 0 0 0-46 17 360.552 360.552 0 0 0-14-21 354.147 354.147 0 0 0-9-12 413.134 413.134 0 0 0-30 7 412.383 412.383 0 0 0-20 6L14-2h-29Z" style="fill:#f3efee;fill-rule:evenodd"/></g><g id="front"><path id="base-10" data-name="base" d="M412-2a103.5 103.5 0 0 0-14 23c-4.755 10.779-7.352 24.431-8 29-2.533 17.86-7.169 32.185-10 50-9.652 60.739-17.459 124.877-19 170-1.433 41.963.076 89.463 4 139 1.628 20.553 6.378 59.291 10 90 4.946 41.94 10.038 82.646 18 117a765.591 765.591 0 0 0 34 109h-34a498.07 498.07 0 0 1-19-35 498.302 498.302 0 0 1-16-36 467.365 467.365 0 0 0 22 63c1.309 3.032 2.627 6 4 9H216a579.647 579.647 0 0 1-70-149 951.509 951.509 0 0 0 19 96 944.595 944.595 0 0 0 15 53h-21a512.928 512.928 0 0 1-8-15c-34.747-67.8-63.217-216.515-50-395 8.71-117.625 27.764-203.754 63-284a716.873 716.873 0 0 1 17-36Z" style="fill:url(#l);fill-rule:evenodd"/><path id="shadow-2" data-name="shadow" d="M216 643a653.312 653.312 0 0 0 34 80h-35.93q-4.341-6.692-8.492-13.49Q198.045 690.036 192 670c-7.629-25.3-14.642-61.369-20-97-4.048-26.914-7.594-55.619-9-77a758.377 758.377 0 0 1-1-81c7.874 31.075 14.77 61.255 21 92 10.063 49.664 16.321 88.151 33 136Z" style="fill:#2c1122;fill-rule:evenodd"/><path id="highlight-5" data-name="highlight" d="M350-3H213a368.768 368.768 0 0 0-39 128 109.72 109.72 0 0 1 55-43 4.885 4.885 0 0 1 4-1c-1.448-.311.114-3.356 20 19 11.859 13.333 20.008 26.115 30 43 4.741 8.012 9.372 15.95 14 24a463.128 463.128 0 0 1 7-38c2.984-13.117 8.638-31.959 14-49 5.8-18.439 12.427-38.419 18-52a485.402 485.402 0 0 1 14-31Z" style="fill:#b95e7d;fill-rule:evenodd"/></g></g></svg>