<svg xmlns="http://www.w3.org/2000/svg" width="128" height="128"><defs><linearGradient id="a" x1="101.611" y1="116" x2="27.389" y2="10" gradientUnits="userSpaceOnUse"><stop offset="0" stop-color="gray"/><stop offset="1" stop-color="#fff"/></linearGradient><linearGradient id="b" x1="99.51" y1="114" x2="29.49" y2="14" gradientUnits="userSpaceOnUse"><stop offset="0" stop-color="#e57549"/><stop offset=".499" stop-color="#fb905c"/><stop offset="1" stop-color="#febda9"/></linearGradient><linearGradient id="d" x1="64.672" y1="113.594" x2="64.672" y2="95.938" gradientUnits="userSpaceOnUse"><stop offset="0" stop-color="#eef2f4"/><stop offset=".418" stop-color="#fddbca"/><stop offset=".568" stop-color="#fff"/><stop offset="1" stop-color="#f5fcff"/></linearGradient><linearGradient id="e" x1="85.156" y1="85" x2="43.844" y2="26" gradientUnits="userSpaceOnUse"><stop offset="0" stop-color="#ba2c03"/><stop offset=".741" stop-color="#f18857"/><stop offset=".836" stop-color="#f0d6c4"/><stop offset="1" stop-color="#f0d6c4"/></linearGradient><linearGradient id="f" x1="64.5" y1="85" x2="64.5" y2="26" gradientUnits="userSpaceOnUse"><stop offset="0" stop-color="#eaf0ed"/><stop offset=".451" stop-color="#f9dccb"/><stop offset=".549" stop-color="#fff"/><stop offset=".799" stop-color="#fff9ef"/><stop offset="1" stop-color="#f4fff6"/></linearGradient><radialGradient id="c" cx="64.5" cy="64" r="61.039" gradientUnits="userSpaceOnUse"><stop offset="0" stop-color="#3e383f" stop-opacity="0"/><stop offset=".747" stop-color="#3e383f" stop-opacity="0"/><stop offset=".898" stop-color="#3e383f"/><stop offset="1" stop-color="#3e383f"/></radialGradient></defs><path d="M107 96c-10.351 13.118-26.4 20.1-43 20-18.671-.772-36.466-9.3-46-25-4.267-7.03-7.04-16.068-7-27 .046-12.479 4.3-28.3 17-40a53.473 53.473 0 0 1 36-14 56 56 0 0 1 32 11c11.376 8.531 22 23.68 22 43a51.811 51.811 0 0 1-11 32z" transform="translate(-.5 -.25)" style="fill-rule:evenodd;stroke-width:2px;stroke:url(#a);stroke-linecap:round;stroke-linejoin:round;fill:none"/><path d="M107 96c-10.351 13.118-26.4 20.1-43 20-18.671-.772-36.466-9.3-46-25-4.267-7.03-7.04-16.068-7-27 .046-12.479 4.3-28.3 17-40a53.473 53.473 0 0 1 36-14 56 56 0 0 1 32 11c11.376 8.531 22 23.68 22 43a51.811 51.811 0 0 1-11 32z" transform="translate(-.5 -.25)" style="fill:#fbfbfe;fill-rule:evenodd"/><path d="M64 14c-27.073.444-48.976 22.066-50 48-1.081 27.37 21.407 51.487 50 52 29.007.024 52.093-24.314 51-52-1.036-26.251-23.518-48.066-51-48z" transform="translate(-.5 -.25)" style="fill:url(#b);fill-rule:evenodd"/><path d="M105.563 68.06h-1.018a5.288 5.288 0 0 1-4.07-2.005 5 5 0 0 1-1.017-3.008 5.382 5.382 0 0 1 3.052 1 5.259 5.259 0 0 1 2.035 3.008h1.018a5.259 5.259 0 0 1 2.037-3.005 5.381 5.381 0 0 1 3.052-1 5 5 0 0 1-1.017 3.008 5.288 5.288 0 0 1-4.072 2.002zm.419-6.135-1 .168a5.314 5.314 0 0 1-4.354-1.3 5.026 5.026 0 0 1-1.515-2.8 5.4 5.4 0 0 1 3.18.484 5.3 5.3 0 0 1 2.518 2.629l1-.168a5.225 5.225 0 0 1 1.494-3.3 5.351 5.351 0 0 1 2.838-1.493 4.973 4.973 0 0 1-.491 3.133 5.254 5.254 0 0 1-3.67 2.647zm-1.59-6.265-.962.328a5.327 5.327 0 0 1-4.512-.583 5.057 5.057 0 0 1-1.96-2.514 5.4 5.4 0 0 1 3.218-.036 5.332 5.332 0 0 1 2.921 2.186l.962-.328a5.2 5.2 0 0 1 .925-3.5 5.318 5.318 0 0 1 2.551-1.931 4.972 4.972 0 0 1 .037 3.17 5.221 5.221 0 0 1-3.18 3.209zm-1.582-5.377-.893.479a5.332 5.332 0 0 1-4.548.154 5.092 5.092 0 0 1-2.352-2.164 5.364 5.364 0 0 1 6.414 1.129l.894-.479a5.2 5.2 0 0 1 .329-3.6 5.287 5.287 0 0 1 2.2-2.317 4.978 4.978 0 0 1 .564 3.121 5.183 5.183 0 0 1-2.608 3.678zm-4.44-4.845a5.322 5.322 0 0 1-4.463.875 5.126 5.126 0 0 1-2.675-1.761 5.369 5.369 0 0 1 6.514.095l.8-.615a5.194 5.194 0 0 1-.264-3.605 5.248 5.248 0 0 1 1.787-2.636 5 5 0 0 1 1.068 2.991 5.153 5.153 0 0 1-1.968 4.043zm-3.552-6.414a5.3 5.3 0 0 1-4.257 1.585 5.156 5.156 0 0 1-2.933-1.3 5.351 5.351 0 0 1 2.819-1.529 5.414 5.414 0 0 1 3.623.569l.691-.736a5.169 5.169 0 0 1 .463-6.4 5.026 5.026 0 0 1 1.551 2.778 5.131 5.131 0 0 1-1.267 4.306zm-4.141-4.358a5.293 5.293 0 0 1-3.934 2.264 5.165 5.165 0 0 1-3.109-.8 5.34 5.34 0 0 1 2.525-1.972 5.416 5.416 0 0 1 3.668-.036l.558-.84a5.169 5.169 0 0 1-.61-6.391 5.039 5.039 0 0 1 1.993 2.483 5.127 5.127 0 0 1-.533 4.456zm-4.558-3.754a5.282 5.282 0 0 1-3.519 2.863 5.169 5.169 0 0 1-3.2-.3 5.325 5.325 0 0 1 2.175-2.349 5.413 5.413 0 0 1 3.614-.621l.416-.918a5.173 5.173 0 0 1-1.632-6.211 5.051 5.051 0 0 1 2.367 2.133 5.125 5.125 0 0 1 .193 4.483zm-5.6-2.493a5.268 5.268 0 0 1-2.984 3.41 5.169 5.169 0 0 1-3.2.242 5.313 5.313 0 0 1 1.746-2.68 5.407 5.407 0 0 1 3.458-1.217l.254-.975a5.18 5.18 0 0 1-2.659-5.85 5.063 5.063 0 0 1 2.694 1.707 5.129 5.129 0 0 1 .948 4.387zm-8.393 1.85a5.165 5.165 0 0 1-3.116.776 5.3 5.3 0 0 1 1.267-2.934 5.4 5.4 0 0 1 3.2-1.779l.086-1a5.19 5.19 0 0 1-3.612-5.32 5.074 5.074 0 0 1 2.949 1.227 5.135 5.135 0 0 1 1.677 4.161l-.086 1a5.256 5.256 0 0 1-2.363 3.869zm-14.5-2.383a5.332 5.332 0 0 1 1.264 2.943 5.132 5.132 0 0 1-3.109-.778 5.276 5.276 0 0 1-2.358-3.874l-.081-1.007a5.166 5.166 0 0 1 1.674-4.178 5.049 5.049 0 0 1 2.938-1.235 5.206 5.206 0 0 1-3.6 5.337l.082 1.006a5.376 5.376 0 0 1 3.194 1.786zm-5.788 1.285a5.331 5.331 0 0 1 1.742 2.688 5.134 5.134 0 0 1-3.2-.243 5.276 5.276 0 0 1-2.969-3.416l-.254-.978a5.166 5.166 0 0 1 .946-4.4 5.05 5.05 0 0 1 2.689-1.722 5.206 5.206 0 0 1-2.654 5.868l.254.978a5.377 5.377 0 0 1 3.45 1.225zm-5.487 1.742a5.331 5.331 0 0 1 2.17 2.357 5.132 5.132 0 0 1-3.192.3 5.276 5.276 0 0 1-3.51-2.871l-.415-.921a5.166 5.166 0 0 1 .192-4.5 5.049 5.049 0 0 1 2.362-2.14 5.206 5.206 0 0 1-1.629 6.23l.415.921a5.376 5.376 0 0 1 3.612.624zm-4.571 3.036a5.331 5.331 0 0 1 2.52 1.978 5.132 5.132 0 0 1-3.1.806 5.276 5.276 0 0 1-3.925-2.271l-.557-.843a5.166 5.166 0 0 1-.531-4.469 5.049 5.049 0 0 1 1.988-2.491 5.206 5.206 0 0 1-.608 6.411l.557.843a5.377 5.377 0 0 1 3.66.036zm-7.893 4.2a5.331 5.331 0 0 1 6.428.963 5.132 5.132 0 0 1-2.926 1.309 5.276 5.276 0 0 1-4.247-1.59l-.686-.731a5.166 5.166 0 0 1-1.265-4.32 5.049 5.049 0 0 1 1.549-2.79 5.206 5.206 0 0 1 .462 6.423zm-.2 5.171a5.349 5.349 0 0 1 3.029 1.055 5.112 5.112 0 0 1-2.669 1.767 5.288 5.288 0 0 1-4.453-.877l-.8-.617a5.181 5.181 0 0 1-1.958-4.048 5.032 5.032 0 0 1 1.065-3 5.213 5.213 0 0 1 1.52 6.261l.8.617a5.366 5.366 0 0 1 3.479-1.155zm-3.909 4.711a5.361 5.361 0 0 1 3.161.557 5.091 5.091 0 0 1-2.347 2.17 5.293 5.293 0 0 1-4.538-.154l-.892-.48a5.2 5.2 0 0 1-2.6-3.688 5.021 5.021 0 0 1 .563-3.131 5.226 5.226 0 0 1 2.52 5.936l.892.48a5.349 5.349 0 0 1 3.25-1.687zm-5.852 6.539.959.33a5.321 5.321 0 0 1 6.125-2.157 5.068 5.068 0 0 1-1.956 2.522 5.291 5.291 0 0 1-4.5.585l-.959-.329A5.222 5.222 0 0 1 20.42 52.3a5.016 5.016 0 0 1 .037-3.18A5.311 5.311 0 0 1 23 51.061a5.245 5.245 0 0 1 .926 3.509zm-1.749 6.243 1 .169a5.3 5.3 0 0 1 2.513-2.637 5.361 5.361 0 0 1 3.173-.485 5.047 5.047 0 0 1-1.512 2.806 5.282 5.282 0 0 1-4.344 1.308l-1-.169a5.245 5.245 0 0 1-3.663-2.658 5.02 5.02 0 0 1-.49-3.147 5.333 5.333 0 0 1 2.832 1.5 5.26 5.26 0 0 1 1.491 3.313zm.248 6.14h1.015a5.28 5.28 0 0 1 2.03-3.017 5.35 5.35 0 0 1 3.046-1.006 5.031 5.031 0 0 1-1.016 3.017 5.265 5.265 0 0 1-4.061 2.011h-1.014a5.265 5.265 0 0 1-4.061-2.011 5.031 5.031 0 0 1-1.015-3.017 5.35 5.35 0 0 1 3.046 1.006 5.28 5.28 0 0 1 2.03 3.017zm-2.247 3.453a5.3 5.3 0 0 1 2.506 2.643l1-.166a5.259 5.259 0 0 1 1.5-3.308 5.333 5.333 0 0 1 2.836-1.49 5.02 5.02 0 0 1-.5 3.142 5.245 5.245 0 0 1-3.669 2.649l-1 .166a5.281 5.281 0 0 1-4.341-1.319 5.047 5.047 0 0 1-1.5-2.809 5.362 5.362 0 0 1 3.168.492zm1.95 6.429a5.326 5.326 0 0 1 2.91 2.2l.962-.326a5.245 5.245 0 0 1 .931-3.507 5.311 5.311 0 0 1 2.551-1.931 5.017 5.017 0 0 1 .029 3.18 5.223 5.223 0 0 1-3.181 3.209l-.96.327a5.291 5.291 0 0 1-4.5-.6 5.068 5.068 0 0 1-1.949-2.527 5.365 5.365 0 0 1 3.207-.025zm2.072 6.388a5.348 5.348 0 0 1 3.232 1.7l.894-.477a5.227 5.227 0 0 1 2.543-5.926 5.02 5.02 0 0 1 .551 3.133 5.2 5.2 0 0 1-2.612 3.678l-.894.477a5.293 5.293 0 0 1-4.538.137 5.09 5.09 0 0 1-2.338-2.179 5.36 5.36 0 0 1 3.162-.543zm6.666 6.51.8-.614a5.214 5.214 0 0 1 1.539-6.257 5.032 5.032 0 0 1 1.057 3 5.181 5.181 0 0 1-1.975 4.05l-.8.614a5.288 5.288 0 0 1-4.456.865 5.113 5.113 0 0 1-2.664-1.775 5.334 5.334 0 0 1 6.499.117zm.848 4.167a5.376 5.376 0 0 1 3.614.575l.69-.738a5.206 5.206 0 0 1 .471-6.422 5.049 5.049 0 0 1 1.544 2.785 5.166 5.166 0 0 1-1.27 4.318l-.69.738a5.276 5.276 0 0 1-4.249 1.584 5.132 5.132 0 0 1-2.924-1.309 5.331 5.331 0 0 1 2.814-1.531zm4.4 4.3a5.38 5.38 0 0 1 3.66-.034l.555-.842a5.206 5.206 0 0 1-.624-6.41 5.07 5.07 0 0 1 1.995 2.495 5.157 5.157 0 0 1-.521 4.468l-.555.842a5.26 5.26 0 0 1-3.921 2.268 5.15 5.15 0 0 1-3.105-.808 5.308 5.308 0 0 1 2.518-1.979zm52.126-7.255a5.169 5.169 0 0 1-.626 6.39l.556.839a5.419 5.419 0 0 1 3.669.034 5.317 5.317 0 0 1 2.521 1.97 5.182 5.182 0 0 1-3.112.806 5.275 5.275 0 0 1-3.929-2.261l-.556-.839a5.118 5.118 0 0 1-.522-4.454 5.06 5.06 0 0 1 2.001-2.482zm2.951 3.495a5.132 5.132 0 0 1-1.273-4.3 5.026 5.026 0 0 1 1.548-2.779 5.169 5.169 0 0 1 .472 6.4l.693.739a5.414 5.414 0 0 1 3.622-.573 5.352 5.352 0 0 1 2.821 1.525 5.156 5.156 0 0 1-2.931 1.309 5.3 5.3 0 0 1-4.259-1.579zm4.483-4.494a5.155 5.155 0 0 1-1.974-4.034 5 5 0 0 1 1.059-2.994 5.248 5.248 0 0 1 1.8 2.631 5.194 5.194 0 0 1-.253 3.606l.794.612a5.368 5.368 0 0 1 6.514-.113 5.124 5.124 0 0 1-2.67 1.769 5.323 5.323 0 0 1-4.466-.862zm4.386-4.092-.9-.475a5.186 5.186 0 0 1-2.618-3.667 4.982 4.982 0 0 1 .552-3.123A5.284 5.284 0 0 1 99.3 80.9a5.2 5.2 0 0 1 .344 3.6l.9.475a5.363 5.363 0 0 1 6.409-1.153 5.088 5.088 0 0 1-2.343 2.172 5.33 5.33 0 0 1-4.548-.137zm2.552-5.806-.962-.326a5.221 5.221 0 0 1-3.189-3.2 4.976 4.976 0 0 1 .029-3.17 5.321 5.321 0 0 1 2.557 1.925 5.206 5.206 0 0 1 .933 3.5l.962.326a5.337 5.337 0 0 1 2.917-2.193 5.4 5.4 0 0 1 3.217.029 5.059 5.059 0 0 1-1.954 2.519 5.326 5.326 0 0 1-4.508.593zm2.521-5.927-1-.166a5.256 5.256 0 0 1-3.678-2.64 4.982 4.982 0 0 1-.5-3.132 5.358 5.358 0 0 1 2.843 1.486 5.236 5.236 0 0 1 1.5 3.3l1 .166a5.3 5.3 0 0 1 2.512-2.635 5.4 5.4 0 0 1 3.179-.492 5.025 5.025 0 0 1-1.508 2.8 5.314 5.314 0 0 1-4.346 1.316z" transform="translate(-.5 -.25)" style="fill:#ffcfbc;fill-rule:evenodd"/><path d="M64 14c-27.073.444-48.976 22.066-50 48-1.081 27.37 21.407 51.487 50 52 29.007.024 52.093-24.314 51-52-1.036-26.251-23.518-48.066-51-48z" transform="translate(-.5 -.25)" style="fill:url(#c);fill-rule:evenodd"/><path d="M117 111h-17V94h17v1l-7 8 7 7v1zm-105-1 7-7-7-8v-1h19v17H12v-1z" transform="translate(-.5 -.25)" style="stroke-width:1px;fill:#c12d07;stroke:#91320e;fill-rule:evenodd;stroke-linecap:round;stroke-linejoin:round"/><path d="M20 98h5a747.02 747.02 0 0 0 39 1c7.056 0 15.792-.027 20.488-.272C90.825 98.4 97.118 98 103 98h5v17a243.743 243.743 0 0 1-44 4 243.743 243.743 0 0 1-44-4V98z" transform="translate(-.5 -.25)" style="fill:#dd4d23;stroke:#8f3401;stroke-width:1px;fill-rule:evenodd;stroke-linecap:round;stroke-linejoin:round"/><path d="M44.866 99.974q0-4.043-6.258-4.043h-6.48l-4.078 17.661h3.89l1.547-6.727h2.5l3.973 6.727h4.406l-4.539-7.492q5.039-1.953 5.039-6.126zm-7.559-1.336a4.779 4.779 0 0 1 2.766.551 1.865 1.865 0 0 1 .691 1.547 3.367 3.367 0 0 1-.633 2.069 3.068 3.068 0 0 1-1.594 1.142 8.578 8.578 0 0 1-2.449.293h-2.015l1.3-5.6h1.934zm21.353-2.706h-4.29l-10.77 17.66h4.125l2.25-3.868H56.9l.457 3.868h3.867zm-7.125 11.121 4.172-7.161.867 7.161h-5.039zM78.57 95.932l-2.625 11.391-4.711-11.391h-4.312l-4.078 17.661h3.609l2.953-12.786 5.285 12.786H78.1l4.078-17.66H78.57zm18.059 0-8.789 8.3 1.922-8.3h-3.891l-4.078 17.661h3.867L87 107.8l1.758-1.582 4.406 7.371h4.395l-5.508-9.141 9.246-8.519h-4.668z" transform="translate(-.5 -.25)" style="stroke:#c03a00;stroke-width:4px;fill-rule:evenodd;fill:none"/><path d="M44.866 99.974q0-4.043-6.258-4.043h-6.48l-4.078 17.661h3.89l1.547-6.727h2.5l3.973 6.727h4.406l-4.539-7.492q5.039-1.956 5.039-6.129zm-7.559-1.336a4.779 4.779 0 0 1 2.766.551 1.865 1.865 0 0 1 .691 1.547 3.367 3.367 0 0 1-.633 2.069 3.068 3.068 0 0 1-1.594 1.142 8.578 8.578 0 0 1-2.449.293h-2.015l1.3-5.6h1.934zm21.353-2.706h-4.29l-10.77 17.66h4.125l2.25-3.868H56.9l.457 3.868h3.867zm-7.125 11.121 4.172-7.161.867 7.161h-5.039zM78.57 95.932l-2.625 11.391-4.711-11.391h-4.312l-4.078 17.661h3.609l2.953-12.786 5.285 12.786H78.1l4.078-17.66H78.57zm18.059 0-8.789 8.3 1.922-8.3h-3.891l-4.078 17.661h3.867L87 107.8l1.758-1.582 4.406 7.371h4.395l-5.508-9.141 9.246-8.519h-4.668z" transform="translate(-.5 -.25)" style="fill:url(#d);fill-rule:evenodd"/><path d="M66 26 36 85h14l6-14h21l2 14h14l-9-59H66zm7 14h-2l-8 19h12z" transform="translate(-.5 -.25)" style="stroke-width:6px;stroke:url(#e);fill-rule:evenodd;stroke-linecap:round;stroke-linejoin:round;fill:none"/><path d="M66 26 36 85h14l6-14h21l2 14h14l-9-59H66zm7 14h-2l-8 19h12z" transform="translate(-.5 -.25)" style="fill:url(#f);fill-rule:evenodd"/></svg>