<svg xmlns="http://www.w3.org/2000/svg" xmlns:xlink="http://www.w3.org/1999/xlink" width="128" height="128"><defs><linearGradient id="b" x1="101.611" y1="116" x2="27.389" y2="10" gradientUnits="userSpaceOnUse"><stop offset="0" stop-color="gray"/><stop offset="1" stop-color="#fff"/></linearGradient><linearGradient id="c" x1="99.51" y1="114" x2="29.49" y2="14" gradientUnits="userSpaceOnUse"><stop offset="0" stop-color="#7e5fbf"/><stop offset=".501" stop-color="#9b81cf"/><stop offset="1" stop-color="#dcccfe"/></linearGradient><linearGradient id="e" x1="64.672" y1="113.594" x2="64.672" y2="95.938" gradientUnits="userSpaceOnUse"><stop offset="0" stop-color="#f9f9f9"/><stop offset=".451" stop-color="#e7e1f1"/><stop offset=".501" stop-color="#fff"/><stop offset="1" stop-color="#fbf9fa"/></linearGradient><linearGradient id="f" x1="77.656" y1="85" x2="36.344" y2="26" gradientUnits="userSpaceOnUse"><stop offset="0" stop-color="#594784"/><stop offset=".848" stop-color="#8d78c3"/><stop offset=".948" stop-color="#e1dded"/><stop offset="1" stop-color="#e1dded"/></linearGradient><linearGradient id="a" x1="57" y1="85" x2="57" y2="26" gradientUnits="userSpaceOnUse"><stop offset="0" stop-color="#f3f3f2"/><stop offset=".451" stop-color="#e0d8ef"/><stop offset=".549" stop-color="#fff"/><stop offset=".799" stop-color="#ece9f4"/><stop offset="1" stop-color="#f0edf7"/></linearGradient><linearGradient id="g" x1="106.353" y1="64" x2="84.647" y2="33" gradientUnits="userSpaceOnUse"><stop offset="0" stop-color="#594784"/><stop offset=".781" stop-color="#8d78c3"/><stop offset=".9" stop-color="#e1dded"/><stop offset="1" stop-color="#e1dded"/></linearGradient><linearGradient id="h" x1="95.5" y1="64" x2="95.5" y2="33" xlink:href="#a"/><radialGradient id="d" cx="64.5" cy="64" r="61.039" gradientUnits="userSpaceOnUse"><stop offset="0" stop-color="#3e383f" stop-opacity="0"/><stop offset=".747" stop-color="#3e383f" stop-opacity="0"/><stop offset=".898" stop-color="#3e383f"/><stop offset="1" stop-color="#3e383f"/></radialGradient></defs><path d="M107 96c-10.351 13.118-26.4 20.1-43 20-18.671-.772-36.466-9.3-46-25-4.267-7.03-7.04-16.068-7-27 .046-12.479 4.3-28.3 17-40a53.473 53.473 0 0 1 36-14 56 56 0 0 1 32 11c11.376 8.531 22 23.68 22 43a51.811 51.811 0 0 1-11 32Z" transform="translate(-.5 -.25)" style="fill-rule:evenodd;stroke-width:2px;stroke:url(#b);stroke-linecap:round;stroke-linejoin:round;fill:none"/><path d="M107 96c-10.351 13.118-26.4 20.1-43 20-18.671-.772-36.466-9.3-46-25-4.267-7.03-7.04-16.068-7-27 .046-12.479 4.3-28.3 17-40a53.473 53.473 0 0 1 36-14 56 56 0 0 1 32 11c11.376 8.531 22 23.68 22 43a51.811 51.811 0 0 1-11 32Z" transform="translate(-.5 -.25)" style="fill:#fbfbfe;fill-rule:evenodd"/><path d="M64 14c-27.073.444-48.976 22.066-50 48-1.081 27.37 21.407 51.487 50 52 29.007.024 52.093-24.314 51-52-1.036-26.251-23.518-48.066-51-48Z" transform="translate(-.5 -.25)" style="fill:url(#c);fill-rule:evenodd"/><path d="M64 14c-27.073.444-48.976 22.066-50 48-1.081 27.37 21.407 51.487 50 52 29.007.024 52.093-24.314 51-52-1.036-26.251-23.518-48.066-51-48Z" transform="translate(-.5 -.25)" style="fill:url(#d);fill-rule:evenodd"/><path d="M117 111h-17V94h17v1l-7 8 7 7v1Zm-105-1 7-7-7-8v-1h19v17H12v-1Z" transform="translate(-.5 -.25)" style="stroke-width:1px;fill:#5d468a;stroke:#524274;fill-rule:evenodd;stroke-linecap:round;stroke-linejoin:round"/><path d="M20 98h5a747.02 747.02 0 0 0 39 1c7.056 0 15.792-.027 20.488-.272C90.825 98.4 97.118 98 103 98h5v17a243.743 243.743 0 0 1-44 4 243.743 243.743 0 0 1-44-4V98Z" transform="translate(-.5 -.25)" style="fill:#6f55a7;stroke:#564183;stroke-width:1px;fill-rule:evenodd;stroke-linecap:round;stroke-linejoin:round"/><path d="M44.866 99.974q0-4.043-6.258-4.043h-6.48l-4.078 17.661h3.89l1.547-6.727h2.5l3.973 6.727h4.406l-4.539-7.492q5.039-1.956 5.039-6.129Zm-7.559-1.336a4.779 4.779 0 0 1 2.766.551 1.865 1.865 0 0 1 .691 1.547 3.367 3.367 0 0 1-.633 2.069 3.068 3.068 0 0 1-1.594 1.142 8.578 8.578 0 0 1-2.449.293h-2.015l1.3-5.6h1.934Zm21.353-2.706h-4.29l-10.77 17.66h4.125l2.25-3.868H56.9l.457 3.868h3.867Zm-7.125 11.121 4.172-7.161.867 7.161h-5.039ZM78.57 95.932l-2.625 11.391-4.711-11.391h-4.312l-4.078 17.661h3.609l2.953-12.786 5.285 12.786H78.1l4.078-17.66H78.57Zm18.059 0-8.789 8.3 1.922-8.3h-3.891l-4.078 17.661h3.867L87 107.8l1.758-1.582 4.406 7.371h4.395l-5.508-9.141 9.246-8.519h-4.668Z" transform="translate(-.5 -.25)" style="stroke:#5d4a8b;stroke-width:4px;fill-rule:evenodd;fill:none"/><path d="M44.866 99.974q0-4.043-6.258-4.043h-6.48l-4.078 17.661h3.89l1.547-6.727h2.5l3.973 6.727h4.406l-4.539-7.492q5.039-1.956 5.039-6.129Zm-7.559-1.336a4.779 4.779 0 0 1 2.766.551 1.865 1.865 0 0 1 .691 1.547 3.367 3.367 0 0 1-.633 2.069 3.068 3.068 0 0 1-1.594 1.142 8.578 8.578 0 0 1-2.449.293h-2.015l1.3-5.6h1.934Zm21.353-2.706h-4.29l-10.77 17.66h4.125l2.25-3.868H56.9l.457 3.868h3.867Zm-7.125 11.121 4.172-7.161.867 7.161h-5.039ZM78.57 95.932l-2.625 11.391-4.711-11.391h-4.312l-4.078 17.661h3.609l2.953-12.786 5.285 12.786H78.1l4.078-17.66H78.57Zm18.059 0-8.789 8.3 1.922-8.3h-3.891l-4.078 17.661h3.867L87 107.8l1.758-1.582 4.406 7.371h4.395l-5.508-9.141 9.246-8.519h-4.668Z" transform="translate(-.5 -.25)" style="fill:url(#e);fill-rule:evenodd"/><path d="M43 26h39l-2 11H54l-2 14h22l-2 12H50l-4 22H32Z" transform="translate(-.5 -.25)" style="stroke:url(#f);stroke-width:6px;fill-rule:evenodd;stroke-linecap:round;stroke-linejoin:round;fill:none"/><path d="M43 26h39l-2 11H54l-2 14h22l-2 12H50l-4 22H32Z" transform="translate(-.5 -.25)" style="fill:url(#a);fill-rule:evenodd"/><path d="M108 53h-8v8a3 3 0 0 1-3 3h-3a3 3 0 0 1-3-3v-8h-8a3 3 0 0 1-3-3v-3a3 3 0 0 1 3-3h8v-8a3 3 0 0 1 3-3h3a3 3 0 0 1 3 3v8h8a3 3 0 0 1 3 3v3a3 3 0 0 1-3 3Z" transform="translate(-.5 -.25)" style="stroke:url(#g);stroke-width:6px;fill-rule:evenodd;stroke-linecap:round;stroke-linejoin:round;fill:none"/><path d="M108 53h-8v8a3 3 0 0 1-3 3h-3a3 3 0 0 1-3-3v-8h-8a3 3 0 0 1-3-3v-3a3 3 0 0 1 3-3h8v-8a3 3 0 0 1 3-3h3a3 3 0 0 1 3 3v8h8a3 3 0 0 1 3 3v3a3 3 0 0 1-3 3Z" transform="translate(-.5 -.25)" style="fill:url(#h);fill-rule:evenodd"/></svg>