<svg xmlns="http://www.w3.org/2000/svg" xmlns:xlink="http://www.w3.org/1999/xlink" width="128" height="128"><defs><linearGradient id="a" x1="58.5" y1="112" x2="58.5" y2="20" gradientUnits="userSpaceOnUse"><stop offset="0" stop-color="#8f3e17"/><stop offset="1" stop-color="#da6d2b"/></linearGradient><linearGradient id="b" x1="58.5" y1="112" x2="58.5" y2="20" gradientUnits="userSpaceOnUse"><stop offset="0" stop-color="#f0934d"/><stop offset="1" stop-color="#f9e0b6"/></linearGradient><linearGradient id="c" x1="98" y1="49" x2="98" y2="16" xlink:href="#a"/><linearGradient id="d" x1="98" y1="49" x2="98" y2="16" xlink:href="#b"/></defs><path d="m82 112-8-21H43l-6 21H14l31-92h28l30 92H82zM60 40h-3l-8 34h19z" style="stroke:url(#a);fill-rule:evenodd;fill:none;stroke-linecap:round;stroke-linejoin:round;stroke-width:12px"/><path d="m82 112-8-21H43l-6 21H14l31-92h28l30 92H82zM60 40h-3l-8 34h19z" style="fill:url(#b);fill-rule:evenodd"/><path d="M93 16h10v12h12v10h-12v11H93V38H81V28h12V16z" style="stroke:url(#c);fill-rule:evenodd;fill:none;stroke-linecap:round;stroke-linejoin:round;stroke-width:12px"/><path d="M93 16h10v12h12v10h-12v11H93V38H81V28h12V16z" style="fill:url(#d);fill-rule:evenodd"/></svg>