<svg xmlns="http://www.w3.org/2000/svg" xmlns:xlink="http://www.w3.org/1999/xlink" width="128" height="128"><defs><linearGradient id="a" x1="49.5" y1="112" x2="49.5" y2="19" gradientUnits="userSpaceOnUse"><stop offset="0" stop-color="#702e90"/><stop offset="1" stop-color="#c76fec"/></linearGradient><linearGradient id="b" x1="49.5" y1="112" x2="49.5" y2="19" gradientUnits="userSpaceOnUse"><stop offset="0" stop-color="#ca7dec"/><stop offset="1" stop-color="#f1dafc"/></linearGradient><linearGradient id="c" x1="95" y1="49" x2="95" y2="16" xlink:href="#a"/><linearGradient id="d" x1="95" y1="49" x2="95" y2="16" xlink:href="#b"/></defs><path d="M16 19h63v17H36v20h38v17H36v22h47v17H16V19z" style="stroke:url(#a);fill-rule:evenodd;fill:none;stroke-linecap:round;stroke-linejoin:round;stroke-width:12px"/><path d="M16 19h63v17H36v20h38v17H36v22h47v17H16V19z" style="fill:url(#b);fill-rule:evenodd"/><path d="M90 16h10v12h12v10h-12v11H90V38H78V28h12V16z" style="stroke:url(#c);fill-rule:evenodd;fill:none;stroke-linecap:round;stroke-linejoin:round;stroke-width:12px"/><path d="M90 16h10v12h12v10h-12v11H90V38H78V28h12V16z" style="fill:url(#d);fill-rule:evenodd"/></svg>