<svg xmlns="http://www.w3.org/2000/svg" xmlns:xlink="http://www.w3.org/1999/xlink" width="128" height="128"><defs><linearGradient id="a" x1="52.703" y1="113" x2="52.703" y2="20" gradientUnits="userSpaceOnUse"><stop offset="0" stop-color="#912a40"/><stop offset="1" stop-color="#f08fa8"/></linearGradient><linearGradient id="b" x1="52.703" y1="113" x2="52.703" y2="20" gradientUnits="userSpaceOnUse"><stop offset="0" stop-color="#ed84a3"/><stop offset="1" stop-color="#f7d1db"/></linearGradient><linearGradient id="c" x1="95" y1="49" x2="95" y2="16" xlink:href="#a"/><linearGradient id="d" x1="95" y1="49" x2="95" y2="16" xlink:href="#b"/></defs><path d="M81 57a20.567 20.567 0 0 1-10 6 21.874 21.874 0 0 1 11 5c8.177 7.109 7.781 17.5 7 22-1.9 10.916-11.755 20.576-26 23H16V20h45c11.582.067 20.99 6.879 24 16 1.811 5.488 2.067 14.28-4 21zM52 35H37v23h15a11.511 11.511 0 0 0 0-23zm3 36H37v26h18a13.038 13.038 0 0 0 0-26z" transform="translate(0 -.5)" style="stroke:url(#a);fill-rule:evenodd;fill:none;stroke-linecap:round;stroke-linejoin:round;stroke-width:12px"/><path d="M81 57a20.567 20.567 0 0 1-10 6 21.874 21.874 0 0 1 11 5c8.177 7.109 7.781 17.5 7 22-1.9 10.916-11.755 20.576-26 23H16V20h45c11.582.067 20.99 6.879 24 16 1.811 5.488 2.067 14.28-4 21zM52 35H37v23h15a11.511 11.511 0 0 0 0-23zm3 36H37v26h18a13.038 13.038 0 0 0 0-26z" transform="translate(0 -.5)" style="fill:url(#b);fill-rule:evenodd"/><path d="M90 16h10v12h12v10h-12v11H90V38H78V28h12V16z" transform="translate(0 -.5)" style="stroke:url(#c);fill-rule:evenodd;fill:none;stroke-linecap:round;stroke-linejoin:round;stroke-width:12px"/><path data-name="b-plus" d="M90 16h10v12h12v10h-12v11H90V38H78V28h12V16z" transform="translate(0 -.5)" style="fill:url(#d);fill-rule:evenodd"/></svg>