<svg xmlns="http://www.w3.org/2000/svg" width="128" height="128"><defs><linearGradient id="a" x1="63.703" y1="111" x2="63.703" y2="18" gradientUnits="userSpaceOnUse"><stop offset="0" stop-color="#912a40"/><stop offset="1" stop-color="#f08fa8"/></linearGradient><linearGradient id="b" x1="63.703" y1="111" x2="63.703" y2="18" gradientUnits="userSpaceOnUse"><stop offset="0" stop-color="#ed84a3"/><stop offset="1" stop-color="#f7d1db"/></linearGradient></defs><path d="M92 55a20.567 20.567 0 0 1-10 6 21.874 21.874 0 0 1 11 5c8.177 7.109 7.781 17.5 7 22-1.9 10.917-11.755 20.576-26 23H27V18h45c11.582.067 20.99 6.879 24 16 1.811 5.488 2.067 14.28-4 21ZM63 33H48v23h15a11.511 11.511 0 0 0 0-23Zm3 36H48v26h18a13.038 13.038 0 0 0 0-26Z" transform="translate(.313 -.5)" style="fill-rule:evenodd;fill:none;stroke-linecap:round;stroke-linejoin:round;stroke-width:12px;stroke:url(#a)"/><path d="M92 55a20.567 20.567 0 0 1-10 6 21.874 21.874 0 0 1 11 5c8.177 7.109 7.781 17.5 7 22-1.9 10.917-11.755 20.576-26 23H27V18h45c11.582.067 20.99 6.879 24 16 1.811 5.488 2.067 14.28-4 21ZM63 33H48v23h15a11.511 11.511 0 0 0 0-23Zm3 36H48v26h18a13.038 13.038 0 0 0 0-26Z" transform="translate(.313 -.5)" style="fill:url(#b);fill-rule:evenodd"/></svg>