<svg xmlns="http://www.w3.org/2000/svg" xmlns:xlink="http://www.w3.org/1999/xlink" width="128" height="128"><defs><linearGradient id="a" x1="56" y1="113" x2="56" y2="21" gradientUnits="userSpaceOnUse"><stop offset="0" stop-color="#275688"/><stop offset="1" stop-color="#65bdf1"/></linearGradient><linearGradient id="b" x1="56" y1="113" x2="56" y2="21" gradientUnits="userSpaceOnUse"><stop offset="0" stop-color="#7ebefa"/><stop offset="1" stop-color="#cce6fc"/></linearGradient><linearGradient id="c" x1="95" y1="49" x2="95" y2="16" xlink:href="#a"/><linearGradient id="d" x1="95" y1="49" x2="95" y2="16" xlink:href="#b"/></defs><path d="M16 21h38a41.519 41.519 0 0 1 24 7c15.882 10.865 17.963 29.924 18 38 .045 9.964-3 30.073-21 41a42.527 42.527 0 0 1-21 6H16V21zm21 16h13a26.078 26.078 0 0 1 15 6c6.123 5.231 8.908 13.495 9 23 .059 6.056-1.294 18.78-11 26a26.667 26.667 0 0 1-13 5H37V37z" transform="translate(0 -.5)" style="stroke:url(#a);fill-rule:evenodd;fill:none;stroke-linecap:round;stroke-linejoin:round;stroke-width:12px"/><path d="M16 21h38a41.519 41.519 0 0 1 24 7c15.882 10.865 17.963 29.924 18 38 .045 9.964-3 30.073-21 41a42.527 42.527 0 0 1-21 6H16V21zm21 16h13a26.078 26.078 0 0 1 15 6c6.123 5.231 8.908 13.495 9 23 .059 6.056-1.294 18.78-11 26a26.667 26.667 0 0 1-13 5H37V37z" transform="translate(0 -.5)" style="fill:url(#b);fill-rule:evenodd"/><path d="M90 16h10v12h12v10h-12v11H90V38H78V28h12V16z" transform="translate(0 -.5)" style="stroke:url(#c);fill-rule:evenodd;fill:none;stroke-linecap:round;stroke-linejoin:round;stroke-width:12px"/><path data-name="d-plus" d="M90 16h10v12h12v10h-12v11H90V38H78V28h12V16z" transform="translate(0 -.5)" style="fill:url(#d);fill-rule:evenodd"/></svg>