<svg xmlns="http://www.w3.org/2000/svg" width="128" height="128"><defs><linearGradient id="a" x1="64" y1="110" x2="64" y2="18" gradientUnits="userSpaceOnUse"><stop offset="0" stop-color="#275688"/><stop offset="1" stop-color="#65bdf1"/></linearGradient><linearGradient id="b" x1="64" y1="110" x2="64" y2="18" gradientUnits="userSpaceOnUse"><stop offset="0" stop-color="#7ebefa"/><stop offset="1" stop-color="#cce6fc"/></linearGradient></defs><path d="M24 18h38a41.519 41.519 0 0 1 24 7c15.882 10.865 17.963 29.924 18 38 .045 9.964-3 30.073-21 41a42.527 42.527 0 0 1-21 6H24V18Zm21 16h13a26.078 26.078 0 0 1 15 6c6.123 5.231 8.908 13.495 9 23 .059 6.056-1.294 18.78-11 26a26.667 26.667 0 0 1-13 5H45V34Z" style="fill-rule:evenodd;fill:none;stroke-linecap:round;stroke-linejoin:round;stroke-width:12px;stroke:url(#a)"/><path d="M24 18h38a41.519 41.519 0 0 1 24 7c15.882 10.865 17.963 29.924 18 38 .045 9.964-3 30.073-21 41a42.527 42.527 0 0 1-21 6H24V18Zm21 16h13a26.078 26.078 0 0 1 15 6c6.123 5.231 8.908 13.495 9 23 .059 6.056-1.294 18.78-11 26a26.667 26.667 0 0 1-13 5H45V34Z" style="fill:url(#b);fill-rule:evenodd"/></svg>