<svg xmlns="http://www.w3.org/2000/svg" width="128" height="128"><defs><linearGradient id="a" x1="64.297" y1="115" x2="64.297" y2="13.156" gradientUnits="userSpaceOnUse"><stop offset="0" stop-color="#3e3d40"/><stop offset="1" stop-color="#828282"/></linearGradient><linearGradient id="b" x1="64.297" y1="115" x2="64.297" y2="13.156" gradientUnits="userSpaceOnUse"><stop offset="0" stop-color="#c6c6c6"/><stop offset="1" stop-color="#eee"/></linearGradient></defs><path d="M66 59h40v38a47.873 47.873 0 0 1-74 1c-17.232-20.622-14.947-56.334 7-74 12.674-10.2 32.392-14.626 50-7a48.271 48.271 0 0 1 19 15L91 48c-4.084-9.231-12.41-14.862-21-15-8.8-.142-15.149 5.6-18 9-2.308 2.749-6.317 11.42-6 23 .336 12.294 4.745 20.488 8 24 5.405 5.831 10.532 7.792 15 8 6.573.306 12.746-2.909 17-8V76H66V59z" transform="translate(-.297 -.078)" style="fill-rule:evenodd;fill:none;stroke-linecap:round;stroke-linejoin:round;stroke-width:12px;stroke:url(#a)"/><path d="M66 59h40v38a47.873 47.873 0 0 1-74 1c-17.232-20.622-14.947-56.334 7-74 12.674-10.2 32.392-14.626 50-7a48.271 48.271 0 0 1 19 15L91 48c-4.084-9.231-12.41-14.862-21-15-8.8-.142-15.149 5.6-18 9-2.308 2.749-6.317 11.42-6 23 .336 12.294 4.745 20.488 8 24 5.405 5.831 10.532 7.792 15 8 6.573.306 12.746-2.909 17-8V76H66V59z" transform="translate(-.297 -.078)" style="fill:url(#b);fill-rule:evenodd"/></svg>