<svg xmlns="http://www.w3.org/2000/svg" xmlns:xlink="http://www.w3.org/1999/xlink" width="128" height="128"><defs><linearGradient id="a" x1="43.063" y1="114.375" x2="43.063" y2="14.375" gradientUnits="userSpaceOnUse"><stop offset="0" stop-color="#8b611e"/><stop offset="1" stop-color="#cd8a30"/></linearGradient><linearGradient id="b" x1="43.063" y1="114.375" x2="43.063" y2="14.375" gradientUnits="userSpaceOnUse"><stop offset="0" stop-color="#e4ba44"/><stop offset="1" stop-color="#fdf7d7"/></linearGradient><linearGradient id="c" x1="86.031" y1="113.344" x2="86.031" y2="14.75" xlink:href="#a"/><linearGradient id="d" x1="86.031" y1="113.344" x2="86.031" y2="14.75" xlink:href="#b"/></defs><path d="m54 42 13-12a24.818 24.818 0 0 0-17-15c-9.185-2.206-17.072 2.03-21 5-11 8.314-13.95 24.263-9 35a29.234 29.234 0 0 0 5 7c7.833 8.309 21.723 10.159 25 19 1.508 4.069 1.1 9.6-2 12-2.937 2.272-7.662.921-10 0-5.762-2.271-9.464-7.847-11-14L14 90a30.536 30.536 0 0 0 18 22c6.794 2.828 16.5 3.79 25-1 15.343-8.65 19.045-32.57 11-45-8.167-12.618-30.12-10.008-34-22-.583-1.8-1.391-5.927 1-9 2.372-3.05 6.437-3.122 8-3 4.584.357 9.02 4.008 11 10z" transform="translate(-.016 -.359)" style="stroke:url(#a);fill-rule:evenodd;fill:none;stroke-linecap:round;stroke-linejoin:round;stroke-width:12px"/><path d="m54 42 13-12a24.818 24.818 0 0 0-17-15c-9.185-2.206-17.072 2.03-21 5-11 8.314-13.95 24.263-9 35a29.234 29.234 0 0 0 5 7c7.833 8.309 21.723 10.159 25 19 1.508 4.069 1.1 9.6-2 12-2.937 2.272-7.662.921-10 0-5.762-2.271-9.464-7.847-11-14L14 90a30.536 30.536 0 0 0 18 22c6.794 2.828 16.5 3.79 25-1 15.343-8.65 19.045-32.57 11-45-8.167-12.618-30.12-10.008-34-22-.583-1.8-1.391-5.927 1-9 2.372-3.05 6.437-3.122 8-3 4.584.357 9.02 4.008 11 10z" transform="translate(-.016 -.359)" style="fill:url(#b);fill-rule:evenodd"/><path d="m99 43 13-12a25.937 25.937 0 0 0-16-15 25.66 25.66 0 0 0-22 3 26.737 26.737 0 0 0-10 13c-2.56 6.587-3.336 15.729 1 24a28.464 28.464 0 0 0 9 10c5.629 3.942 11 4.177 17 9 4.25 3.419 5.782 6.522 6 9a9.975 9.975 0 0 1-4 9c-2.723 1.844-6.442 1.816-11 0-5.529-2.2-9.254-7.27-11-13L58 90a30.257 30.257 0 0 0 19 21c5.394 1.914 16.427 4.621 25-1 14.714-9.648 15.4-35.924 5-48-7.874-9.146-24.215-7.228-28-17-1.071-2.766-1.383-7.052 1-10 2.431-3.008 6.315-3.145 8-3 4.72.406 9.314 4.434 11 11z" transform="translate(-.016 -.359)" style="stroke:url(#c);fill-rule:evenodd;fill:none;stroke-linecap:round;stroke-linejoin:round;stroke-width:12px"/><path d="m99 43 13-12a25.937 25.937 0 0 0-16-15 25.66 25.66 0 0 0-22 3 26.737 26.737 0 0 0-10 13c-2.56 6.587-3.336 15.729 1 24a28.464 28.464 0 0 0 9 10c5.629 3.942 11 4.177 17 9 4.25 3.419 5.782 6.522 6 9a9.975 9.975 0 0 1-4 9c-2.723 1.844-6.442 1.816-11 0-5.529-2.2-9.254-7.27-11-13L58 90a30.257 30.257 0 0 0 19 21c5.394 1.914 16.427 4.621 25-1 14.714-9.648 15.4-35.924 5-48-7.874-9.146-24.215-7.228-28-17-1.071-2.766-1.383-7.052 1-10 2.431-3.008 6.315-3.145 8-3 4.72.406 9.314 4.434 11 11z" transform="translate(-.016 -.359)" style="fill:url(#d);fill-rule:evenodd"/></svg>