<svg class="horseshoe" xmlns="http://www.w3.org/2000/svg" width="512" height="512"><path d="M200 397a187.757 187.757 0 0 1-38-79c-10.449-49.323-.093-85.109 10-102 10.175-17.029 40.137-56.5 90-55 50.173 1.507 78.235 44.5 87 61 9.736 18.328 18.435 54.573 6 104a191.394 191.394 0 0 1-35 71 24.083 24.083 0 0 0 0 32l89 61a15.834 15.834 0 0 0 13 4 15.257 15.257 0 0 0 8-4l39-44a13.426 13.426 0 0 0 4-11 13.2 13.2 0 0 0-4-8l-24-16a16.306 16.306 0 0 1-3-8 16.51 16.51 0 0 1 3-11 260.461 260.461 0 0 0 45-139c1.279-48.6-9.833-112.123-51-159C360.005 4.048 186.756-17.329 90 86 16.5 164.488 7.535 293.616 77 392a9.667 9.667 0 0 1 0 14l-25 21a15 15 0 0 0 0 18l39 41a16.9 16.9 0 0 0 24 0l85-58a22.376 22.376 0 0 0 6-12 23.141 23.141 0 0 0-6-19z" style="fill:#fff;fill-rule:evenodd"/></svg>