<svg xmlns="http://www.w3.org/2000/svg" width="512" height="512" viewBox="0 0 512 512">
  <defs>
    <style>
      .cls-1 {
        fill-rule: evenodd;
      }
    </style>
  </defs>
  <path id="horseshoe" class="cls-1" d="M63,426l47,58,106-82c-30.437-30.835-48.776-71.625-50-115-2.3-81.46,37.3-120.54,87-122,61.55-1.808,90.783,43.141,87,124a195.789,195.789,0,0,1-43,113l101,81,50-65-31-26c40.664-66.212,55.365-146.106,31-220-11.612-35.217-31.472-67.018-58-94a206.8,206.8,0,0,0-272,0c-32.15,33.626-54.468,74.875-64,120-14.162,67.047,6.191,140.183,44,197Z"/>
</svg>
