<svg id="app-logo" xmlns="http://www.w3.org/2000/svg" width="864" height="128" viewBox="80 0 864 128">
  <defs>
    <style>
      .cls-1 {
        fill-rule: evenodd;
      }
    </style>
  </defs>
  <path id="app-logo-outline" class="cls-1" d="M100,18h94a14.087,14.087,0,0,1,8-7h30a8.784,8.784,0,0,1,8,7H416a8.784,8.784,0,0,1,7,8l-7,22a6.821,6.821,0,0,1,5,7l83-28a8.8,8.8,0,0,1,7,3,8.573,8.573,0,0,1,2,5l-4,13h79l8-25a6.821,6.821,0,0,1,7-5h69a11.563,11.563,0,0,1,9-7h31a9.5,9.5,0,0,1,6,9l-9,28h61l8-24a12.748,12.748,0,0,1,6-6h25a9.5,9.5,0,0,1,6,9l-4,14h33l8-25a7.6,7.6,0,0,1,2-3,7.779,7.779,0,0,1,5-2h31a9.616,9.616,0,0,1,6,8l-9,29h42a8.784,8.784,0,0,1,7,8l-7,25a10.187,10.187,0,0,1-2,2,10.454,10.454,0,0,1-5,2H863l-8,25a7.835,7.835,0,0,1-7,4H761a8.445,8.445,0,0,1-7-4,8.008,8.008,0,0,1-1-5l5-20H651l-9,25a9.3,9.3,0,0,1-4,4,9.187,9.187,0,0,1-4,1H613a8.515,8.515,0,0,1-8-9l6-20H505a6.959,6.959,0,0,1-6-3,6.814,6.814,0,0,1-1-5l2-11-22,7-12,36a11.975,11.975,0,0,1-8,5H436a6.96,6.96,0,0,1-6-3,6.814,6.814,0,0,1-1-5l5-19-14,4a7.049,7.049,0,0,1-9-7H380l-8,25a8.062,8.062,0,0,1-8,4H343a6.757,6.757,0,0,1-6-8l5-21H303l-8,24a9.616,9.616,0,0,1-8,6H240a8.35,8.35,0,0,1-6-4,7.851,7.851,0,0,1-1-4l5-22H226a8.784,8.784,0,0,1-7-8l5-21H198l-18,54a9.616,9.616,0,0,1-8,6H150a8.515,8.515,0,0,1-8-8l15-52H95a8.366,8.366,0,0,1-7-10l7-24A5.215,5.215,0,0,1,100,18Z"/>
  <path id="app-logo-text" class="cls-1" d="M859,56h69l-6,21H853ZM785,26l-25,80h88l7-21H789l4-15h47l7-21H800l7-23H785Zm74-7-9,28h10l9-28H859Zm19,0-9,28h10l9-28H878ZM693,56h69l-6,21H687ZM603,26h74l3-7h11L681,48H596Zm96-7h11l-9,29H689ZM589,56l-7,21h40l-9,30h22l10-30h32l8-21H589Zm-78,0h69l-6,22H505Zm-85,5,79-26-9,25-25,8-12,39H436l10-31-27,9ZM333,26h82l-7,22H326ZM318,56l-7,21h41l-8,29h22l8-29h34l6-21H318ZM243,26h22L248,77H226Zm49,0h23l-27,81H240l7-22h27ZM102,26h97l3-7h30l-9,29H192l-19,60H149l19-60H95Zm109,0-5,15h7l5-15h-7Z"/>
</svg>
