<svg xmlns="http://www.w3.org/2000/svg" width="128" height="128"><defs><linearGradient id="a" x1="64" y1="102" x2="64" y2="26" gradientUnits="userSpaceOnUse"><stop offset="0" stop-color="#d98cb5"/><stop offset="1" stop-color="#9777b2"/></linearGradient><linearGradient id="b" x1="64" y1="102" x2="64" y2="26" gradientUnits="userSpaceOnUse"><stop offset="0" stop-color="#fae5f2"/><stop offset="1" stop-color="#fefeff"/></linearGradient></defs><path d="m8 76 6-17h3l9-26h64l3-7h27l-9 25h-11L90 76H63l-9 26H35l8-26H8z" style="fill-rule:evenodd;stroke-linecap:round;stroke-linejoin:round;stroke-width:16px;fill:url(#a);stroke:url(#a)"/><path d="M111.1 51.087h-9.642L109.616 26H120zm-20.768 0H19.868l6.676-18.447h63.045L92.556 26h10.384l-8.9 25.087h-3.709zm0 25.087H62.887L53.987 102H34.7l8.159-25.825H8l5.934-17.709h83.073z" style="fill:url(#b);fill-rule:evenodd"/></svg>