<svg xmlns="http://www.w3.org/2000/svg" width="128" height="128"><defs><linearGradient id="a" x1="255.719" y1="305.281" x2="255.719" y2="205.812" gradientUnits="userSpaceOnUse"><stop offset="0" stop-color="#d98cb5"/><stop offset="1" stop-color="#9777b2"/></linearGradient><linearGradient id="b" x1="255.719" y1="305.281" x2="255.719" y2="205.812" gradientUnits="userSpaceOnUse"><stop offset="0" stop-color="#f8e3f2"/><stop offset="1" stop-color="#fffdff"/></linearGradient></defs><path d="M243.248 285.01a39.163 39.163 0 0 1-7.923-16.472c-2.178-10.283-.019-17.744 2.085-21.266 2.122-3.551 8.369-11.78 18.765-11.467 10.461.314 16.312 9.278 18.139 12.718 2.03 3.821 3.844 11.378 1.251 21.683a39.914 39.914 0 0 1-7.3 14.8 5.02 5.02 0 0 0 0 6.671l18.559 12.723a3.3 3.3 0 0 0 2.71.834 3.185 3.185 0 0 0 1.668-.834l8.131-9.174a2.8 2.8 0 0 0 .834-2.294 2.754 2.754 0 0 0-.834-1.668l-5-3.336a3.394 3.394 0 0 1-.626-1.668 3.445 3.445 0 0 1 .626-2.293 54.308 54.308 0 0 0 9.382-28.981c.267-10.134-2.05-23.377-10.633-33.151-16.471-18.754-52.592-23.211-72.765-1.667-15.324 16.364-17.194 43.286-2.711 63.8a2.014 2.014 0 0 1 0 2.919l-5.212 4.378a3.13 3.13 0 0 0 0 3.753l8.131 8.549a3.525 3.525 0 0 0 5 0l17.722-12.093a4.657 4.657 0 0 0 1.251-2.5 4.819 4.819 0 0 0-1.25-3.964z" transform="translate(-191.719 -191.547)" style="fill-rule:evenodd;stroke:#fff;stroke-width:18px;fill:none;stroke-linecap:round;stroke-linejoin:round"/><path d="M243.248 285.01a39.163 39.163 0 0 1-7.923-16.472c-2.178-10.283-.019-17.744 2.085-21.266 2.122-3.551 8.369-11.78 18.765-11.467 10.461.314 16.312 9.278 18.139 12.718 2.03 3.821 3.844 11.378 1.251 21.683a39.914 39.914 0 0 1-7.3 14.8 5.02 5.02 0 0 0 0 6.671l18.559 12.723a3.3 3.3 0 0 0 2.71.834 3.185 3.185 0 0 0 1.668-.834l8.131-9.174a2.8 2.8 0 0 0 .834-2.294 2.754 2.754 0 0 0-.834-1.668l-5-3.336a3.394 3.394 0 0 1-.626-1.668 3.445 3.445 0 0 1 .626-2.293 54.308 54.308 0 0 0 9.382-28.981c.267-10.134-2.05-23.377-10.633-33.151-16.471-18.754-52.592-23.211-72.765-1.667-15.324 16.364-17.194 43.286-2.711 63.8a2.014 2.014 0 0 1 0 2.919l-5.212 4.378a3.13 3.13 0 0 0 0 3.753l8.131 8.549a3.525 3.525 0 0 0 5 0l17.722-12.093a4.657 4.657 0 0 0 1.251-2.5 4.819 4.819 0 0 0-1.25-3.964z" transform="translate(-191.719 -191.547)" style="stroke-width:10px;stroke:url(#a);fill-rule:evenodd;fill:none;stroke-linecap:round;stroke-linejoin:round"/><path d="M243.248 285.01a39.163 39.163 0 0 1-7.923-16.472c-2.178-10.283-.019-17.744 2.085-21.266 2.122-3.551 8.369-11.78 18.765-11.467 10.461.314 16.312 9.278 18.139 12.718 2.03 3.821 3.844 11.378 1.251 21.683a39.914 39.914 0 0 1-7.3 14.8 5.02 5.02 0 0 0 0 6.671l18.559 12.723a3.3 3.3 0 0 0 2.71.834 3.185 3.185 0 0 0 1.668-.834l8.131-9.174a2.8 2.8 0 0 0 .834-2.294 2.754 2.754 0 0 0-.834-1.668l-5-3.336a3.394 3.394 0 0 1-.626-1.668 3.445 3.445 0 0 1 .626-2.293 54.308 54.308 0 0 0 9.382-28.981c.267-10.134-2.05-23.377-10.633-33.151-16.471-18.754-52.592-23.211-72.765-1.667-15.324 16.364-17.194 43.286-2.711 63.8a2.014 2.014 0 0 1 0 2.919l-5.212 4.378a3.13 3.13 0 0 0 0 3.753l8.131 8.549a3.525 3.525 0 0 0 5 0l17.722-12.093a4.657 4.657 0 0 0 1.251-2.5 4.819 4.819 0 0 0-1.25-3.964z" transform="translate(-191.719 -191.547)" style="fill:url(#b);fill-rule:evenodd"/></svg>