<svg xmlns="http://www.w3.org/2000/svg" width="128" height="128"><defs><linearGradient id="a" x1="64.5" y1="114.062" x2="64.5" y2="14" gradientUnits="userSpaceOnUse"><stop offset="0" stop-color="#376022"/><stop offset="1" stop-color="#74c849"/></linearGradient><linearGradient id="b" x1="64.5" y1="114.062" x2="64.5" y2="14" gradientUnits="userSpaceOnUse"><stop offset="0" stop-color="#94d573"/><stop offset="1" stop-color="#d9f7be"/></linearGradient></defs><path d="M105 95 92 82a22.815 22.815 0 0 1-21 12c-6.914-.208-12.568-4.252-16-8-2.72-2.971-7-11.2-7-23s4.28-20.029 7-23c3.432-3.748 9.086-7.792 16-8 8.273-.249 16.388 4.7 21 13l13-14a46.534 46.534 0 0 0-34-17 44.826 44.826 0 0 0-27 8C26.978 33.862 24.167 53.679 24 63c-.176 9.838 2.223 31.561 20 44 7.432 5.2 16.943 7.5 27 7 13.666-.675 25.962-7.986 34-19z" transform="translate(-.5 -.015)" style="fill-rule:evenodd;fill:none;stroke-linecap:round;stroke-linejoin:round;stroke-width:12px;stroke:url(#a)"/><path d="M105 95 92 82a22.815 22.815 0 0 1-21 12c-6.914-.208-12.568-4.252-16-8-2.72-2.971-7-11.2-7-23s4.28-20.029 7-23c3.432-3.748 9.086-7.792 16-8 8.273-.249 16.388 4.7 21 13l13-14a46.534 46.534 0 0 0-34-17 44.826 44.826 0 0 0-27 8C26.978 33.862 24.167 53.679 24 63c-.176 9.838 2.223 31.561 20 44 7.432 5.2 16.943 7.5 27 7 13.666-.675 25.962-7.986 34-19z" transform="translate(-.5 -.015)" style="fill:url(#b);fill-rule:evenodd"/></svg>