<svg data-name="debuff/agitation.svg" xmlns="http://www.w3.org/2000/svg" width="512" height="512"><path style="fill:#f54d4e" d="M33 33h446v446H33z"/><path d="M210 68.941a45.738 45.738 0 0 0 17-4.994c14.739-8.32 18.774-25.284 30-35.96 9.682-9.208 19.188-12.064 24-11.987 9.411.151 17.35 6.071 22 10.988 10.792 11.41 9.118 23.993 18 35.96a51.99 51.99 0 0 0 16 13.985 44.629 44.629 0 0 0 16 4c14.122.775 27.847-7.327 36-8.99 14.071-2.87 29.017-3.083 36 4.994 9.82 11.359-2.466 39.026 0 58.935a87.548 87.548 0 0 0 8 26.97 54.739 54.739 0 0 0 16 12.986c16.315 8.632 34.928 2.023 44 11.986 10.1 11.093 6.239 37.977-7 54.94-4.931 6.318-20.8 15.155-25 28.967a34.841 34.841 0 0 0-1 14.984c3.989 27.92 43.69 37.653 43 57.935-.473 13.9-18.87 23.586-24 25.972-18.767 8.728-31.653.333-51 8.99-9.406 4.209-15.211 9.132-19 13.984-18.694 23.938.9 61.345-16 75.916-8.339 7.19-22.676 5.921-36 2-13.437-3.956-27.982-20.183-43-17.98-5.854.858-9.909 3.725-14 6.992-19.629 15.674-29.932 31.127-46 33.962-18.164 3.206-34.539-8.929-41-14.983-10.815-10.134-12.734-25.854-26-32.964-4.046-2.168-18.435-3.777-35 0-21.057 4.8-32.933 12.946-46 6.993a26.994 26.994 0 0 1-10-7.991c-8.993-11.613-5.129-26.945-3-46.948 1.665-15.641.508-29.036-2-32.964-8.42-13.186-28.234-14.337-53-24.972-8.659-3.718-17.148-8.366-20-16.981-3.206-9.686 2.143-20.173 9-29.967 12.479-17.823 36.512-32 39-47.947 4.194-26.876-44.243-46.554-39-71.92.472-2.283 3.281-7.988 8-12.986 21.363-22.625 60.564-6.548 76-26.97 5.915-7.826 3.45-17.559 5-31.964 3.588-33.336 11.354-49.871 23-53.94 19.326-6.761 40.375 24.369 71 20.969z" style="fill-rule:evenodd;fill:#f86f70"/><path d="M229 105a27.318 27.318 0 0 1 15-1c12.3 2.979 19.2 17.739 28 23.993 9.285 6.6 18.129 8.923 23 9 13.817.211 22.229-9.751 35-12 8.383-1.474 24.372-2.593 33 6 13.586 13.526-1.986 38.152 10 56.984 10.4 16.339 30.345 15.889 46 33.99 4.054 4.687 7.5 10.1 8 17 .752 10.385-5.707 18.657-13 26.993-8.988 10.273-17.268 17.97-20 25.992-1.971 5.788-1.617 22.638 4 40.988 2.951 9.643 6.65 19.126 2 26.993-3.442 5.823-9.971 8.336-17 10-16.757 3.958-33.045-1.151-45 6-10.314 6.168-14.51 21.7-25 38.989-3.695 6.088-8.993 13.979-18 16-10.307 2.308-19.838-4.343-26-9-17.756-13.411-28.619-27.379-41-28.992-18.611-2.425-30.494 17.757-49 13a29.31 29.31 0 0 1-15-10c-12.951-16.117.355-36.807-10-54.984-2.87-5.037-16.07-15.433-32-23.993-9.482-5.1-19.445-9.426-22-19-2.145-8.031 1.9-16.061 8-24.992 7.474-10.939 22.341-22.618 25-33.991 4.824-20.63-16.5-33.938-11-55.984a32.471 32.471 0 0 1 9-16c15.709-14.527 38.467-.378 57-11 20.879-11.964 18.4-43.386 41-50.986z" style="fill:#fa9c9c;fill-rule:evenodd"/><path d="M305 73a57.279 57.279 0 0 1 14 47 59.837 59.837 0 0 1 39 7 57.7 57.7 0 0 1 17 15 40.843 40.843 0 0 1 33-21 37.556 37.556 0 0 1-25 34 65 65 0 0 1-41 87l15 89c9.92 3.377 15.725 11.984 15 20-.895 9.894-11.615 14.731-15 16-9.5 3.561-25.013 2.87-29-7-2.812-6.961.393-16.739 9-23l-12-45a95.016 95.016 0 0 1-20 24l28 98c16.014-1.674 27.572 3.847 31 12a15.734 15.734 0 0 1 1 8 29.5 29.5 0 0 1-12 18 29.019 29.019 0 0 1-15 5h-91c-6.85-.395-13.514-3.859-17-10-4.5-7.918-2.759-18.848 5-26l-22-92c-2.095-2.826-4.893-4.961-8-5-3.006-.038-7.035 2.6-11 10-4.284 8-4.557 17.545-2 27a48.85 48.85 0 0 1-1 41 22.792 22.792 0 0 0-8-16 24.148 24.148 0 0 1-4 11c-7.517 10.852-25.6 15.581-48 9a24.541 24.541 0 0 0 19-6 23.038 23.038 0 0 0 6-9c-12.879 2.109-24.347-2.515-30-11a24.931 24.931 0 0 1-4-14c5.171 5.74 11.584 9.856 18 9s11.251-6.453 17-18c3.919-7.872 9.235-28.58 18-38 8.261-8.879 20.483-13.128 35-14a119.406 119.406 0 0 1 62-86 65.842 65.842 0 0 1 28-93 58.269 58.269 0 0 1 5-53zm-50 272a15.177 15.177 0 0 1 14-3 14.25 14.25 0 0 1 7 5l16 70h-19z" style="fill:#ecbabf;fill-rule:evenodd"/><path d="M317 76a57.279 57.279 0 0 1 14 47 59.837 59.837 0 0 1 39 7 57.7 57.7 0 0 1 17 15 40.843 40.843 0 0 1 33-21 37.556 37.556 0 0 1-25 34 65 65 0 0 1-41 87l15 89c9.92 3.377 15.725 11.984 15 20-.895 9.894-11.615 14.731-15 16-9.5 3.561-25.013 2.87-29-7-2.812-6.961.393-16.739 9-23l-12-45a95.016 95.016 0 0 1-20 24l28 98c16.014-1.674 27.572 3.847 31 12a15.734 15.734 0 0 1 1 8 29.5 29.5 0 0 1-12 18 29.019 29.019 0 0 1-15 5h-91c-6.85-.395-13.514-3.859-17-10-4.5-7.918-2.759-18.848 5-26l-22-92c-2.095-2.826-4.893-4.961-8-5-3.006-.038-7.035 2.6-11 10-4.284 8-4.557 17.545-2 27a48.85 48.85 0 0 1-1 41 22.792 22.792 0 0 0-8-16 24.148 24.148 0 0 1-4 11c-7.517 10.852-25.6 15.581-48 9a24.541 24.541 0 0 0 19-6 23.038 23.038 0 0 0 6-9c-12.879 2.109-24.347-2.515-30-11a24.931 24.931 0 0 1-4-14c5.171 5.74 11.584 9.856 18 9s11.251-6.453 17-18c3.919-7.872 9.235-28.58 18-38 8.261-8.879 20.483-13.128 35-14a119.406 119.406 0 0 1 62-86 65.842 65.842 0 0 1 28-93 58.269 58.269 0 0 1 5-53zm-50 272a15.177 15.177 0 0 1 14-3 14.25 14.25 0 0 1 7 5l16 70h-19z" style="fill:#e63944;fill-rule:evenodd"/><path d="M311 76a57.279 57.279 0 0 1 14 47 59.837 59.837 0 0 1 39 7 57.7 57.7 0 0 1 17 15 40.843 40.843 0 0 1 33-21 37.556 37.556 0 0 1-25 34 65 65 0 0 1-41 87l15 89c9.92 3.377 15.725 11.984 15 20-.895 9.894-11.615 14.731-15 16-9.5 3.561-25.013 2.87-29-7-2.812-6.961.393-16.739 9-23l-12-45a95.016 95.016 0 0 1-20 24l28 98c16.014-1.674 27.572 3.847 31 12a15.734 15.734 0 0 1 1 8 29.5 29.5 0 0 1-12 18 29.019 29.019 0 0 1-15 5h-91c-6.85-.395-13.514-3.859-17-10-4.5-7.918-2.759-18.848 5-26l-22-92c-2.095-2.826-4.893-4.961-8-5-3.006-.038-7.035 2.6-11 10-4.284 8-4.557 17.545-2 27a48.85 48.85 0 0 1-1 41 22.792 22.792 0 0 0-8-16 24.148 24.148 0 0 1-4 11c-7.517 10.852-25.6 15.581-48 9a24.541 24.541 0 0 0 19-6 23.038 23.038 0 0 0 6-9c-12.879 2.109-24.347-2.515-30-11a24.931 24.931 0 0 1-4-14c5.171 5.74 11.584 9.856 18 9s11.251-6.453 17-18c3.919-7.872 9.235-28.58 18-38 8.261-8.879 20.483-13.128 35-14a119.406 119.406 0 0 1 62-86 65.842 65.842 0 0 1 28-93 58.269 58.269 0 0 1 5-53zm-50 272a15.177 15.177 0 0 1 14-3 14.25 14.25 0 0 1 7 5l16 70h-19z" style="fill:#aa4242;fill-rule:evenodd"/><path d="M193 151c-8.427-4.207-25.016-12.421-31-28-2.62-6.821-2.035-12.188-1-15 1.841-5 5.943-8.779 11-11a30.092 30.092 0 0 1 15 0c12.488 3.378 19.723 14.984 27 31a374.633 374.633 0 0 1 16 42c-12.42-6.465-26.679-13.848-37-19zm2 56a55.544 55.544 0 0 0-15 6c-.77.452-9.974 7.6-17 10-8.878 3.037-15.511 1.547-18 0a16.814 16.814 0 0 1-7-10c.2-4.42 1.47-8.2 4-11 3.276-3.624 13.674-6.205 30-3a87.87 87.87 0 0 1 23 8zm-98-51c-1.951-3.194-2.168-7.305-1-12 1.508-4.083 3.808-7.219 7-9 5.45-3.041 15.83-1.3 31 9a76.728 76.728 0 0 1 20 20c-10.723-.694-21.077-1.042-31-1-9.807.041-21.552.282-26-7z" style="fill:#ee5657;fill-rule:evenodd"/><path d="M188 149c-8.427-4.207-25.016-12.421-31-28-2.62-6.821-2.035-12.188-1-15 1.841-5 5.943-8.779 11-11a30.092 30.092 0 0 1 15 0c12.488 3.378 19.723 14.984 27 31a374.633 374.633 0 0 1 16 42c-12.42-6.465-26.679-13.848-37-19zm1 58a55.544 55.544 0 0 0-15 6c-.77.452-9.974 7.6-17 10-8.878 3.037-15.511 1.547-18 0a16.814 16.814 0 0 1-7-10c.2-4.42 1.47-8.2 4-11 3.276-3.624 13.674-6.205 30-3a87.87 87.87 0 0 1 23 8zm-98-53c-1.951-3.194-2.168-7.305-1-12 1.508-4.083 3.808-7.219 7-9 5.45-3.041 15.83-1.3 31 9a76.728 76.728 0 0 1 20 20c-10.723-.694-21.077-1.042-31-1-9.807.041-21.552.282-26-7z" style="fill:#fcf1ff;fill-rule:evenodd"/><path d="M40 8h432a32 32 0 0 1 32 32v432a32 32 0 0 1-32 32H40a32 32 0 0 1-32-32V40A32 32 0 0 1 40 8zm20 28h392a24 24 0 0 1 24 24v392a24 24 0 0 1-24 24H60a24 24 0 0 1-24-24V60a24 24 0 0 1 24-24z" style="fill:#e6dce3;fill-rule:evenodd"/></svg>