<svg id="debuff_calm.svg" data-name="debuff/calm.svg" xmlns="http://www.w3.org/2000/svg" width="512" height="512"><defs><style>.cls-5{fill-rule:evenodd;fill:#e63944}</style></defs><path id="background" style="fill:#f54d4e" d="M33 33h446v446H33z"/><path id="effect_outer" d="M210 68.941a45.738 45.738 0 0 0 17-4.994c14.739-8.32 18.774-25.284 30-35.96 9.682-9.208 19.188-12.064 24-11.987 9.411.151 17.35 6.071 22 10.988 10.792 11.41 9.118 23.993 18 35.96a51.99 51.99 0 0 0 16 13.985 44.629 44.629 0 0 0 16 4c14.122.775 27.847-7.327 36-8.99 14.071-2.87 29.017-3.083 36 4.994 9.82 11.359-2.466 39.026 0 58.935a87.548 87.548 0 0 0 8 26.97 54.739 54.739 0 0 0 16 12.986c16.315 8.632 34.928 2.023 44 11.986 10.1 11.093 6.239 37.977-7 54.94-4.931 6.318-20.8 15.155-25 28.967a34.841 34.841 0 0 0-1 14.984c3.989 27.92 43.69 37.653 43 57.935-.473 13.9-18.87 23.586-24 25.972-18.767 8.728-31.653.333-51 8.99-9.406 4.209-15.211 9.132-19 13.984-18.694 23.938.9 61.345-16 75.916-8.339 7.19-22.676 5.921-36 2-13.437-3.956-27.982-20.183-43-17.98-5.854.858-9.909 3.725-14 6.992-19.629 15.674-29.932 31.127-46 33.962-18.164 3.206-34.539-8.929-41-14.983-10.815-10.134-12.734-25.854-26-32.964-4.046-2.168-18.435-3.777-35 0-21.057 4.8-32.933 12.946-46 6.993a26.994 26.994 0 0 1-10-7.991c-8.993-11.613-5.129-26.945-3-46.948 1.665-15.641.508-29.036-2-32.964-8.42-13.186-28.234-14.337-53-24.972-8.659-3.718-17.148-8.366-20-16.981-3.206-9.686 2.143-20.173 9-29.967 12.479-17.823 36.512-32 39-47.947 4.194-26.876-44.243-46.554-39-71.92.472-2.283 3.281-7.988 8-12.986 21.363-22.625 60.564-6.548 76-26.97 5.915-7.826 3.45-17.559 5-31.964 3.588-33.336 11.354-49.871 23-53.94 19.326-6.761 40.375 24.369 71 20.969z" style="fill-rule:evenodd;fill:#f86f70"/><path id="effect_inner" d="M229 105a27.318 27.318 0 0 1 15-1c12.3 2.979 19.2 17.739 28 23.993 9.285 6.6 18.129 8.923 23 9 13.817.211 22.229-9.751 35-12 8.383-1.474 24.372-2.593 33 6 13.586 13.526-1.986 38.152 10 56.984 10.4 16.339 30.345 15.889 46 33.99 4.054 4.687 7.5 10.1 8 17 .752 10.385-5.707 18.657-13 26.993-8.988 10.273-17.268 17.97-20 25.992-1.971 5.788-1.617 22.638 4 40.988 2.951 9.643 6.65 19.126 2 26.993-3.442 5.823-9.971 8.336-17 10-16.757 3.958-33.045-1.151-45 6-10.314 6.168-14.51 21.7-25 38.989-3.695 6.088-8.993 13.979-18 16-10.307 2.308-19.838-4.343-26-9-17.756-13.411-28.619-27.379-41-28.992-18.611-2.425-30.494 17.757-49 13a29.31 29.31 0 0 1-15-10c-12.951-16.117.355-36.807-10-54.984-2.87-5.037-16.07-15.433-32-23.993-9.482-5.1-19.445-9.426-22-19-2.145-8.031 1.9-16.061 8-24.992 7.474-10.939 22.341-22.618 25-33.991 4.824-20.63-16.5-33.938-11-55.984a32.471 32.471 0 0 1 9-16c15.709-14.527 38.467-.378 57-11 20.879-11.964 18.4-43.386 41-50.986z" style="fill:#fa9c9c;fill-rule:evenodd"/><path id="character_outline" d="M79 150a163.941 163.941 0 0 1 32 37 163.672 163.672 0 0 1 17 36 75.137 75.137 0 0 1 94-4 133.4 133.4 0 0 1 47-65 227.593 227.593 0 0 1 3 43c-.445 15.621-2.864 27.569-7 37a83.863 83.863 0 0 1-16 24 148.961 148.961 0 0 1-30 181 128.164 128.164 0 0 1 38 40H95a174.926 174.926 0 0 1 34-37 153.509 153.509 0 0 1-33-183 79.14 79.14 0 0 1-15-21c-4.046-8.273-7.7-22.615-8-40a176.852 176.852 0 0 1 6-48zm125 196v36c.6 3.4 2.247 6.423 5 8 3.877 2.221 8.683.543 10 0 12.643-5.21 13.621-42.074 12-63zm-82-22 27 20v36c-.417 4.728-2.324 9.13-6 11-3.6 1.833-7.82.458-9 0-13.659-5.307-13.9-41.314-12-67z" style="fill:#ecbabf;fill-rule:evenodd"/><path id="character_shadow" class="cls-5" d="M91 150a163.954 163.954 0 0 1 32 37 163.672 163.672 0 0 1 17 36 75.137 75.137 0 0 1 94-4 133.4 133.4 0 0 1 47-65 227.593 227.593 0 0 1 3 43c-.445 15.621-2.864 27.569-7 37a83.863 83.863 0 0 1-16 24 148.961 148.961 0 0 1-30 181 128.164 128.164 0 0 1 38 40H107a174.926 174.926 0 0 1 34-37 153.509 153.509 0 0 1-33-183 79.131 79.131 0 0 1-15-21c-4.046-8.273-7.7-22.615-8-40a176.852 176.852 0 0 1 6-48zm119 196v36c.6 3.4 2.247 6.423 5 8 3.877 2.221 8.683.543 10 0 12.643-5.21 13.621-42.074 12-63zm-82-22 27 20v36c-.417 4.728-2.324 9.13-6 11-3.6 1.833-7.82.458-9 0-13.659-5.307-13.9-41.314-12-67z"/><path id="eye" d="M198 395v-70h38v70h-38zm-83-75h40v77h-40v-77z" style="fill:#faf5ee;fill-rule:evenodd"/><path id="character" d="M85 150a163.941 163.941 0 0 1 32 37 163.672 163.672 0 0 1 17 36 75.137 75.137 0 0 1 94-4 133.4 133.4 0 0 1 47-65 227.593 227.593 0 0 1 3 43c-.445 15.621-2.864 27.569-7 37a83.863 83.863 0 0 1-16 24 148.961 148.961 0 0 1-30 181 128.164 128.164 0 0 1 38 40H101a174.926 174.926 0 0 1 34-37 153.509 153.509 0 0 1-33-183 79.14 79.14 0 0 1-15-21c-4.046-8.273-7.7-22.615-8-40a176.852 176.852 0 0 1 6-48zm119 196v36c.6 3.4 2.247 6.423 5 8 3.877 2.221 8.683.543 10 0 12.643-5.21 13.621-42.074 12-63zm-82-22 27 20v36c-.417 4.728-2.324 9.13-6 11-3.6 1.833-7.82.458-9 0-13.659-5.307-13.9-41.314-12-67z" style="fill:#a94141;fill-rule:evenodd"/><path id="emotion_shadow" class="cls-5" d="M446 132a40.146 40.146 0 0 1-12 18c9.54 14.971 10.023 32.786 2 46-8.231 13.556-23.019 17.849-31 19-19.259 2.777-38.117-7.125-50-23l-67 56 42-84a42.534 42.534 0 0 1-42-26c-6.938-16.893-2.3-37.514 13-49a41.737 41.737 0 0 1 48-1c4.042-10.069 10.768-18.416 20-23 21.914-10.881 46.137 5.666 53 11 13.631 10.594 31.027 33.361 24 56zm-81 145c-7.369-8.955-7.558-21.5-1-30a22.95 22.95 0 0 1 41 11c7.019-2.88 13.159-3.333 18-1 15.562 7.5 17.515 43.569 2 54-3.946 2.653-9 3.627-15 3a23.4 23.4 0 0 1-14 17c-9.727 3.868-18.468-.627-22-3-9.074-6.1-13.937-18.488-11-32l-41-6z"/><path id="emotion" d="M446 126a40.146 40.146 0 0 1-12 18c9.54 14.971 10.023 32.786 2 46-8.231 13.556-23.019 17.849-31 19-19.259 2.777-38.117-7.125-50-23l-67 56 42-84a42.534 42.534 0 0 1-42-26c-6.938-16.893-2.3-37.514 13-49a41.737 41.737 0 0 1 48-1c4.042-10.069 10.768-18.416 20-23 21.914-10.881 46.137 5.666 53 11 13.631 10.594 31.027 33.361 24 56zm-81 145c-7.369-8.955-7.558-21.5-1-30a22.95 22.95 0 0 1 41 11c7.019-2.88 13.159-3.333 18-1 15.562 7.5 17.515 43.569 2 54-3.946 2.653-9 3.627-15 3a23.4 23.4 0 0 1-14 17c-9.727 3.868-18.468-.627-22-3-9.074-6.1-13.937-18.488-11-32l-41-6z" style="fill:#fee8ef;fill-rule:evenodd"/><path id="frame" d="M40 8h432a32 32 0 0 1 32 32v432a32 32 0 0 1-32 32H40a32 32 0 0 1-32-32V40A32 32 0 0 1 40 8zm20 28h392a24 24 0 0 1 24 24v392a24 24 0 0 1-24 24H60a24 24 0 0 1-24-24V60a24 24 0 0 1 24-24z" style="fill:#e6dce3;fill-rule:evenodd"/></svg>