<svg id="empty.svg" xmlns="http://www.w3.org/2000/svg" width="467.156" height="445.094" viewBox="0 0 467.156 445.094">
  <defs>
    <style>
      .cls-1 {
        fill: #9c958f;
      }

      .cls-1, .cls-2 {
        fill-rule: evenodd;
      }

      .cls-2 {
        fill: #e8e3e0;
      }
    </style>
  </defs>
  <path id="empty_outline" class="cls-1" d="M249.259,35.912a8,8,0,0,1,14.482,0l65.8,140.055,153.534,19.3a8,8,0,0,1,4.475,13.772L374.683,314.9l29.089,151.984a8,8,0,0,1-11.716,8.512L256.5,400.765,120.944,475.4a8,8,0,0,1-11.716-8.512L138.317,314.9,25.45,209.04a8,8,0,0,1,4.475-13.772l153.535-19.3Z" transform="translate(-22.906 -31.313)"/>
  <path id="empty_body" class="cls-2" d="M252.38,75.706a4,4,0,0,1,7.24,0l55.726,118.611,130.026,16.346a4,4,0,0,1,2.238,6.886L352.024,307.2l24.635,128.713a4,4,0,0,1-5.858,4.256L256,376.965l-114.8,63.2a4,4,0,0,1-5.858-4.256L159.976,307.2,64.39,217.549a4,4,0,0,1,2.238-6.886l130.026-16.346Z" transform="translate(-22.906 -31.313)"/>
</svg>
