<svg xmlns="http://www.w3.org/2000/svg" xmlns:xlink="http://www.w3.org/1999/xlink" width="128" height="128"><defs><linearGradient id="a" x1="48.5" y1="113" x2="48.5" y2="20" gradientUnits="userSpaceOnUse"><stop offset="0" stop-color="#3f3b7b"/><stop offset="1" stop-color="#807be3"/></linearGradient><linearGradient id="b" x1="48.5" y1="113" x2="48.5" y2="20" gradientUnits="userSpaceOnUse"><stop offset="0" stop-color="#a695f5"/><stop offset="1" stop-color="#eae6fc"/></linearGradient><linearGradient id="c" x1="95" y1="49" x2="95" y2="16" xlink:href="#a"/><linearGradient id="d" x1="95" y1="49" x2="95" y2="16" xlink:href="#b"/></defs><path d="M17 20h63v18H39v23h36v16H39v36H17V20z" transform="translate(-.5 -.5)" style="stroke:url(#a);fill-rule:evenodd;fill:none;stroke-linecap:round;stroke-linejoin:round;stroke-width:12px"/><path d="M17 20h63v18H39v23h36v16H39v36H17V20z" transform="translate(-.5 -.5)" style="fill:url(#b);fill-rule:evenodd"/><path d="M90 16h10v12h12v10h-12v11H90V38H78V28h12V16z" transform="translate(-.5 -.5)" style="stroke:url(#c);fill-rule:evenodd;fill:none;stroke-linecap:round;stroke-linejoin:round;stroke-width:12px"/><path data-name="f-plus" d="M90 16h10v12h12v10h-12v11H90V38H78V28h12V16z" transform="translate(-.5 -.5)" style="fill:url(#d);fill-rule:evenodd"/></svg>