<svg id="fill.svg" xmlns="http://www.w3.org/2000/svg" width="467.156" height="445.094" viewBox="0 0 467.156 445.094">
  <defs>
    <style>
      .cls-1 {
        fill: #b57a1d;
      }

      .cls-1, .cls-2, .cls-3 {
        fill-rule: evenodd;
      }

      .cls-2 {
        fill: #ffee7a;
      }

      .cls-3 {
        fill: #ffd024;
      }
    </style>
  </defs>
  <path id="fill_outline" class="cls-1" d="M249.259,35.912a8,8,0,0,1,14.482,0l65.8,140.055,153.534,19.3a8,8,0,0,1,4.475,13.772L374.683,314.9l29.089,151.984a8,8,0,0,1-11.716,8.512L256.5,400.765,120.944,475.4a8,8,0,0,1-11.716-8.512L138.317,314.9,25.45,209.04a8,8,0,0,1,4.475-13.772l153.535-19.3Z" transform="translate(-22.906 -31.313)"/>
  <path id="fill_body" class="cls-2" d="M252.38,75.706a4,4,0,0,1,7.24,0l55.726,118.611,130.026,16.346a4,4,0,0,1,2.238,6.886L352.024,307.2l24.635,128.713a4,4,0,0,1-5.858,4.256L256,376.965l-114.8,63.2a4,4,0,0,1-5.858-4.256L159.976,307.2,64.39,217.549a4,4,0,0,1,2.238-6.886l130.026-16.346Z" transform="translate(-22.906 -31.313)"/>
  <path id="fill_shadow_1" class="cls-3" d="M256,269l193-56a6.524,6.524,0,0,0-2-2,18.809,18.809,0,0,0-5-2L317,194,261,77a5.215,5.215,0,0,0-5-4V269Z" transform="translate(-22.906 -31.313)"/>
  <path id="fill_shadow_2" class="cls-3" d="M64,217c-1.192-.437-1.141-3.563-1-4l193,56V376L142,439a3.892,3.892,0,0,1-5,0c-1.048-.941-2.47-1.506-2-3l25-130L65,218Z" transform="translate(-22.906 -31.313)"/>
</svg>
