<svg xmlns="http://www.w3.org/2000/svg" xmlns:xlink="http://www.w3.org/1999/xlink" width="128" height="128"><defs><linearGradient id="a" x1="55.297" y1="116" x2="55.297" y2="14.156" gradientUnits="userSpaceOnUse"><stop offset="0" stop-color="#3e3d40"/><stop offset="1" stop-color="#828282"/></linearGradient><linearGradient id="b" x1="55.297" y1="116" x2="55.297" y2="14.156" gradientUnits="userSpaceOnUse"><stop offset="0" stop-color="#c6c6c6"/><stop offset="1" stop-color="#eee"/></linearGradient><linearGradient id="c" x1="99" y1="46" x2="99" y2="13" xlink:href="#a"/><linearGradient id="d" x1="99" y1="46" x2="99" y2="13" xlink:href="#b"/></defs><path d="M57 60h40v38a47.873 47.873 0 0 1-74 1C5.768 78.378 8.053 42.666 30 25c12.674-10.2 32.392-14.626 50-7a48.269 48.269 0 0 1 19 15L82 49c-4.084-9.231-12.41-14.862-21-15-8.8-.142-15.149 5.6-18 9-2.308 2.749-6.317 11.42-6 23 .336 12.294 4.745 20.488 8 24 5.405 5.831 10.532 7.792 15 8 6.573.306 12.746-2.909 17-8V77H57V60z" transform="translate(.203 -.5)" style="stroke:url(#a);fill-rule:evenodd;fill:none;stroke-linecap:round;stroke-linejoin:round;stroke-width:12px"/><path d="M57 60h40v38a47.873 47.873 0 0 1-74 1C5.768 78.378 8.053 42.666 30 25c12.674-10.2 32.392-14.626 50-7a48.269 48.269 0 0 1 19 15L82 49c-4.084-9.231-12.41-14.862-21-15-8.8-.142-15.149 5.6-18 9-2.308 2.749-6.317 11.42-6 23 .336 12.294 4.745 20.488 8 24 5.405 5.831 10.532 7.792 15 8 6.573.306 12.746-2.909 17-8V77H57V60z" transform="translate(.203 -.5)" style="fill:url(#b);fill-rule:evenodd"/><path d="M94 13h10v12h12v10h-12v11H94V35H82V25h12V13z" transform="translate(.203 -.5)" style="stroke:url(#c);fill-rule:evenodd;fill:none;stroke-linecap:round;stroke-linejoin:round;stroke-width:12px"/><path data-name="g-plus" d="M94 13h10v12h12v10h-12v11H94V35H82V25h12V13z" transform="translate(.203 -.5)" style="fill:url(#d);fill-rule:evenodd"/></svg>