<svg id="g-plus" xmlns="http://www.w3.org/2000/svg" xmlns:xlink="http://www.w3.org/1999/xlink" width="128" height="128"><defs><linearGradient id="linear-gradient" x1="101.611" y1="116" x2="27.389" y2="10" gradientUnits="userSpaceOnUse"><stop offset="0" stop-color="gray"/><stop offset="1" stop-color="#fff"/></linearGradient><linearGradient id="linear-gradient-2" x1="99.51" y1="114" x2="29.49" y2="14" gradientUnits="userSpaceOnUse"><stop offset="0" stop-color="#6c696d"/><stop offset="1" stop-color="#b3b3b5"/></linearGradient><linearGradient id="linear-gradient-3" x1="64.672" y1="113.594" x2="64.672" y2="95.938" gradientUnits="userSpaceOnUse"><stop offset="0" stop-color="#f9f9f9"/><stop offset=".451" stop-color="#d2d1d1"/><stop offset=".501" stop-color="#fff"/><stop offset="1" stop-color="#fbf9fa"/></linearGradient><linearGradient id="linear-gradient-4" x1="76.533" y1="87.031" x2="31.873" y2="23.25" gradientUnits="userSpaceOnUse"><stop offset="0" stop-color="#3d373e"/><stop offset=".705" stop-color="#5e5661"/><stop offset=".9" stop-color="#e0e0e3"/><stop offset="1" stop-color="#e0e0e3"/></linearGradient><linearGradient id="linear-gradient-5" x1="54.203" y1="87.031" x2="54.203" y2="23.25" gradientUnits="userSpaceOnUse"><stop offset="0" stop-color="#f0f0f0"/><stop offset=".451" stop-color="#c5c5c7"/><stop offset=".501" stop-color="#fff"/><stop offset=".799" stop-color="#e0e0df"/><stop offset="1" stop-color="#e0e0df"/></linearGradient><linearGradient id="linear-gradient-6" x1="106.353" y1="64" x2="84.647" y2="33" xlink:href="#linear-gradient-4"/><linearGradient id="linear-gradient-7" x1="95.5" y1="64" x2="95.5" y2="33" gradientUnits="userSpaceOnUse"><stop offset="0" stop-color="#f0f0f0"/><stop offset=".451" stop-color="#c5c5c7"/><stop offset=".549" stop-color="#fff"/><stop offset=".799" stop-color="#e0e0df"/><stop offset="1" stop-color="#e0e0df"/></linearGradient><radialGradient id="radial-gradient" cx="64.5" cy="64" r="61.039" gradientUnits="userSpaceOnUse"><stop offset="0" stop-color="#3e383f" stop-opacity="0"/><stop offset=".747" stop-color="#3e383f" stop-opacity="0"/><stop offset=".898" stop-color="#3e383f"/><stop offset="1" stop-color="#3e383f"/></radialGradient><style>.cls-5{stroke-linecap:round;stroke-linejoin:round;fill-rule:evenodd;fill:#554c54;stroke:#4f454a;stroke-width:1px}</style></defs><path id="circle-outer-outline" d="M107 96c-10.351 13.118-26.4 20.1-43 20-18.671-.772-36.466-9.3-46-25-4.267-7.03-7.04-16.068-7-27 .046-12.479 4.3-28.3 17-40a53.473 53.473 0 0 1 36-14 56 56 0 0 1 32 11c11.376 8.531 22 23.68 22 43a51.811 51.811 0 0 1-11 32z" style="fill-rule:evenodd;stroke-width:2px;stroke:url(#linear-gradient);stroke-linecap:round;stroke-linejoin:round;fill:none"/><path id="circle-outer" d="M107 96c-10.351 13.118-26.4 20.1-43 20-18.671-.772-36.466-9.3-46-25-4.267-7.03-7.04-16.068-7-27 .046-12.479 4.3-28.3 17-40a53.473 53.473 0 0 1 36-14 56 56 0 0 1 32 11c11.376 8.531 22 23.68 22 43a51.811 51.811 0 0 1-11 32z" style="fill:#fbfbfe;fill-rule:evenodd"/><path id="circle-inner" d="M64 14c-27.073.444-48.976 22.066-50 48-1.081 27.37 21.407 51.487 50 52 29.007.024 52.093-24.314 51-52-1.036-26.251-23.518-48.066-51-48z" style="fill:url(#linear-gradient-2);fill-rule:evenodd"/><path id="circle-inner-shadow" d="M64 14c-27.073.444-48.976 22.066-50 48-1.081 27.37 21.407 51.487 50 52 29.007.024 52.093-24.314 51-52-1.036-26.251-23.518-48.066-51-48z" style="fill:url(#radial-gradient);fill-rule:evenodd"/><path id="rank-ribbon-rear" class="cls-5" d="M117 111h-17V94h17v1l-7 8 7 7v1zm-105-1 7-7-7-8v-1h19v17H12v-1z"/><path id="rank-ribbon-front" class="cls-5" d="M20 98h5a747.02 747.02 0 0 0 39 1c7.056 0 15.792-.027 20.488-.272C90.825 98.4 97.118 98 103 98h5v17a243.743 243.743 0 0 1-44 4 243.743 243.743 0 0 1-44-4V98z"/><path id="rank-text-outline" d="M44.866 99.974q0-4.043-6.258-4.043h-6.48l-4.078 17.661h3.89l1.547-6.727h2.5l3.973 6.727h4.406l-4.539-7.492q5.039-1.956 5.039-6.129zm-7.559-1.336a4.779 4.779 0 0 1 2.766.551 1.865 1.865 0 0 1 .691 1.547 3.367 3.367 0 0 1-.633 2.069 3.068 3.068 0 0 1-1.594 1.142 8.578 8.578 0 0 1-2.449.293h-2.015l1.3-5.6h1.934zm21.353-2.706h-4.29l-10.77 17.66h4.125l2.25-3.868H56.9l.457 3.868h3.867zm-7.125 11.121 4.172-7.161.867 7.161h-5.039zM78.57 95.932l-2.625 11.391-4.711-11.391h-4.312l-4.078 17.661h3.609l2.953-12.786 5.285 12.786H78.1l4.078-17.66H78.57zm18.059 0-8.789 8.3 1.922-8.3h-3.891l-4.078 17.661h3.867L87 107.8l1.758-1.582 4.406 7.371h4.395l-5.508-9.141 9.246-8.519h-4.668z" style="stroke:#3f3c41;stroke-width:4px;fill-rule:evenodd;fill:none"/><path id="rank-text" d="M44.866 99.974q0-4.043-6.258-4.043h-6.48l-4.078 17.661h3.89l1.547-6.727h2.5l3.973 6.727h4.406l-4.539-7.492q5.039-1.956 5.039-6.129zm-7.559-1.336a4.779 4.779 0 0 1 2.766.551 1.865 1.865 0 0 1 .691 1.547 3.367 3.367 0 0 1-.633 2.069 3.068 3.068 0 0 1-1.594 1.142 8.578 8.578 0 0 1-2.449.293h-2.015l1.3-5.6h1.934zm21.353-2.706h-4.29l-10.77 17.66h4.125l2.25-3.868H56.9l.457 3.868h3.867zm-7.125 11.121 4.172-7.161.867 7.161h-5.039zM78.57 95.932l-2.625 11.391-4.711-11.391h-4.312l-4.078 17.661h3.609l2.953-12.786 5.285 12.786H78.1l4.078-17.66H78.57zm18.059 0-8.789 8.3 1.922-8.3h-3.891l-4.078 17.661h3.867L87 107.8l1.758-1.582 4.406 7.371h4.395l-5.508-9.141 9.246-8.519h-4.668z" style="fill:url(#linear-gradient-3);fill-rule:evenodd"/><path id="text-outline" d="m72 44 10-9a24.583 24.583 0 0 0-11-10c-10.24-4.53-21.656.716-27 4a37.225 37.225 0 0 0-17 26c-1.69 11.04.391 18.772 5 24 6.316 7.164 16.3 8.225 22 8a32.719 32.719 0 0 0 22-10l4-26H55l-2 12h13l-1 7c-5.469 4.815-12.33 5.666-17 3-4-2.282-6.294-7.194-6-16a22.589 22.589 0 0 1 6-15c4.8-4.965 9.125-6.439 13-6a14.649 14.649 0 0 1 11 8z" style="stroke:url(#linear-gradient-4);stroke-width:6px;fill-rule:evenodd;stroke-linecap:round;stroke-linejoin:round;fill:none"/><path id="text" d="m72 44 10-9a24.583 24.583 0 0 0-11-10c-10.24-4.53-21.656.716-27 4a37.225 37.225 0 0 0-17 26c-1.69 11.04.391 18.772 5 24 6.316 7.164 16.3 8.225 22 8a32.719 32.719 0 0 0 22-10l4-26H55l-2 12h13l-1 7c-5.469 4.815-12.33 5.666-17 3-4-2.282-6.294-7.194-6-16a22.589 22.589 0 0 1 6-15c4.8-4.965 9.125-6.439 13-6a14.649 14.649 0 0 1 11 8z" style="fill:url(#linear-gradient-5);fill-rule:evenodd"/><path id="plus-outline" d="M108 53h-8v8a3 3 0 0 1-3 3h-3a3 3 0 0 1-3-3v-8h-8a3 3 0 0 1-3-3v-3a3 3 0 0 1 3-3h8v-8a3 3 0 0 1 3-3h3a3 3 0 0 1 3 3v8h8a3 3 0 0 1 3 3v3a3 3 0 0 1-3 3z" style="stroke:url(#linear-gradient-6);stroke-width:6px;fill-rule:evenodd;stroke-linecap:round;stroke-linejoin:round;fill:none"/><path id="plus" d="M108 53h-8v8a3 3 0 0 1-3 3h-3a3 3 0 0 1-3-3v-8h-8a3 3 0 0 1-3-3v-3a3 3 0 0 1 3-3h8v-8a3 3 0 0 1 3-3h3a3 3 0 0 1 3 3v8h8a3 3 0 0 1 3 3v3a3 3 0 0 1-3 3z" style="fill:url(#linear-gradient-7);fill-rule:evenodd"/></svg>