<svg id="support_general.svg" data-name="support/general.svg" xmlns="http://www.w3.org/2000/svg" width="496" height="496" viewBox="0 0 496 496">
  <defs>
    <style>
      .cls-1 {
        fill: #55ab33;
      }

      .cls-2 {
        fill: #87d03f;
      }

      .cls-3 {
        fill: #c0e838;
      }

      .cls-4 {
        fill: #8ad114;
      }

      .cls-4, .cls-5, .cls-6 {
        fill-rule: evenodd;
      }

      .cls-5 {
        fill: #fff8d8;
      }

      .cls-6 {
        fill: #e6dce3;
      }
    </style>
  </defs>
  <rect id="background" class="cls-1" x="25" y="25" width="446" height="446"/>
  <circle id="effect_outer" class="cls-2" cx="248.5" cy="252.5" r="224.5"/>
  <circle id="effect_inner" class="cls-3" cx="250.062" cy="251.188" r="174"/>
  <path id="character_shadow" class="cls-4" d="M203,72a57.016,57.016,0,0,1,33,30,61.5,61.5,0,0,1,53,0,61.844,61.844,0,0,1,19-25,61.136,61.136,0,0,1,19-10,73.944,73.944,0,0,1-16,51,60.8,60.8,0,0,1-23,90q0.5,5,1,10a93.66,93.66,0,0,0,86-54c-5.029-9.008-8.8-22.156-3-31,9.653-14.719,42.318-11.315,53,5,2.435,3.718,5.833,11.363,3,20-2.881,8.783-11.558,15.621-23,17a128.06,128.06,0,0,1-107,75l10,51a31.891,31.891,0,0,1,15-5c23.06-1.34,35.035,26.48,58,25,5.89-.379,10.94-2.3,14-6,5.357-6.476,4.958-18.429-3-32a19,19,0,0,1,9,3,19.369,19.369,0,0,1,8,11l4-6c7.051,9.054,10.1,20.84,7,32a34.621,34.621,0,0,1-11,17,25.739,25.739,0,0,0,16-3c-5.231,9.143-12.7,16.271-22,20-17.612,7.065-35.108-.409-43-5-19.064-11.089-28.05-40.644-42-40a12.313,12.313,0,0,0-6,2l23,97c20.26,2,32.815,16.055,32,28-0.857,12.557-15.514,19.283-20,21-5.939,2.273-19.179,5.447-31-3a31.8,31.8,0,0,1-13-28l-21-81-37-1-19,75c4.126,11.35,1.746,23.752-6,32-10.585,11.27-26.35,10.2-36,6-4.31-1.876-17-8.555-18-21-0.979-12.193,10.04-25.839,28-29l36-163c-28.906.194-56.971-9.325-79-28a117.756,117.756,0,0,1-33-46c-8.774-3.376-16.623-10.568-18-20-2.056-14.079,11.648-25.93,24-29,7.683-1.909,23.468-2.473,31,10,5.945,9.846,3.9,23.869-6,33a86.98,86.98,0,0,0,21,28c18.351,16.161,42.523,23.295,67,22v-8a60.4,60.4,0,0,1-22-91A56.309,56.309,0,0,1,203,72Z" transform="translate(-8 -8)"/>
  <path id="character" class="cls-5" d="M197,65.976a56.907,56.907,0,0,1,33,29.853,61.775,61.775,0,0,1,53,0A61.014,61.014,0,0,1,321,61a73.351,73.351,0,0,1-16,50.75,60.364,60.364,0,0,1-23,89.56q0.5,4.976,1,9.951a93.691,93.691,0,0,0,86-53.736c-5.029-8.963-8.8-22.047-3-30.848,9.653-14.647,42.318-11.259,53,4.976,2.435,3.7,5.833,11.307,3,19.9-2.881,8.74-11.558,15.544-23,16.917a128.071,128.071,0,0,1-107,74.633l10,50.75a32,32,0,0,1,15-4.976c23.06-1.333,35.035,26.351,58,24.878,5.89-.378,10.94-2.29,14-5.971,5.357-6.444,4.958-18.339-3-31.843a19.074,19.074,0,0,1,9,2.985,19.283,19.283,0,0,1,8,10.947l4-5.971c7.051,9.01,10.1,20.738,7,31.843a34.435,34.435,0,0,1-11,16.917,25.851,25.851,0,0,0,16-2.985c-5.231,9.1-12.7,16.191-22,19.9-17.612,7.03-35.108-.408-43-4.976-19.064-11.034-28.05-40.444-42-39.8a12.357,12.357,0,0,0-6,1.99l23,96.526c20.26,1.99,32.815,15.976,32,27.863-0.857,12.5-15.514,19.188-20,20.9-5.939,2.262-19.179,5.42-31-2.985a31.58,31.58,0,0,1-13-27.863l-21-80.6-37-1-19,74.633c4.126,11.294,1.746,23.636-6,31.843-10.585,11.215-26.35,10.151-36,5.971-4.31-1.867-17-8.513-18-20.9-0.979-12.134,10.04-25.712,28-28.858l36-162.2c-28.906.193-56.971-9.279-79-27.863a117.2,117.2,0,0,1-33-45.775c-8.774-3.359-16.623-10.516-18-19.9-2.056-14.01,11.648-25.8,24-28.858,7.682-1.9,23.468-2.461,31,9.951,5.945,9.8,3.9,23.752-6,32.839a86.6,86.6,0,0,0,21,27.863c18.351,16.081,42.523,23.18,67,21.892v-7.961a59.95,59.95,0,0,1-22-90.555A55.842,55.842,0,0,1,197,65.976Z" transform="translate(-8 -8)"/>
  <path id="twinkle" class="cls-5" d="M446.4,76.4q-26.6,1.4-28,28a1.4,1.4,0,0,1-2.8,0q-1.4-26.6-28-28a1.4,1.4,0,0,1,0-2.8q26.6-1.4,28-28a1.4,1.4,0,0,1,2.8,0q1.4,26.6,28,28A1.4,1.4,0,0,1,446.4,76.4ZM136.075,320.575q-10.924.575-11.5,11.5a0.576,0.576,0,0,1-1.15,0q-0.574-10.925-11.5-11.5a0.576,0.576,0,0,1,0-1.15q10.925-.575,11.5-11.5a0.576,0.576,0,0,1,1.15,0q0.574,10.925,11.5,11.5A0.576,0.576,0,0,1,136.075,320.575Zm-45.45-70.45q-21.375,1.125-22.5,22.5a1.127,1.127,0,0,1-2.25,0q-1.125-21.375-22.5-22.5a1.127,1.127,0,0,1,0-2.25q21.375-1.125,22.5-22.5a1.127,1.127,0,0,1,2.25,0q1.125,21.375,22.5,22.5A1.127,1.127,0,0,1,90.625,250.125Z" transform="translate(-8 -8)"/>
  <path id="frame" class="cls-6" d="M40,8H472a32,32,0,0,1,32,32V472a32,32,0,0,1-32,32H40A32,32,0,0,1,8,472V40A32,32,0,0,1,40,8ZM60,36H452a24,24,0,0,1,24,24V452a24,24,0,0,1-24,24H60a24,24,0,0,1-24-24V60A24,24,0,0,1,60,36Z" transform="translate(-8 -8)"/>
</svg>
