<svg xmlns="http://www.w3.org/2000/svg" width="1024" height="128"><defs><linearGradient id="a" x1="512" y1="116" x2="512" y2="12" gradientUnits="userSpaceOnUse"><stop offset="0" stop-color="#d98cb5"/><stop offset="1" stop-color="#9777b2"/></linearGradient><linearGradient id="b" x1="512.5" y1="116" x2="512.5" y2="12" gradientUnits="userSpaceOnUse"><stop offset="0" stop-color="#f8e3f2"/><stop offset="1" stop-color="#fffdff"/></linearGradient></defs><path d="m25 46 7-24h113l4-9h35l-3 9h216l-12 35h11l15 4 91-29-8 24h110l14-34h85l4-9h37l-14 43h89l11-35h28l-8 26h56l11-35h36l-13 44h59l-9 25h-75l-10 35H799l11-35-143-1-12 35h-26l10-34H460l-11 34h-26l10-36-31 10 2-9h-53l-12 35h-26l11-35h-63l-12 34h-55l9-34h-25l10-33h-52l-23 67H88l23-68H25z" style="fill-rule:evenodd;stroke-linecap:round;stroke-linejoin:round;stroke-width:22px;fill:url(#a);stroke:url(#a)"/><path d="M929 46.667 940 12h14l-11 34.667h-14zm-22 0L918 12h13l-10 34.667h-14zM897 73.41h-55l-5 15.848h77L906 116H800l31-95.086h28l-8 25.752h55zm-182 7.923 9-25.752h82l-9 25.752h-82zm5-34.667 11-33.676h14l-12 33.677h-13zm-15 0h-95l9-24.766h85l4-8.914h14l-12 33.681h-5zm0 33.676h-37l-12 34.668h-26l11-34.667h-47l8-23.771h112zm-203 .99 9-25.752h82l-9 25.752h-82zm-37-11.884-15 45.562h-26l10-35.658-31 9.9 8-27.733 92-29.709-9 27.733zm-113 10.9-12 34.662h-26l11-34.667h-47l8-23.771h112l-9 23.771h-37zm-58-33.681 9-24.767h95l-9 24.762h-95zm-99 67.352 8-23.771h29L255 21.9h27l-32 92.114h-55zm-17-33.676L197 21.9h26l-19 58.443h-26zm-41-33.676-23 67.352H89l23-67.352H25L33 21.9h113l4-8.914h35l-12 33.681h-36zm23-25.752-6 17.829h9l6-17.829h-9zm758 34.666h82l-9 25.752h-82z" style="fill:url(#b);fill-rule:evenodd"/></svg>