<svg xmlns="http://www.w3.org/2000/svg" width="1280" height="720" viewBox="0 0 1280 720">
  <defs>
    <style>
      .cls-1 {
        fill: #da9598;
      }

      .cls-1, .cls-2, .cls-3, .cls-4, .cls-5, .cls-6, .cls-7, .cls-8 {
        fill-rule: evenodd;
      }

      .cls-2 {
        fill: #3f181b;
      }

      .cls-3 {
        fill: #e57d7c;
      }

      .cls-4 {
        fill: #f7f7f7;
      }

      .cls-5 {
        fill: #fae8d2;
      }

      .cls-6 {
        fill: #a16368;
      }

      .cls-7 {
        fill: #632e40;
      }

      .cls-8 {
        fill: #f3efee;
      }
    </style>
  </defs>
  <path id="throat" class="cls-1" d="M409,656l125,73-148,1-21-77Z"/>
  <path id="mouth_shadow" class="cls-2" d="M537,511l201,28L708,696l-53,2L583,582l-60-26Z"/>
  <path id="tongue" class="cls-3" d="M511,560a150.8,150.8,0,0,1,38-6c37.671-1.044,68.227,8.919,90,28,19.868,17.412,33.787,43.572,39,78a144.933,144.933,0,0,1,1,35l-162,5-18-27-2-73Z"/>
  <path id="tooth" class="cls-4" d="M551,517a163.648,163.648,0,0,0,33,26c14.942,8.914,44.424,18.983,78,24,12.887,1.926,25.834,3.253,39,4a130.927,130.927,0,0,0,31-30L604,497Z"/>
  <path id="face" class="cls-5" d="M884,115c17.318,43.36,26.875,88.44,27,135,0.2,74-23.416,119.245-46,191a874.912,874.912,0,0,0-29,123c-7.211,30.756-20.108,58.887-40,83-20.507,24.858-41.973,36.2-69,57a533.858,533.858,0,0,0-42,36l-128-1a478.189,478.189,0,0,1-158-96L327,253,395-49l427-1ZM707,664c-2.032,10.227-6.124,18.12-13,22-10.734,6.056-22.748-.8-42-5a138.585,138.585,0,0,0-23-3,163.633,163.633,0,0,0-29,2c-11.255,1.81-26.528,6.8-42,8a135.313,135.313,0,0,1-21,0,26.814,26.814,0,0,1-12-3c-15.473-8.231-23.257-34.11-16-70a138.081,138.081,0,0,1,13-39c9.917-19.361,33.689-55.451,69-60a71.058,71.058,0,0,1,27,2c12.73,3.394,22.761,10.811,29,15,18.428,12.374,43.1,17.188,74,15a5.7,5.7,0,0,1,5-1,5.97,5.97,0,0,1,4,6q-0.456,11.025-2,22c-2.207,15.675-6.56,30.754-10,42A375.247,375.247,0,0,0,707,664Z"/>
  <path id="eyebrow_left" class="cls-6" d="M769,271c10.729-10.437,21.591-20.312,33-30,11.108-9.433,22.295-18.317,34-27l36-19a41.362,41.362,0,0,1,31-2v3a31.681,31.681,0,0,0-29,1l-37,26c-16.645,11.487-46.72,36.532-46,36-29.53,21.824-31.8,35.509-32,36a113.914,113.914,0,0,1,12-32Z"/>
  <path id="eyebrow_right" class="cls-6" d="M621,246a88.634,88.634,0,0,1-21-20l-45-49-6,5c7.664,7.065,14.936,14.337,22,22,6.288,6.821,12.22,13.742,18,21,2.936,3.436,5.892,6.719,9,10,3.267,3.448,6.551,6.733,10,10a38.317,38.317,0,0,0,14,8,39.4,39.4,0,0,0,26-1,35.519,35.519,0,0,1-17-1A35.106,35.106,0,0,1,621,246Z"/>
  <path id="hair_right" class="cls-7" d="M426-12a1165.069,1165.069,0,0,0-39,173c-29.112,198.839-5.811,400.98,64,596H418l-43-94,20,70-255-3A334.637,334.637,0,0,1,16,548,498.749,498.749,0,0,0,76,745l-23-1a426.7,426.7,0,0,1-68-91L-21-48Z"/>
  <path id="headband" class="cls-8" d="M188,7a289.088,289.088,0,0,0-79,26L87,2A170.63,170.63,0,0,0,36,12L25-7-11-19l-5,123L24,84l40,40,36-23,40,40c4.6-16.59,9.53-32.681,15-49C164.68,63.122,175.647,34.873,188,7Z"/>
  <path id="hair_left" class="cls-7" d="M985-25a908.271,908.271,0,0,1,40,146c10.78,57.932,15.86,145.176,13,234-3.05,94.549-15.46,188.073-31,245a871.134,871.134,0,0,1-51,139l-18,3a344.516,344.516,0,0,0,40-128,679.317,679.317,0,0,1-32,76c-7.778,15.727-16.03,30.911-25,46l-81,2,9-82L806,756,675,741a473.855,473.855,0,0,1,37-32c31.12-24.192,57.717-38.023,81-66,22.372-26.882,36.533-58.74,44-94a789.176,789.176,0,0,1,31-130c21.119-63.629,39.9-104.454,39-168-0.537-37.773-7.865-74.489-21-110a396.687,396.687,0,0,0,4-167Z"/>
  <path id="hair_front" class="cls-8" d="M891-23a479.624,479.624,0,0,1,4,122c-7.859,82.193-37,160.585-84,230a770.322,770.322,0,0,0,28-141,768.826,768.826,0,0,0,4-86,355.291,355.291,0,0,1-94,167,354.236,354.236,0,0,1-138,85,298.188,298.188,0,0,0,48-63c17.381-30.559,26.5-59.144,34-93,12.541-56.572,23.777-135.375,31-207a325.512,325.512,0,0,1-65,111c-13.5,15.052-32.3,31.757-54,48-33.2,24.854-68.925,40.959-99,60-17.131,10.846-31.514,21.736-49,32a591.832,591.832,0,0,1-82,40A952.915,952.915,0,0,1,443-60l433-5Z"/>
</svg>
