<svg id="buff_positioning.svg" data-name="buff/positioning.svg" xmlns="http://www.w3.org/2000/svg" width="496" height="496" viewBox="0 0 496 496">
  <defs>
    <style>
      .cls-1 {
        fill: #f99c36;
      }

      .cls-2 {
        fill: #f6ffff;
      }

      .cls-2, .cls-3, .cls-4, .cls-5, .cls-6 {
        fill-rule: evenodd;
      }

      .cls-3 {
        fill: #fa8a12;
      }

      .cls-4 {
        fill: #fff7db;
      }

      .cls-5 {
        fill: #fff8d8;
      }

      .cls-6 {
        fill: #e6dce3;
      }
    </style>
  </defs>
  <rect id="background" class="cls-1" x="25" y="25" width="446" height="446"/>
  <path id="twinkle" class="cls-2" d="M365,428.012Q362.949,389.051,323.988,387q38.961-2.051,41.012-41.012,2.051,38.961,41.012,41.012Q367.051,389.051,365,428.012Zm-222-122Q141.5,277.5,112.992,276,141.5,274.5,143,245.992,144.5,274.5,173.008,276,144.5,277.5,143,306.008Z" transform="translate(-8 -8)"/>
  <path id="shoe_shadow" class="cls-3" d="M354,320a9.158,9.158,0,0,1-4,6l-16,16a5.015,5.015,0,0,1-9-2l-6-11-16,19,4,7-3,10a181.574,181.574,0,0,1-133,69l-12-14a229.057,229.057,0,0,0,41-8,212.122,212.122,0,0,0,44-18c18.273-10.233,46.013-36.293,71-71,8.846-12.287,17.115-24.859,25-38l13,29A9.105,9.105,0,0,1,354,320Zm-27-29c-6.793,7.834-13.1,15.8-19,24-14.194,19.731-22.018,34.136-40,50a156.363,156.363,0,0,1-25,18,207.722,207.722,0,0,1-79,28,10.684,10.684,0,0,1-15-5l-4-8a11.985,11.985,0,0,1,2-16,59.308,59.308,0,0,1,10-19c6.843-8.633,17.539-14.934,22-19,4.115-3.751,11.228-13.239,17-23a149.759,149.759,0,0,0,19-55,19.812,19.812,0,0,1,31-14,40.113,40.113,0,0,0,42-10,16.139,16.139,0,0,1,14-10,15.958,15.958,0,0,1,13,6,39.84,39.84,0,0,1,17,28A20.816,20.816,0,0,1,327,291Z" transform="translate(-8 -8)"/>
  <path id="shoe" class="cls-4" d="M353,311a9.158,9.158,0,0,1-4,6l-16,16a5.015,5.015,0,0,1-9-2l-6-11-16,19,4,7-3,10a181.574,181.574,0,0,1-133,69l-12-14a229.057,229.057,0,0,0,41-8,212.122,212.122,0,0,0,44-18c18.273-10.233,46.013-36.293,71-71,8.846-12.287,17.115-24.859,25-38l13,29A9.105,9.105,0,0,1,353,311Zm-27-29c-6.793,7.834-13.1,15.8-19,24-14.194,19.731-22.018,34.136-40,50a156.363,156.363,0,0,1-25,18,207.722,207.722,0,0,1-79,28,10.684,10.684,0,0,1-15-5l-4-8a11.985,11.985,0,0,1,2-16,59.308,59.308,0,0,1,10-19c6.843-8.633,17.539-14.934,22-19,4.115-3.751,11.228-13.239,17-23a149.759,149.759,0,0,0,19-55,19.812,19.812,0,0,1,31-14,40.113,40.113,0,0,0,42-10,16.139,16.139,0,0,1,14-10,15.958,15.958,0,0,1,13,6,39.84,39.84,0,0,1,17,28A20.816,20.816,0,0,1,326,282Z" transform="translate(-8 -8)"/>
  <path id="arrow_shadow" class="cls-3" d="M463.285,158.868l-82.124,76.321a4,4,0,0,1-6.724-2.93V194H141.562v38.259a4,4,0,0,1-6.723,2.93L52.715,158.868a4,4,0,0,1,0-5.861l82.124-76.321a4,4,0,0,1,6.723,2.93V124H374.437V79.616a4,4,0,0,1,6.724-2.93l82.124,76.322A4,4,0,0,1,463.285,158.868Z" transform="translate(-8 -8)"/>
  <path id="arrow" class="cls-5" d="M463.285,146.868l-82.124,76.321a4,4,0,0,1-6.724-2.93V182H141.562v38.259a4,4,0,0,1-6.723,2.93L52.715,146.868a4,4,0,0,1,0-5.861l82.124-76.321a4,4,0,0,1,6.723,2.93V112H374.437V67.616a4,4,0,0,1,6.724-2.93l82.124,76.322A4,4,0,0,1,463.285,146.868Z" transform="translate(-8 -8)"/>
  <path id="frame" class="cls-6" d="M40,8H472a32,32,0,0,1,32,32V472a32,32,0,0,1-32,32H40A32,32,0,0,1,8,472V40A32,32,0,0,1,40,8ZM60,36H452a24,24,0,0,1,24,24V452a24,24,0,0,1-24,24H60a24,24,0,0,1-24-24V60A24,24,0,0,1,60,36Z" transform="translate(-8 -8)"/>
</svg>
