<svg id="support_power.svg" data-name="support/power.svg" xmlns="http://www.w3.org/2000/svg" width="496" height="496" viewBox="0 0 496 496">
  <defs>
    <style>
      .cls-1 {
        fill: #55ab33;
      }

      .cls-2 {
        fill: #87d03f;
      }

      .cls-3 {
        fill: #c0e838;
      }

      .cls-4 {
        fill: #8ad114;
      }

      .cls-4, .cls-5, .cls-6, .cls-7 {
        fill-rule: evenodd;
      }

      .cls-5 {
        fill: #fff9da;
      }

      .cls-6 {
        fill: #fffef5;
      }

      .cls-7 {
        fill: #e6dce3;
      }
    </style>
  </defs>
  <rect id="background" class="cls-1" x="25" y="25" width="446" height="446"/>
  <circle id="effect_outer" class="cls-2" cx="248.5" cy="252.5" r="224.5"/>
  <circle id="effect_inner" class="cls-3" cx="250.062" cy="251.188" r="174"/>
  <path id="arm_shadow" class="cls-4" d="M124,348l57-179a43.489,43.489,0,0,1,27-28l58-14c8.825-.328,17.534,2.131,24,8,12.29,11.157,11.638,30.16,6,42-2.46,5.167-15.89,16.993-37,24-18.14,6.021-35.356,5.651-42,4a62.4,62.4,0,0,1-24-12c0.588,9.805,5.04,19.11,13,25a31.68,31.68,0,0,0,16,6L212,327h33a57.144,57.144,0,0,0,43,58c-15.024-14.048-27.237-34.357-24-55,5.765-36.761,58.615-59.751,97-46,18.314,6.561,46.812,26.5,45,58-1.487,25.855-23.389,49.5-54,54H144a21.387,21.387,0,0,1-10-3C123.629,386.63,118.555,369.753,124,348Z" transform="translate(-8 -8)"/>
  <path id="arm" class="cls-5" d="M118,342l57-179a43.489,43.489,0,0,1,27-28l58-14c8.825-.328,17.534,2.131,24,8,12.29,11.157,11.638,30.16,6,42-2.46,5.167-15.89,16.993-37,24-18.14,6.021-35.356,5.651-42,4a62.4,62.4,0,0,1-24-12c0.588,9.805,5.04,19.11,13,25a31.68,31.68,0,0,0,16,6L206,321h33a57.144,57.144,0,0,0,43,58c-15.024-14.048-27.237-34.357-24-55,5.765-36.761,58.615-59.751,97-46,18.314,6.561,46.812,26.5,45,58-1.487,25.855-23.389,49.5-54,54H138a21.387,21.387,0,0,1-10-3C117.629,380.63,112.555,363.753,118,342Z" transform="translate(-8 -8)"/>
  <path id="twinkle" class="cls-6" d="M446.2,427.115q-22.8,1.2-23.994,24a1.2,1.2,0,0,1-2.4,0q-1.2-22.8-24-24a1.2,1.2,0,0,1,0-2.4q22.8-1.2,23.994-24a1.2,1.2,0,0,1,2.4,0q1.2,22.8,24,24A1.2,1.2,0,0,1,446.2,427.115Zm-1.328-65.74q-7.125.375-7.5,7.5a0.376,0.376,0,0,1-.75,0q-0.375-7.125-7.5-7.5a0.376,0.376,0,0,1,0-.75q7.125-.375,7.5-7.5a0.376,0.376,0,0,1,.75,0q0.375,7.125,7.5,7.5A0.376,0.376,0,0,1,444.875,361.375ZM366.25,430.25q-4.75.25-5,5a0.25,0.25,0,0,1-.5,0q-0.25-4.75-5-5a0.25,0.25,0,0,1,0-.5q4.75-.25,5-5a0.25,0.25,0,0,1,.5,0q0.25,4.75,5,5A0.25,0.25,0,0,1,366.25,430.25ZM156.9,88.9q-17.1.9-17.995,18a0.9,0.9,0,0,1-1.8,0q-0.9-17.1-18-18a0.9,0.9,0,0,1,0-1.8q17.1-.9,18-18a0.9,0.9,0,0,1,1.8,0q0.9,17.1,18,18A0.9,0.9,0,0,1,156.9,88.9Zm-47.274,43.215q-21.373,1.128-22.495,22.5a1.126,1.126,0,0,1-2.25,0q-1.128-21.372-22.5-22.494a1.127,1.127,0,0,1,0-2.25q21.372-1.127,22.495-22.5a1.126,1.126,0,0,1,2.25,0q1.128,21.372,22.5,22.494A1.127,1.127,0,0,1,109.628,132.112ZM68.675,86.175a3.307,3.307,0,0,0-3.5,3.5,0.175,0.175,0,0,1-.35,0,3.307,3.307,0,0,0-3.5-3.5,0.175,0.175,0,0,1,0-.35,3.307,3.307,0,0,0,3.5-3.5,0.175,0.175,0,0,1,.35,0,3.307,3.307,0,0,0,3.5,3.5A0.175,0.175,0,0,1,68.675,86.175ZM130.75,134.75q4.75-.25,5-5a0.25,0.25,0,0,1,.5,0q0.25,4.75,5,5a0.25,0.25,0,0,1,0,.5q-4.75.25-5,5a0.25,0.25,0,0,1-.5,0q-0.25-4.75-5-5A0.25,0.25,0,0,1,130.75,134.75Z" transform="translate(-8 -8)"/>
  <path id="frame" class="cls-7" d="M40,8H472a32,32,0,0,1,32,32V472a32,32,0,0,1-32,32H40A32,32,0,0,1,8,472V40A32,32,0,0,1,40,8ZM60,36H452a24,24,0,0,1,24,24V452a24,24,0,0,1-24,24H60a24,24,0,0,1-24-24V60A24,24,0,0,1,60,36Z" transform="translate(-8 -8)"/>
</svg>
