<svg xmlns="http://www.w3.org/2000/svg" width="128" height="128"><defs><linearGradient id="a" x1="64" y1="113.688" x2="64" y2="14.625" gradientUnits="userSpaceOnUse"><stop offset="0" stop-color="#8b611e"/><stop offset="1" stop-color="#cd8a30"/></linearGradient><linearGradient id="b" x1="64" y1="113.688" x2="64" y2="14.625" gradientUnits="userSpaceOnUse"><stop offset="0" stop-color="#e4ba44"/><stop offset="1" stop-color="#fdf7d7"/></linearGradient></defs><path d="m83 43 16-14a47.254 47.254 0 0 0-28-14c-8.893-1.041-23.1-.4-32 9-3.748 3.96-9.483 12.346-8 23 1.144 8.215 6.551 14.81 12 19 10.844 8.339 28.259 5.788 33 15a10.744 10.744 0 0 1 0 10c-3.172 5.409-12.275 5.669-18 4-7.374-2.15-12.661-8.511-15-16L27 91a44.5 44.5 0 0 0 17 17c14 7.711 34.458 8.407 47-3 4.063-3.695 9.743-10.818 10-20 .253-9.068-4.745-16.614-9-21-12.24-12.617-35.3-9.441-39-20a9.086 9.086 0 0 1 1-8c3.439-4.964 12.827-4.642 19-2a21.666 21.666 0 0 1 10 9z" style="fill-rule:evenodd;fill:none;stroke-linecap:round;stroke-linejoin:round;stroke-width:12px;stroke:url(#a)"/><path d="m83 43 16-14a47.254 47.254 0 0 0-28-14c-8.893-1.041-23.1-.4-32 9-3.748 3.96-9.483 12.346-8 23 1.144 8.215 6.551 14.81 12 19 10.844 8.339 28.259 5.788 33 15a10.744 10.744 0 0 1 0 10c-3.172 5.409-12.275 5.669-18 4-7.374-2.15-12.661-8.511-15-16L27 91a44.5 44.5 0 0 0 17 17c14 7.711 34.458 8.407 47-3 4.063-3.695 9.743-10.818 10-20 .253-9.068-4.745-16.614-9-21-12.24-12.617-35.3-9.441-39-20a9.086 9.086 0 0 1 1-8c3.439-4.964 12.827-4.642 19-2a21.666 21.666 0 0 1 10 9z" style="fill:url(#b);fill-rule:evenodd"/></svg>