<svg id="support_speed.svg" data-name="support/speed.svg" xmlns="http://www.w3.org/2000/svg" width="496" height="496" viewBox="0 0 496 496">
  <defs>
    <style>
      .cls-1 {
        fill: #55ab33;
      }

      .cls-2 {
        fill: #87d03f;
      }

      .cls-3 {
        fill: #c0e838;
      }

      .cls-4 {
        fill: #8ad114;
      }

      .cls-4, .cls-5, .cls-6, .cls-7, .cls-8 {
        fill-rule: evenodd;
      }

      .cls-5 {
        fill: #fff9d9;
      }

      .cls-6 {
        fill: #fff7da;
      }

      .cls-7 {
        fill: #fffef5;
      }

      .cls-8 {
        fill: #e6dce3;
      }
    </style>
  </defs>
  <rect id="background" class="cls-1" x="25" y="25" width="446" height="446"/>
  <circle id="effect_outer" class="cls-2" cx="248.5" cy="252.5" r="224.5"/>
  <circle id="effect_inner" class="cls-3" cx="250.062" cy="251.188" r="174"/>
  <path id="shoe_shadow" class="cls-4" d="M273,358H108a5.122,5.122,0,0,1-5-3,4.453,4.453,0,0,1,0-3V310a18.774,18.774,0,0,1,1-7c1.239-3.549,6.94-10.383,18-15a53.19,53.19,0,0,1,18-4h21V239a6,6,0,0,1,6-6H273a6,6,0,0,1,6,6V352A6,6,0,0,1,273,358Zm0-144H167a6,6,0,0,1-6-6V181a6,6,0,0,1,6-6H273a6,6,0,0,1,6,6v27A6,6,0,0,1,273,214Z" transform="translate(-8 -8)"/>
  <path id="shoe" class="cls-5" d="M267,352H102a5.122,5.122,0,0,1-5-3,4.45,4.45,0,0,1,0-3V304a18.762,18.762,0,0,1,1-7c1.239-3.549,6.94-10.383,18-15a53.19,53.19,0,0,1,18-4h21V233a6,6,0,0,1,6-6H267a6,6,0,0,1,6,6V346A6,6,0,0,1,267,352Zm0-144H161a6,6,0,0,1-6-6V175a6,6,0,0,1,6-6H267a6,6,0,0,1,6,6v27A6,6,0,0,1,267,208Z" transform="translate(-8 -8)"/>
  <path id="particle_shadow" class="cls-4" d="M434,233H322a6,6,0,0,1-6-6V213a6,6,0,0,1,6-6H434a6,6,0,0,1,6,6v14A6,6,0,0,1,434,233ZM322,257h69a6,6,0,0,1,6,6v14a6,6,0,0,1-6,6H322a6,6,0,0,1-6-6V263A6,6,0,0,1,322,257Zm0,50h38a6,6,0,0,1,6,6v14a6,6,0,0,1-6,6H322a6,6,0,0,1-6-6V313A6,6,0,0,1,322,307Z" transform="translate(-8 -8)"/>
  <path id="particle" class="cls-6" d="M430,227H318a6,6,0,0,1-6-6V207a6,6,0,0,1,6-6H430a6,6,0,0,1,6,6v14A6,6,0,0,1,430,227ZM318,251h69a6,6,0,0,1,6,6v14a6,6,0,0,1-6,6H318a6,6,0,0,1-6-6V257A6,6,0,0,1,318,251Zm0,50h38a6,6,0,0,1,6,6v14a6,6,0,0,1-6,6H318a6,6,0,0,1-6-6V307A6,6,0,0,1,318,301Z" transform="translate(-8 -8)"/>
  <path id="twinkle" class="cls-7" d="M446.2,427.115q-22.8,1.2-23.994,24a1.2,1.2,0,0,1-2.4,0q-1.2-22.8-24-24a1.2,1.2,0,0,1,0-2.4q22.8-1.2,23.994-24a1.2,1.2,0,0,1,2.4,0q1.2,22.8,24,24A1.2,1.2,0,0,1,446.2,427.115Zm-1.328-65.74q-7.125.375-7.5,7.5a0.376,0.376,0,0,1-.75,0q-0.375-7.125-7.5-7.5a0.376,0.376,0,0,1,0-.75q7.125-.375,7.5-7.5a0.376,0.376,0,0,1,.75,0q0.375,7.125,7.5,7.5A0.376,0.376,0,0,1,444.875,361.375ZM366.25,430.25q-4.75.25-5,5a0.25,0.25,0,0,1-.5,0q-0.25-4.75-5-5a0.25,0.25,0,0,1,0-.5q4.75-.25,5-5a0.25,0.25,0,0,1,.5,0q0.25,4.75,5,5A0.25,0.25,0,0,1,366.25,430.25ZM156.9,88.9q-17.1.9-17.995,18a0.9,0.9,0,0,1-1.8,0q-0.9-17.1-18-18a0.9,0.9,0,0,1,0-1.8q17.1-.9,18-18a0.9,0.9,0,0,1,1.8,0q0.9,17.1,18,18A0.9,0.9,0,0,1,156.9,88.9Zm-47.274,43.215q-21.373,1.128-22.495,22.5a1.126,1.126,0,0,1-2.25,0q-1.128-21.372-22.5-22.494a1.127,1.127,0,0,1,0-2.25q21.372-1.127,22.495-22.5a1.126,1.126,0,0,1,2.25,0q1.128,21.372,22.5,22.494A1.127,1.127,0,0,1,109.628,132.112ZM68.675,86.175a3.307,3.307,0,0,0-3.5,3.5,0.175,0.175,0,0,1-.35,0,3.307,3.307,0,0,0-3.5-3.5,0.175,0.175,0,0,1,0-.35,3.307,3.307,0,0,0,3.5-3.5,0.175,0.175,0,0,1,.35,0,3.307,3.307,0,0,0,3.5,3.5A0.175,0.175,0,0,1,68.675,86.175ZM130.75,134.75q4.75-.25,5-5a0.25,0.25,0,0,1,.5,0q0.25,4.75,5,5a0.25,0.25,0,0,1,0,.5q-4.75.25-5,5a0.25,0.25,0,0,1-.5,0q-0.25-4.75-5-5A0.25,0.25,0,0,1,130.75,134.75Z" transform="translate(-8 -8)"/>
  <path id="frame" class="cls-8" d="M40,8H472a32,32,0,0,1,32,32V472a32,32,0,0,1-32,32H40A32,32,0,0,1,8,472V40A32,32,0,0,1,40,8ZM60,36H452a24,24,0,0,1,24,24V452a24,24,0,0,1-24,24H60a24,24,0,0,1-24-24V60A24,24,0,0,1,60,36Z" transform="translate(-8 -8)"/>
</svg>
