<svg id="support_stamina.svg" data-name="support/stamina.svg" xmlns="http://www.w3.org/2000/svg" width="496" height="496" viewBox="0 0 496 496">
  <defs>
    <style>
      .cls-1 {
        fill: #55ab33;
      }

      .cls-2 {
        fill: #87d03f;
      }

      .cls-3 {
        fill: #c0e838;
      }

      .cls-4 {
        fill: #8ad114;
      }

      .cls-4, .cls-5, .cls-6, .cls-7 {
        fill-rule: evenodd;
      }

      .cls-5 {
        fill: #fff9d9;
      }

      .cls-6 {
        fill: #fffef5;
      }

      .cls-7 {
        fill: #e6dce3;
      }
    </style>
  </defs>
  <rect id="background" class="cls-1" x="25" y="25" width="446" height="446"/>
  <circle id="effect_outer" class="cls-2" cx="248.5" cy="252.5" r="224.5"/>
  <circle id="effect_inner" class="cls-3" cx="250.062" cy="251.188" r="174"/>
  <path id="heart_shadow" class="cls-4" d="M258,209.742C271.156,184.281,297.1,170.3,322,173c32.346,3.5,52.2,33.67,55,57.6,3.48,29.79-19.046,53.557-53,85.405-20.3,19.045-40.331,37.307-61,55.613a10.708,10.708,0,0,1-6,2.979,11.011,11.011,0,0,1-9-2.979q-28.475-26.488-57-53.627c-36.961-35.152-59.991-58.9-56-88.384,3.408-25.176,26.766-55.548,60-56.606,23.348-.744,46.444,13.256,59,36.744A2.511,2.511,0,0,0,258,209.742Z" transform="translate(-8 -8)"/>
  <path id="heart" class="cls-5" d="M255,203.742C268.156,178.281,294.1,164.3,319,167c32.346,3.5,52.2,33.67,55,57.6,3.48,29.79-19.046,53.557-53,85.405-20.3,19.045-40.331,37.307-61,55.613a10.708,10.708,0,0,1-6,2.979,11.011,11.011,0,0,1-9-2.979q-28.475-26.488-57-53.627c-36.961-35.152-59.991-58.9-56-88.384,3.408-25.176,26.766-55.548,60-56.606,23.348-.744,46.444,13.256,59,36.744A2.511,2.511,0,0,0,255,203.742Z" transform="translate(-8 -8)"/>
  <path id="twinkle" class="cls-6" d="M446.2,427.115q-22.8,1.2-23.994,24a1.2,1.2,0,0,1-2.4,0q-1.2-22.8-24-24a1.2,1.2,0,0,1,0-2.4q22.8-1.2,23.994-24a1.2,1.2,0,0,1,2.4,0q1.2,22.8,24,24A1.2,1.2,0,0,1,446.2,427.115Zm-1.328-65.74q-7.125.375-7.5,7.5a0.376,0.376,0,0,1-.75,0q-0.375-7.125-7.5-7.5a0.376,0.376,0,0,1,0-.75q7.125-.375,7.5-7.5a0.376,0.376,0,0,1,.75,0q0.375,7.125,7.5,7.5A0.376,0.376,0,0,1,444.875,361.375ZM366.25,430.25q-4.75.25-5,5a0.25,0.25,0,0,1-.5,0q-0.25-4.75-5-5a0.25,0.25,0,0,1,0-.5q4.75-.25,5-5a0.25,0.25,0,0,1,.5,0q0.25,4.75,5,5A0.25,0.25,0,0,1,366.25,430.25ZM156.9,88.9q-17.1.9-17.995,18a0.9,0.9,0,0,1-1.8,0q-0.9-17.1-18-18a0.9,0.9,0,0,1,0-1.8q17.1-.9,18-18a0.9,0.9,0,0,1,1.8,0q0.9,17.1,18,18A0.9,0.9,0,0,1,156.9,88.9Zm-47.274,43.215q-21.373,1.128-22.495,22.5a1.126,1.126,0,0,1-2.25,0q-1.128-21.372-22.5-22.494a1.127,1.127,0,0,1,0-2.25q21.372-1.127,22.495-22.5a1.126,1.126,0,0,1,2.25,0q1.128,21.372,22.5,22.494A1.127,1.127,0,0,1,109.628,132.112ZM68.675,86.175a3.307,3.307,0,0,0-3.5,3.5,0.175,0.175,0,0,1-.35,0,3.307,3.307,0,0,0-3.5-3.5,0.175,0.175,0,0,1,0-.35,3.307,3.307,0,0,0,3.5-3.5,0.175,0.175,0,0,1,.35,0,3.307,3.307,0,0,0,3.5,3.5A0.175,0.175,0,0,1,68.675,86.175ZM130.75,134.75q4.75-.25,5-5a0.25,0.25,0,0,1,.5,0q0.25,4.75,5,5a0.25,0.25,0,0,1,0,.5q-4.75.25-5,5a0.25,0.25,0,0,1-.5,0q-0.25-4.75-5-5A0.25,0.25,0,0,1,130.75,134.75Z" transform="translate(-8 -8)"/>
  <path id="frame" class="cls-7" d="M40,8H472a32,32,0,0,1,32,32V472a32,32,0,0,1-32,32H40A32,32,0,0,1,8,472V40A32,32,0,0,1,40,8ZM60,36H452a24,24,0,0,1,24,24V452a24,24,0,0,1-24,24H60a24,24,0,0,1-24-24V60A24,24,0,0,1,60,36Z" transform="translate(-8 -8)"/>
</svg>
