<svg id="recovery_stamina.svg" data-name="recovery/stamina.svg" xmlns="http://www.w3.org/2000/svg" width="496" height="496" viewBox="0 0 496 496">
  <defs>
    <style>
      .cls-1 {
        fill: #0f7fe9;
      }

      .cls-2 {
        fill: #18a6f7;
      }

      .cls-3 {
        fill: #20dcfc;
      }

      .cls-4 {
        fill: #25e9fd;
      }

      .cls-4, .cls-5, .cls-6, .cls-7, .cls-8 {
        fill-rule: evenodd;
      }

      .cls-5 {
        fill: #2dfdfd;
      }

      .cls-6 {
        fill: #14c7f9;
      }

      .cls-7 {
        fill: #ecfffb;
      }

      .cls-8 {
        fill: #e6dce3;
      }
    </style>
  </defs>
  <rect id="background" class="cls-1" x="25" y="25" width="446" height="446"/>
  <circle id="effect_outer" class="cls-2" cx="248.5" cy="252.5" r="224.5"/>
  <circle id="effect_inner" class="cls-3" cx="250.062" cy="251.188" r="174"/>
  <path id="gale" class="cls-4" d="M473,381c-3.315,42.708-40.663,77.338-82,97H193c14.922-1.744,29.342-3.708,44-6,107.66-16.832,168.908-44.153,188-81,6.321-12.2,8.089-22.653,7-32-3.618-31.063-39.37-58.923-96-72,72.911,1.039,121.487,28.623,134,66C472.5,360.458,473.888,369.56,473,381ZM103,189c21.492,12.008,46.041,20.563,71,26-46.285-1.244-89.669-13.518-124-39-26.641-19.774-37.214-41.615-38-52-0.815-10.768,3.327-25.011,16-43C43.19,59.439,63.439,41.311,87,27h82c-33.621,10.324-66.17,27.556-88,52-13.84,15.5-19.818,31.128-21,40a63.438,63.438,0,0,0,5,34C70.47,165.214,81.56,177.021,103,189Z" transform="translate(-8 -8)"/>
  <path id="column" class="cls-5" d="M423,300h-8a8,8,0,0,1-8-8V239a8,8,0,0,1,8-8h8a8,8,0,0,1,8,8v53A8,8,0,0,1,423,300ZM372,192h-8a8,8,0,0,1-8-8V161a8,8,0,0,1,8-8h8a8,8,0,0,1,8,8v23A8,8,0,0,1,372,192ZM110,408h-9a8,8,0,0,1-8-8V376a8,8,0,0,1,8-8h9a8,8,0,0,1,8,8v24A8,8,0,0,1,110,408Z" transform="translate(-8 -8)"/>
  <path id="twinkle_shadow" class="cls-6" d="M388.053,310.845Q324.35,314.2,321,377.857a2,2,0,0,1-3.994,0q-3.353-63.662-67.056-67.012a2,2,0,0,1,0-3.992Q313.65,303.5,317,239.84a2,2,0,0,1,3.994,0q3.353,63.663,67.056,67.013A2,2,0,0,1,388.053,310.845Zm-40.678-196q-35.625,1.873-37.5,37.476a1.878,1.878,0,0,1-3.75,0q-1.875-35.6-37.5-37.476a1.877,1.877,0,0,1,0-3.748q35.625-1.873,37.5-37.476a1.878,1.878,0,0,1,3.75,0q1.875,35.6,37.5,37.476A1.877,1.877,0,0,1,347.375,114.848Zm-80.322,76.073q-75.1,3.951-79.056,79.005a2,2,0,0,1-3.994,0q-3.952-75.054-79.056-79a2,2,0,0,1,0-3.992q75.1-3.95,79.056-79a2,2,0,0,1,3.994,0q3.952,75.056,79.056,79.005A2,2,0,0,1,267.053,190.921ZM191.675,372.983q34.676-1.824,36.5-36.477a1.828,1.828,0,0,1,3.65,0q1.826,34.653,36.5,36.477a1.826,1.826,0,0,1,0,3.648q-34.675,1.823-36.5,36.476a1.828,1.828,0,0,1-3.65,0q-1.826-34.653-36.5-36.476A1.826,1.826,0,0,1,191.675,372.983Z" transform="translate(-8 -8)"/>
  <path id="twinkle" class="cls-7" d="M385.053,303.845Q321.35,307.2,318,370.857a2,2,0,0,1-3.994,0q-3.353-63.662-67.056-67.012a2,2,0,0,1,0-3.992Q310.65,296.5,314,232.84a2,2,0,0,1,3.994,0q3.353,63.663,67.056,67.013A2,2,0,0,1,385.053,303.845Zm-40.678-196q-35.625,1.873-37.5,37.476a1.878,1.878,0,0,1-3.75,0q-1.875-35.6-37.5-37.476a1.877,1.877,0,0,1,0-3.748q35.625-1.873,37.5-37.476a1.878,1.878,0,0,1,3.75,0q1.875,35.6,37.5,37.476A1.877,1.877,0,0,1,344.375,107.848Zm-80.322,76.073q-75.1,3.951-79.056,79.005a2,2,0,0,1-3.994,0q-3.952-75.054-79.056-79a2,2,0,0,1,0-3.992q75.1-3.95,79.056-79a2,2,0,0,1,3.994,0q3.952,75.056,79.056,79.005A2,2,0,0,1,264.053,183.921ZM188.675,365.983q34.676-1.824,36.5-36.477a1.828,1.828,0,0,1,3.65,0q1.826,34.653,36.5,36.477a1.826,1.826,0,0,1,0,3.648q-34.675,1.823-36.5,36.476a1.828,1.828,0,0,1-3.65,0q-1.826-34.653-36.5-36.476A1.826,1.826,0,0,1,188.675,365.983Z" transform="translate(-8 -8)"/>
  <path id="frame" class="cls-8" d="M40,8H472a32,32,0,0,1,32,32V472a32,32,0,0,1-32,32H40A32,32,0,0,1,8,472V40A32,32,0,0,1,40,8ZM60,36H452a24,24,0,0,1,24,24V452a24,24,0,0,1-24,24H60a24,24,0,0,1-24-24V60A24,24,0,0,1,60,36Z" transform="translate(-8 -8)"/>
</svg>
