<svg id="buff_starting.svg" data-name="buff/starting.svg" xmlns="http://www.w3.org/2000/svg" width="496" height="496" viewBox="0 0 496 496">
  <defs>
    <style>
      .cls-1 {
        fill: #f99c36;
      }

      .cls-2 {
        fill: #f3ffff;
      }

      .cls-2, .cls-3, .cls-4, .cls-5 {
        fill-rule: evenodd;
      }

      .cls-3 {
        fill: #fa8a12;
      }

      .cls-4 {
        fill: #fff8d9;
      }

      .cls-5 {
        fill: #e6dce3;
      }
    </style>
  </defs>
  <rect id="background" class="cls-1" x="25" y="25" width="446" height="446"/>
  <path id="twinkle" class="cls-2" d="M410,137.008Q408.5,108.5,379.992,107,408.5,105.5,410,76.992,411.5,105.5,440.008,107,411.5,108.5,410,137.008ZM115,216.98Q113.451,187.549,84.02,186q29.432-1.549,30.98-30.98,1.549,29.431,30.98,30.98Q116.548,187.549,115,216.98ZM73,149.992Q71.95,130.05,52.008,129,71.95,127.95,73,108.008,74.05,127.951,93.992,129,74.05,130.05,73,149.992Z" transform="translate(-8 -8)"/>
  <path id="gate_2_shadow" class="cls-3" d="M450.031,268V409s0.733,14.678-3,19c-5.439,6.3-16,2-16,2l-43-27a10.162,10.162,0,0,1-6-7,8.265,8.265,0,0,1,0-3V298a12.659,12.659,0,0,1,2-10,12.167,12.167,0,0,1,5-4l36-24c8.938-7.1,18.957-6.654,23-2C450.291,260.6,450.617,264.449,450.031,268ZM141,390a8.243,8.243,0,0,1,0,3,10.162,10.162,0,0,1-6,7L92,427s-10.561,4.3-16-2c-3.732-4.322-3-19-3-19V265c-0.586-3.551-.26-7.4,2-10,4.043-4.654,14.063-5.1,23,2l36,24a12.167,12.167,0,0,1,5,4,12.651,12.651,0,0,1,2,10v95Z" transform="translate(-8 -8)"/>
  <path id="gate_2" class="cls-4" d="M444.031,262V403s0.733,14.678-3,19c-5.439,6.3-16,2-16,2l-43-27a10.162,10.162,0,0,1-6-7,8.265,8.265,0,0,1,0-3V292a12.659,12.659,0,0,1,2-10,12.167,12.167,0,0,1,5-4l36-24c8.938-7.1,18.957-6.654,23-2C444.291,254.6,444.617,258.449,444.031,262ZM135,384a8.243,8.243,0,0,1,0,3,10.162,10.162,0,0,1-6,7L86,421s-10.561,4.3-16-2c-3.732-4.322-3-19-3-19V259c-0.586-3.551-.26-7.4,2-10,4.043-4.654,14.063-5.1,23,2l36,24a12.167,12.167,0,0,1,5,4,12.651,12.651,0,0,1,2,10v95Z" transform="translate(-8 -8)"/>
  <path id="gate_1_shadow" class="cls-3" d="M357,437H166a4,4,0,0,1-4-4V179a4,4,0,0,1,4-4h12a4,4,0,0,1,4,4V407a3.983,3.983,0,0,1-.093.844A10.806,10.806,0,0,0,184,416a8.358,8.358,0,0,0,1,1H338a8.358,8.358,0,0,0,1-1,10.806,10.806,0,0,0,2.093-8.156A3.983,3.983,0,0,1,341,407V179a4,4,0,0,1,4-4h12a4,4,0,0,1,4,4V433A4,4,0,0,1,357,437Z" transform="translate(-8 -8)"/>
  <path id="gate_1" class="cls-4" d="M351,431H160a4,4,0,0,1-4-4V173a4,4,0,0,1,4-4h12a4,4,0,0,1,4,4V401a3.983,3.983,0,0,1-.093.844A10.806,10.806,0,0,0,178,410a8.358,8.358,0,0,0,1,1H332a8.358,8.358,0,0,0,1-1,10.806,10.806,0,0,0,2.093-8.156A3.983,3.983,0,0,1,335,401V173a4,4,0,0,1,4-4h12a4,4,0,0,1,4,4V427A4,4,0,0,1,351,431Z" transform="translate(-8 -8)"/>
  <path id="number_shadow" class="cls-3" d="M211,84H315a12,12,0,0,1,12,12V200a12,12,0,0,1-12,12H211a12,12,0,0,1-12-12V96A12,12,0,0,1,211,84Zm63,109H261a8,8,0,0,1-8-8V132H240a8,8,0,0,1-8-8V113a8,8,0,0,1,8-8h34a8,8,0,0,1,8,8v72A8,8,0,0,1,274,193Z" transform="translate(-8 -8)"/>
  <path id="bumber" class="cls-4" d="M205,78H309a12,12,0,0,1,12,12V194a12,12,0,0,1-12,12H205a12,12,0,0,1-12-12V90A12,12,0,0,1,205,78Zm63,109H255a8,8,0,0,1-8-8V126H234a8,8,0,0,1-8-8V107a8,8,0,0,1,8-8h34a8,8,0,0,1,8,8v72A8,8,0,0,1,268,187Z" transform="translate(-8 -8)"/>
  <path id="frame" class="cls-5" d="M40,8H472a32,32,0,0,1,32,32V472a32,32,0,0,1-32,32H40A32,32,0,0,1,8,472V40A32,32,0,0,1,40,8ZM60,36H452a24,24,0,0,1,24,24V452a24,24,0,0,1-24,24H60a24,24,0,0,1-24-24V60A24,24,0,0,1,60,36Z" transform="translate(-8 -8)"/>
</svg>
