<svg id="support_strategy.svg" data-name="support/strategy.svg" xmlns="http://www.w3.org/2000/svg" width="496" height="496" viewBox="0 0 496 496">
  <defs>
    <style>
      .cls-1 {
        fill: #55ab33;
      }

      .cls-2 {
        fill: #87d03f;
      }

      .cls-3 {
        fill: #c0e838;
      }

      .cls-4 {
        fill: #8ad114;
      }

      .cls-4, .cls-5, .cls-6, .cls-7 {
        fill-rule: evenodd;
      }

      .cls-5 {
        fill: #fff8d8;
      }

      .cls-6 {
        fill: #fffef5;
      }

      .cls-7 {
        fill: #e6dce3;
      }
    </style>
  </defs>
  <rect id="background" class="cls-1" x="25" y="25" width="446" height="446"/>
  <circle id="effect_outer" class="cls-2" cx="248.5" cy="252.5" r="224.5"/>
  <circle id="effect_inner" class="cls-3" cx="250.062" cy="251.188" r="174"/>
  <path id="mark_shadow" class="cls-4" d="M148,151.988A46.838,46.838,0,0,1,189,116H363a11.936,11.936,0,0,1,3,19.993h-7l-7,42.987h6V395.909a7.1,7.1,0,0,1-6,9H159a9.027,9.027,0,0,1-10-11ZM338,138l-5,40H182c-7.659-3.595-12.693-10.6-13-18-0.428-10.308,8.328-20.572,21-22H338ZM188,213H320a4,4,0,0,1,4,4v41a4,4,0,0,1-4,4H188a4,4,0,0,1-4-4V217A4,4,0,0,1,188,213Z" transform="translate(-8 -8)"/>
  <path id="mark" class="cls-5" d="M142,145.988A46.838,46.838,0,0,1,183,110H357a11.936,11.936,0,0,1,3,19.993h-7l-7,42.987h6V389.909a7.1,7.1,0,0,1-6,9H153a9.027,9.027,0,0,1-10-11ZM332,132l-5,40H176c-7.659-3.595-12.693-10.6-13-18-0.428-10.308,8.328-20.572,21-22H332ZM182,207H314a4,4,0,0,1,4,4v41a4,4,0,0,1-4,4H182a4,4,0,0,1-4-4V211A4,4,0,0,1,182,207Z" transform="translate(-8 -8)"/>
  <path id="twinkle" class="cls-6" d="M446.2,427.115q-22.8,1.2-23.994,24a1.2,1.2,0,0,1-2.4,0q-1.2-22.8-24-24a1.2,1.2,0,0,1,0-2.4q22.8-1.2,23.994-24a1.2,1.2,0,0,1,2.4,0q1.2,22.8,24,24A1.2,1.2,0,0,1,446.2,427.115Zm-1.328-65.74q-7.125.375-7.5,7.5a0.376,0.376,0,0,1-.75,0q-0.375-7.125-7.5-7.5a0.376,0.376,0,0,1,0-.75q7.125-.375,7.5-7.5a0.376,0.376,0,0,1,.75,0q0.375,7.125,7.5,7.5A0.376,0.376,0,0,1,444.875,361.375ZM366.25,430.25q-4.75.25-5,5a0.25,0.25,0,0,1-.5,0q-0.25-4.75-5-5a0.25,0.25,0,0,1,0-.5q4.75-.25,5-5a0.25,0.25,0,0,1,.5,0q0.25,4.75,5,5A0.25,0.25,0,0,1,366.25,430.25ZM156.9,88.9q-17.1.9-17.995,18a0.9,0.9,0,0,1-1.8,0q-0.9-17.1-18-18a0.9,0.9,0,0,1,0-1.8q17.1-.9,18-18a0.9,0.9,0,0,1,1.8,0q0.9,17.1,18,18A0.9,0.9,0,0,1,156.9,88.9Zm-47.274,43.215q-21.373,1.128-22.495,22.5a1.126,1.126,0,0,1-2.25,0q-1.128-21.372-22.5-22.494a1.127,1.127,0,0,1,0-2.25q21.372-1.127,22.495-22.5a1.126,1.126,0,0,1,2.25,0q1.128,21.372,22.5,22.494A1.127,1.127,0,0,1,109.628,132.112ZM68.675,86.175a3.307,3.307,0,0,0-3.5,3.5,0.175,0.175,0,0,1-.35,0,3.307,3.307,0,0,0-3.5-3.5,0.175,0.175,0,0,1,0-.35,3.307,3.307,0,0,0,3.5-3.5,0.175,0.175,0,0,1,.35,0,3.307,3.307,0,0,0,3.5,3.5A0.175,0.175,0,0,1,68.675,86.175ZM130.75,134.75q4.75-.25,5-5a0.25,0.25,0,0,1,.5,0q0.25,4.75,5,5a0.25,0.25,0,0,1,0,.5q-4.75.25-5,5a0.25,0.25,0,0,1-.5,0q-0.25-4.75-5-5A0.25,0.25,0,0,1,130.75,134.75Z" transform="translate(-8 -8)"/>
  <path id="frame" class="cls-7" d="M40,8H472a32,32,0,0,1,32,32V472a32,32,0,0,1-32,32H40A32,32,0,0,1,8,472V40A32,32,0,0,1,40,8ZM60,36H452a24,24,0,0,1,24,24V452a24,24,0,0,1-24,24H60a24,24,0,0,1-24-24V60A24,24,0,0,1,60,36Z" transform="translate(-8 -8)"/>
</svg>
