<svg data-name="support/power.svg" xmlns="http://www.w3.org/2000/svg" width="512" height="512"><path style="fill:#55ab33" d="M33 33h446v446H33z"/><circle cx="256.5" cy="260.5" r="224.5" style="fill:#87d03f"/><circle cx="258.062" cy="259.188" r="174" style="fill:#c0e838"/><path d="m124 348 57-179a43.489 43.489 0 0 1 27-28l58-14c8.825-.328 17.534 2.131 24 8 12.29 11.157 11.638 30.16 6 42-2.46 5.167-15.89 16.993-37 24-18.14 6.021-35.356 5.651-42 4a62.4 62.4 0 0 1-24-12c.588 9.805 5.04 19.11 13 25a31.68 31.68 0 0 0 16 6l-10 103h33a57.144 57.144 0 0 0 43 58c-15.024-14.048-27.237-34.357-24-55 5.765-36.761 58.615-59.751 97-46 18.314 6.561 46.812 26.5 45 58-1.487 25.855-23.389 49.5-54 54H144a21.387 21.387 0 0 1-10-3c-10.371-6.37-15.445-23.247-10-45z" style="fill-rule:evenodd;fill:#8ad114"/><path d="m118 342 57-179a43.489 43.489 0 0 1 27-28l58-14c8.825-.328 17.534 2.131 24 8 12.29 11.157 11.638 30.16 6 42-2.46 5.167-15.89 16.993-37 24-18.14 6.021-35.356 5.651-42 4a62.4 62.4 0 0 1-24-12c.588 9.805 5.04 19.11 13 25a31.68 31.68 0 0 0 16 6l-10 103h33a57.144 57.144 0 0 0 43 58c-15.024-14.048-27.237-34.357-24-55 5.765-36.761 58.615-59.751 97-46 18.314 6.561 46.812 26.5 45 58-1.487 25.855-23.389 49.5-54 54H138a21.387 21.387 0 0 1-10-3c-10.371-6.37-15.445-23.247-10-45z" style="fill:#fff9da;fill-rule:evenodd"/><path d="M446.2 427.115q-22.8 1.2-23.994 24a1.2 1.2 0 0 1-2.4 0q-1.2-22.8-24-24a1.2 1.2 0 0 1 0-2.4q22.8-1.2 23.994-24a1.2 1.2 0 0 1 2.4 0q1.2 22.8 24 24a1.2 1.2 0 0 1 0 2.4zm-1.328-65.74q-7.125.375-7.5 7.5a.376.376 0 0 1-.75 0q-.375-7.125-7.5-7.5a.376.376 0 0 1 0-.75q7.125-.375 7.5-7.5a.376.376 0 0 1 .75 0q.375 7.125 7.5 7.5a.376.376 0 0 1 .003.75zM366.25 430.25q-4.75.25-5 5a.25.25 0 0 1-.5 0q-.25-4.75-5-5a.25.25 0 0 1 0-.5q4.75-.25 5-5a.25.25 0 0 1 .5 0q.25 4.75 5 5a.25.25 0 0 1 0 .5zM156.9 88.9q-17.1.9-17.995 18a.9.9 0 0 1-1.8 0q-.9-17.1-18-18a.9.9 0 0 1 0-1.8q17.1-.9 18-18a.9.9 0 0 1 1.8 0q.9 17.1 18 18a.9.9 0 0 1-.005 1.8zm-47.274 43.215q-21.373 1.128-22.495 22.5a1.126 1.126 0 0 1-2.25 0q-1.128-21.372-22.5-22.494a1.127 1.127 0 0 1 0-2.25q21.372-1.127 22.495-22.5a1.126 1.126 0 0 1 2.25 0q1.128 21.372 22.5 22.494a1.127 1.127 0 0 1 .002 2.247zm-40.951-45.94a3.307 3.307 0 0 0-3.5 3.5.175.175 0 0 1-.35 0 3.307 3.307 0 0 0-3.5-3.5.175.175 0 0 1 0-.35 3.307 3.307 0 0 0 3.5-3.5.175.175 0 0 1 .35 0 3.307 3.307 0 0 0 3.5 3.5.175.175 0 0 1 0 .35zm62.075 48.575q4.75-.25 5-5a.25.25 0 0 1 .5 0q.25 4.75 5 5a.25.25 0 0 1 0 .5q-4.75.25-5 5a.25.25 0 0 1-.5 0q-.25-4.75-5-5a.25.25 0 0 1 0-.5z" style="fill:#fffef5;fill-rule:evenodd"/><path d="M40 8h432a32 32 0 0 1 32 32v432a32 32 0 0 1-32 32H40a32 32 0 0 1-32-32V40A32 32 0 0 1 40 8zm20 28h392a24 24 0 0 1 24 24v392a24 24 0 0 1-24 24H60a24 24 0 0 1-24-24V60a24 24 0 0 1 24-24z" style="fill:#e6dce3;fill-rule:evenodd"/></svg>