<svg id="buff_vision.svg" data-name="buff/vision.svg" xmlns="http://www.w3.org/2000/svg" width="496" height="496" viewBox="0 0 496 496">
  <defs>
    <style>
      .cls-1 {
        fill: #f99c36;
      }

      .cls-2 {
        fill: #f9fdff;
      }

      .cls-2, .cls-3, .cls-5, .cls-6, .cls-7 {
        fill-rule: evenodd;
      }

      .cls-3 {
        fill: #feeb54;
      }

      .cls-4 {
        fill: #fff9d6;
      }

      .cls-5 {
        fill: #fa8a12;
      }

      .cls-6 {
        fill: #fff8d9;
      }

      .cls-7 {
        fill: #e6dce3;
      }
    </style>
  </defs>
  <rect id="background" class="cls-1" x="25" y="25" width="446" height="446"/>
  <path id="twinkle" class="cls-2" d="M335,370.02Q334,351,314.98,350,334,349,335,329.98,336,349,355.02,350,336,351,335,370.02Zm-47,53.988Q286.5,395.5,257.992,394,286.5,392.5,288,363.992,289.5,392.5,318.008,394,289.5,395.5,288,424.008ZM197,112q-1.6-30.4-32-32,30.4-1.6,32-32,1.6,30.4,32,32Q198.6,81.6,197,112Z" transform="translate(-8 -8)"/>
  <path id="searchlight_1" class="cls-3" d="M429,56V350L159,215l50-44Z" transform="translate(-8 -8)"/>
  <ellipse id="searchlight_2" class="cls-4" cx="422.5" cy="195" rx="33.5" ry="147"/>
  <path id="dash_shadow" class="cls-5" d="M265,272l-28,32a11.676,11.676,0,0,1-5,3,12.044,12.044,0,0,1-9-1l-58-26a124.851,124.851,0,0,1-17,32l22-2a15.25,15.25,0,0,1,15,13l15,62,22-16c5.053-2.422,10.91-3.245,16-1,9.326,4.114,11.629,16.59,10,25a25.984,25.984,0,0,1-8,14l-43,32a13.229,13.229,0,0,1-9,2c-4.95-.751-9.257-4.565-11-10l-25-81a152.555,152.555,0,0,1-50,4L91,389a10.52,10.52,0,0,1-3,6,10.65,10.65,0,0,1-8,3l-53,2.891V366H59c1.083-6.751,2.4-13.352,4-20,1.464-6.094,3.111-12.023,5-18a24.226,24.226,0,0,0-31,6,54.4,54.4,0,0,1-10,12.788V315.915A52.209,52.209,0,0,1,44,309a30.82,30.82,0,0,1,15,2,30.083,30.083,0,0,1,7,4,83.44,83.44,0,0,1,25-56l-34-1L42,275c3.5,4.572,5.947,11.028,4,17-2.184,6.7-9.715,11.869-19,12.184v-58.7L36,233a9.618,9.618,0,0,1,10-5l61,1,12,2c-13.621-15.4-19.562-36.73-14-57a60.644,60.644,0,0,1,28-36,43.43,43.43,0,0,1,14-42,51.989,51.989,0,0,1,7,11,52.949,52.949,0,0,1,5,23,52.2,52.2,0,0,1,43,18,50.416,50.416,0,0,1,43-21,52.54,52.54,0,0,1-29,43,62.79,62.79,0,0,1,0,40c-6.661,19.4-22.681,33.759-42,40l50,24,12-11a17.757,17.757,0,0,1-3-14c1.263-5.641,5.758-9.671,10-12,7.721-4.239,17.19-3.215,25,1a20.418,20.418,0,0,1,8,15A20.847,20.847,0,0,1,265,272Z" transform="translate(-8 -8)"/>
  <path id="dash" class="cls-6" d="M263,266l-28,32a11.676,11.676,0,0,1-5,3,12.044,12.044,0,0,1-9-1l-58-26a124.851,124.851,0,0,1-17,32l22-2a15.25,15.25,0,0,1,15,13l15,62,22-16c5.053-2.422,10.91-3.245,16-1,9.326,4.114,11.629,16.59,10,25a25.984,25.984,0,0,1-8,14l-43,32a13.229,13.229,0,0,1-9,2c-4.95-.751-9.257-4.565-11-10l-25-81a152.555,152.555,0,0,1-50,4L89,383a10.52,10.52,0,0,1-3,6,10.65,10.65,0,0,1-8,3l-51,2.782V360H57c1.083-6.751,2.4-13.352,4-20,1.464-6.094,3.111-12.023,5-18a24.226,24.226,0,0,0-31,6,54.416,54.416,0,0,1-8,10.793V308.7A53.455,53.455,0,0,1,42,303a30.82,30.82,0,0,1,15,2,30.083,30.083,0,0,1,7,4,83.44,83.44,0,0,1,25-56l-34-1L40,269c3.5,4.572,5.947,11.028,4,17-2.025,6.211-8.648,11.1-17,12.035V236.71L34,227a9.618,9.618,0,0,1,10-5l61,1,12,2c-13.621-15.4-19.562-36.73-14-57a60.644,60.644,0,0,1,28-36,43.43,43.43,0,0,1,14-42,52,52,0,0,1,7,11,52.949,52.949,0,0,1,5,23,52.2,52.2,0,0,1,43,18,50.416,50.416,0,0,1,43-21,52.54,52.54,0,0,1-29,43,62.79,62.79,0,0,1,0,40c-6.661,19.4-22.681,33.759-42,40l50,24,12-11a17.757,17.757,0,0,1-3-14c1.263-5.641,5.758-9.671,10-12,7.721-4.239,17.19-3.215,25,1a20.418,20.418,0,0,1,8,15A20.847,20.847,0,0,1,263,266Z" transform="translate(-8 -8)"/>
  <path id="frame" class="cls-7" d="M40,8H472a32,32,0,0,1,32,32V472a32,32,0,0,1-32,32H40A32,32,0,0,1,8,472V40A32,32,0,0,1,40,8ZM60,36H452a24,24,0,0,1,24,24V452a24,24,0,0,1-24,24H60a24,24,0,0,1-24-24V60A24,24,0,0,1,60,36Z" transform="translate(-8 -8)"/>
</svg>
